<svg width="889" height="698" viewBox="0 0 889 698" fill="none" xmlns="http://www.w3.org/2000/svg">
<g id="tabs-pattern">
<g id="BACKGROUND">
<rect id="Rectangle 340" y="14.7319" width="888.629" height="665.018" fill="#EBEBEB"/>
<rect id="Rectangle 341" x="27.3271" y="51.0809" width="191.255" height="45.1137" rx="4" fill="white" stroke="#58A2F5" stroke-width="2"/>
<g id="Rectangle 344">
<path d="M26.3271 119.4C26.3271 116.639 28.5657 114.4 31.3271 114.4H857.302C860.063 114.4 862.302 116.639 862.302 119.4V644.395C862.302 647.156 860.063 649.395 857.302 649.395H31.3271C28.5657 649.395 26.3271 647.157 26.3271 644.395V119.4Z" fill="white"/>
<path d="M31.3271 114.9H857.302C859.787 114.9 861.802 116.915 861.802 119.4V644.395C861.802 646.88 859.787 648.895 857.302 648.895H31.3271C28.8419 648.895 26.8272 646.88 26.8271 644.395V119.4C26.8272 116.915 28.8419 114.9 31.3271 114.9Z" stroke="black" stroke-opacity="0.24"/>
</g>
<rect id="Rectangle 342" x="231.282" y="50.0809" width="193.255" height="47.1137" rx="5" fill="#CECECE"/>
<rect id="Rectangle 343" x="436.236" y="50.0809" width="193.255" height="47.1137" rx="5" fill="#CECECE"/>
</g>
<g id="main-view">
<path id="Rectangle 260" d="M14.4346 170.78C14.4346 169.675 15.33 168.78 16.4346 168.78H874.4C875.505 168.78 876.4 169.675 876.4 170.78V656.821C876.4 657.925 875.505 658.821 874.4 658.821H16.4346C15.33 658.821 14.4346 657.925 14.4346 656.821V170.78Z" fill="url(#paint0_linear_366_874)" fill-opacity="0.2" stroke="url(#paint1_linear_366_874)" stroke-opacity="0.5" stroke-width="2" stroke-dasharray="8 2"/>
<g id="Frame 112" filter="url(#filter0_dd_366_874)">
<path d="M710.502 637.75C710.502 635.099 712.651 632.95 715.302 632.95H857.502C860.153 632.95 862.302 635.099 862.302 637.75V674.95C862.302 677.601 860.153 679.75 857.502 679.75H715.302C712.651 679.75 710.502 677.601 710.502 674.95V637.75Z" fill="#D8EAFF" shape-rendering="crispEdges"/>
<path d="M715.302 633.75H857.502C859.711 633.75 861.502 635.54 861.502 637.75V674.95C861.502 677.159 859.711 678.95 857.502 678.95H715.302C713.093 678.95 711.302 677.159 711.302 674.95V637.75C711.302 635.541 713.093 633.75 715.302 633.75Z" stroke="black" stroke-opacity="0.58" stroke-width="1.6" style="mix-blend-mode:overlay" shape-rendering="crispEdges"/>
<path id="main-view_2" d="M717.901 665.35V651.935H719.898V653.318C720.188 652.891 720.589 652.507 721.101 652.166C721.63 651.807 722.253 651.628 722.97 651.628C723.618 651.628 724.181 651.79 724.659 652.115C725.154 652.422 725.504 652.857 725.709 653.42C725.982 652.976 726.383 652.567 726.912 652.191C727.441 651.816 728.081 651.628 728.832 651.628C729.668 651.628 730.359 651.884 730.906 652.396C731.452 652.891 731.725 653.565 731.725 654.419V665.35H729.626V654.854C729.626 654.376 729.489 654.017 729.216 653.779C728.943 653.54 728.584 653.42 728.141 653.42C727.424 653.42 726.861 653.625 726.451 654.035C726.059 654.427 725.862 654.973 725.862 655.673V665.35H723.763V654.854C723.763 654.376 723.627 654.017 723.354 653.779C723.08 653.54 722.722 653.42 722.278 653.42C721.562 653.42 720.998 653.625 720.589 654.035C720.196 654.427 720 654.973 720 655.673V665.35H717.901ZM746.782 663.942V665.555C746.253 665.708 745.826 665.785 745.502 665.785C744.068 665.785 743.275 665.111 743.121 663.763C742.37 664.496 741.636 665.025 740.919 665.35C740.203 665.657 739.417 665.811 738.564 665.811C737.267 665.811 736.209 665.469 735.39 664.787C734.588 664.087 734.187 663.114 734.187 661.868C734.187 660.947 734.383 660.213 734.775 659.667C735.168 659.103 735.646 658.685 736.209 658.412C736.789 658.122 737.335 657.934 737.847 657.849C738.086 657.815 738.453 657.764 738.948 657.695C739.443 657.61 740.066 657.516 740.817 657.414C741.67 657.294 742.259 657.132 742.583 656.927C742.925 656.723 743.095 656.407 743.095 655.98V655.519C743.095 654.188 742.071 653.523 740.023 653.523C739.033 653.523 738.283 653.719 737.771 654.111C737.276 654.487 736.985 655.084 736.9 655.903H734.75C734.784 654.35 735.287 653.241 736.26 652.575C737.25 651.893 738.539 651.551 740.126 651.551C741.781 651.551 743.036 651.867 743.889 652.499C744.742 653.113 745.169 654.017 745.169 655.212V662.943C745.169 663.643 745.553 663.993 746.321 663.993C746.457 663.993 746.611 663.976 746.782 663.942ZM743.095 660.691V658.566C742.652 658.771 742.097 658.933 741.431 659.052C740.783 659.172 740.177 659.265 739.614 659.334C738.624 659.453 737.83 659.684 737.233 660.025C736.653 660.366 736.363 660.964 736.363 661.817C736.363 662.483 736.601 663.003 737.079 663.379C737.574 663.754 738.248 663.942 739.102 663.942C739.733 663.942 740.348 663.805 740.945 663.532C741.559 663.242 742.071 662.849 742.481 662.355C742.891 661.86 743.095 661.305 743.095 660.691ZM754.389 650.015V647.455H756.949V650.015H754.389ZM756.719 651.935V663.609H760.84V665.35H750.012V663.609H754.62V653.676H750.012V651.935H756.719ZM765.427 665.35V651.935H767.398V654.163C767.927 653.343 768.533 652.703 769.216 652.243C769.915 651.782 770.794 651.551 771.853 651.551C772.638 651.551 773.346 651.688 773.977 651.961C774.626 652.217 775.138 652.618 775.513 653.164C775.906 653.693 776.102 654.376 776.102 655.212V665.35H773.977V656.057C773.977 655.152 773.704 654.487 773.158 654.06C772.612 653.633 771.963 653.42 771.213 653.42C770.41 653.42 769.736 653.625 769.19 654.035C768.644 654.444 768.234 654.982 767.961 655.647C767.688 656.313 767.552 657.03 767.552 657.798V665.35H765.427ZM781.226 656.185H790.903V658.028H781.226V656.185ZM807.471 651.935L802.555 665.35H800.2L795.285 651.935H797.563L801.429 662.79L805.269 651.935H807.471ZM815.641 650.015V647.455H818.201V650.015H815.641ZM817.971 651.935V663.609H822.092V665.35H811.264V663.609H815.872V653.676H811.264V651.935H817.971ZM837.841 661.203C837.619 662.602 836.996 663.72 835.972 664.556C834.965 665.392 833.676 665.811 832.106 665.811C830.758 665.811 829.631 665.512 828.727 664.915C827.822 664.3 827.14 663.464 826.679 662.406C826.235 661.348 826.013 660.136 826.013 658.771C826.013 657.269 826.269 655.98 826.781 654.905C827.293 653.83 828.01 653.002 828.932 652.422C829.853 651.824 830.929 651.526 832.157 651.526C833.54 651.526 834.666 651.85 835.537 652.499C836.424 653.147 837.073 654.052 837.482 655.212C837.909 656.373 838.122 657.729 838.122 659.283H828.241C828.275 660.597 828.616 661.689 829.265 662.559C829.913 663.413 830.886 663.839 832.183 663.839C833.941 663.839 835.11 662.96 835.69 661.203H837.841ZM832.132 653.497C830.937 653.497 830.024 653.889 829.393 654.675C828.761 655.46 828.394 656.415 828.292 657.542H835.818C835.818 656.791 835.665 656.117 835.357 655.519C835.067 654.905 834.649 654.419 834.103 654.06C833.557 653.685 832.9 653.497 832.132 653.497ZM842.76 665.35L839.97 651.935H842.12L844.04 663.174H844.066L845.934 651.935H848.648L850.594 663.199H850.619L852.539 651.935H854.664L851.822 665.35H849.262L847.291 653.804H847.266L845.32 665.35H842.76Z" fill="#16478F"/>
</g>
</g>
<g id="subjects.active/view">
<path id="Rectangle 260_2" d="M14.4346 170.78C14.4346 169.675 15.33 168.78 16.4346 168.78H874.4C875.505 168.78 876.4 169.675 876.4 170.78V656.821C876.4 657.925 875.505 658.821 874.4 658.821H16.4346C15.33 658.821 14.4346 657.925 14.4346 656.821V170.78Z" fill="url(#paint2_linear_366_874)" fill-opacity="0.2" stroke="url(#paint3_linear_366_874)" stroke-opacity="0.5" stroke-width="2" stroke-dasharray="8 2"/>
<g id="Frame 112_2" filter="url(#filter1_dd_366_874)">
<path d="M44 637.75C44 635.099 46.149 632.95 48.8 632.95H359C361.651 632.95 363.8 635.099 363.8 637.75V674.95C363.8 677.601 361.651 679.75 359 679.75H48.8C46.149 679.75 44 677.601 44 674.95V637.75Z" fill="#D8EAFF" shape-rendering="crispEdges"/>
<path d="M48.7998 633.75H359C361.209 633.75 363 635.54 363 637.75V674.95C363 677.159 361.209 678.95 359 678.95H48.7998C46.5908 678.95 44.7998 677.159 44.7998 674.95V637.75C44.7999 635.541 46.5908 633.75 48.7998 633.75Z" stroke="black" stroke-opacity="0.58" stroke-width="1.6" style="mix-blend-mode:overlay" shape-rendering="crispEdges"/>
<path id="subjects.active/view_2" d="M63.226 655.596H60.9988C60.9817 654.931 60.7257 654.401 60.2308 654.009C59.7529 653.616 59.1129 653.42 58.3108 653.42C57.4404 653.42 56.7321 653.599 56.186 653.958C55.6569 654.316 55.3924 654.794 55.3924 655.391C55.3924 655.869 55.5545 656.253 55.8788 656.543C56.2031 656.833 56.6809 657.064 57.3124 657.235L60.3588 658.028C61.4852 658.318 62.33 658.753 62.8932 659.334C63.4735 659.897 63.7636 660.656 63.7636 661.612C63.7636 662.909 63.2857 663.933 62.33 664.684C61.3743 665.435 60.0601 665.811 58.3876 665.811C54.8719 665.811 53.0372 664.3 52.8836 661.279H55.1364C55.2388 662.184 55.5631 662.849 56.1092 663.276C56.6724 663.703 57.4489 663.916 58.4388 663.916C59.3945 663.916 60.154 663.745 60.7172 663.404C61.2975 663.063 61.5876 662.576 61.5876 661.945C61.5876 661.365 61.434 660.929 61.1268 660.639C60.8196 660.349 60.2991 660.11 59.5652 659.923L56.7492 659.18C55.5375 658.856 54.6415 658.421 54.0612 657.875C53.498 657.311 53.2164 656.518 53.2164 655.494C53.2164 654.282 53.6772 653.318 54.5988 652.601C55.5375 651.884 56.7919 651.526 58.362 651.526C59.9321 651.526 61.1268 651.893 61.946 652.627C62.7823 653.343 63.2089 654.333 63.226 655.596ZM78.9742 651.935V665.35H77.0542V663.353C76.4398 664.24 75.7827 664.872 75.083 665.247C74.4003 665.623 73.5641 665.811 72.5742 665.811C71.3966 665.811 70.4323 665.546 69.6814 665.017C68.7598 664.351 68.299 663.396 68.299 662.15V651.935H70.4238V661.305C70.4238 662.209 70.7225 662.892 71.3198 663.353C71.8147 663.745 72.4377 663.942 73.1886 663.942C74.1955 663.942 75.0403 663.575 75.723 662.841C76.4739 662.039 76.8494 660.887 76.8494 659.385V651.935H78.9742ZM83.2536 665.35V646.687H85.3784V653.727C86.3512 652.26 87.7336 651.526 89.5256 651.526C90.8397 651.526 91.9149 651.841 92.7512 652.473C93.6045 653.087 94.236 653.924 94.6456 654.982C95.0552 656.04 95.26 657.217 95.26 658.515C95.26 659.88 95.0381 661.117 94.5944 662.227C94.1507 663.336 93.4936 664.215 92.6232 664.863C91.7699 665.495 90.7032 665.811 89.4232 665.811C87.5971 665.811 86.1805 665.043 85.1736 663.507V665.35H83.2536ZM89.1416 653.523C88.2371 653.523 87.5032 653.779 86.94 654.291C86.3939 654.803 85.9928 655.46 85.7368 656.262C85.4979 657.047 85.3784 657.875 85.3784 658.745C85.3784 659.581 85.4979 660.392 85.7368 661.177C85.9928 661.945 86.3939 662.576 86.94 663.071C87.5032 663.566 88.2371 663.814 89.1416 663.814C90.0461 663.814 90.78 663.575 91.3432 663.097C91.9235 662.619 92.3501 661.996 92.6232 661.228C92.9133 660.443 93.0584 659.615 93.0584 658.745C93.0584 657.806 92.9133 656.944 92.6232 656.159C92.3501 655.374 91.9235 654.743 91.3432 654.265C90.7629 653.77 90.0291 653.523 89.1416 653.523ZM104.634 650.015V647.455H107.194V650.015H104.634ZM104.839 666.246V653.676H99.4626V651.935H106.963V666.758C106.963 668.072 106.554 669.096 105.735 669.83C104.915 670.564 103.721 670.931 102.151 670.931C101.57 670.931 101.007 670.905 100.461 670.854C99.9149 670.82 99.4114 670.743 98.9506 670.623V668.755C99.4797 668.857 100.009 668.925 100.538 668.959C101.084 669.011 101.587 669.036 102.048 669.036C103.055 669.036 103.772 668.814 104.199 668.371C104.625 667.944 104.839 667.236 104.839 666.246ZM125.4 661.203C125.178 662.602 124.555 663.72 123.531 664.556C122.524 665.392 121.235 665.811 119.665 665.811C118.317 665.811 117.191 665.512 116.286 664.915C115.381 664.3 114.699 663.464 114.238 662.406C113.794 661.348 113.572 660.136 113.572 658.771C113.572 657.269 113.828 655.98 114.34 654.905C114.852 653.83 115.569 653.002 116.491 652.422C117.412 651.824 118.488 651.526 119.716 651.526C121.099 651.526 122.225 651.85 123.096 652.499C123.983 653.147 124.632 654.052 125.041 655.212C125.468 656.373 125.681 657.729 125.681 659.283H115.8C115.834 660.597 116.175 661.689 116.824 662.559C117.472 663.413 118.445 663.839 119.742 663.839C121.5 663.839 122.669 662.96 123.249 661.203H125.4ZM119.691 653.497C118.496 653.497 117.583 653.889 116.952 654.675C116.32 655.46 115.953 656.415 115.851 657.542H123.377C123.377 656.791 123.224 656.117 122.916 655.519C122.626 654.905 122.208 654.419 121.662 654.06C121.116 653.685 120.459 653.497 119.691 653.497ZM140.61 656.364H138.46C138.34 655.477 137.999 654.777 137.436 654.265C136.873 653.753 136.122 653.497 135.183 653.497C134.261 653.497 133.519 653.753 132.956 654.265C132.393 654.777 131.983 655.443 131.727 656.262C131.471 657.064 131.343 657.909 131.343 658.796C131.343 659.684 131.48 660.511 131.753 661.279C132.026 662.047 132.452 662.67 133.033 663.148C133.613 663.609 134.347 663.839 135.234 663.839C137.129 663.839 138.255 662.781 138.613 660.665H140.764C140.627 662.269 140.073 663.532 139.1 664.454C138.144 665.358 136.838 665.811 135.183 665.811C133.886 665.811 132.785 665.503 131.881 664.889C130.976 664.257 130.285 663.413 129.807 662.355C129.346 661.296 129.116 660.11 129.116 658.796C129.116 657.448 129.346 656.228 129.807 655.135C130.268 654.043 130.95 653.173 131.855 652.524C132.76 651.859 133.877 651.526 135.209 651.526C136.847 651.526 138.144 651.978 139.1 652.883C140.073 653.787 140.576 654.948 140.61 656.364ZM150.291 651.935H155.565V653.676H150.291V661.151C150.291 662.141 150.547 662.832 151.059 663.225C151.571 663.6 152.314 663.788 153.286 663.788C153.73 663.788 154.14 663.771 154.515 663.737C154.891 663.686 155.241 663.617 155.565 663.532V665.401C155.138 665.52 154.72 665.597 154.31 665.631C153.901 665.683 153.517 665.708 153.158 665.708C151.537 665.708 150.3 665.375 149.446 664.71C148.593 664.044 148.166 662.986 148.166 661.535V653.676H144.301V651.935H148.166V648.249H150.291V651.935ZM170.417 655.596H168.19C168.173 654.931 167.917 654.401 167.422 654.009C166.944 653.616 166.304 653.42 165.502 653.42C164.631 653.42 163.923 653.599 163.377 653.958C162.848 654.316 162.583 654.794 162.583 655.391C162.583 655.869 162.746 656.253 163.07 656.543C163.394 656.833 163.872 657.064 164.503 657.235L167.55 658.028C168.676 658.318 169.521 658.753 170.084 659.334C170.664 659.897 170.955 660.656 170.955 661.612C170.955 662.909 170.477 663.933 169.521 664.684C168.565 665.435 167.251 665.811 165.579 665.811C162.063 665.811 160.228 664.3 160.075 661.279H162.327C162.43 662.184 162.754 662.849 163.3 663.276C163.863 663.703 164.64 663.916 165.63 663.916C166.586 663.916 167.345 663.745 167.908 663.404C168.488 663.063 168.779 662.576 168.779 661.945C168.779 661.365 168.625 660.929 168.318 660.639C168.011 660.349 167.49 660.11 166.756 659.923L163.94 659.18C162.728 658.856 161.832 658.421 161.252 657.875C160.689 657.311 160.407 656.518 160.407 655.494C160.407 654.282 160.868 653.318 161.79 652.601C162.728 651.884 163.983 651.526 165.553 651.526C167.123 651.526 168.318 651.893 169.137 652.627C169.973 653.343 170.4 654.333 170.417 655.596ZM179.074 661.868H182.556V665.35H179.074V661.868ZM202.784 663.942V665.555C202.255 665.708 201.828 665.785 201.504 665.785C200.07 665.785 199.277 665.111 199.123 663.763C198.372 664.496 197.638 665.025 196.921 665.35C196.205 665.657 195.42 665.811 194.566 665.811C193.269 665.811 192.211 665.469 191.392 664.787C190.59 664.087 190.189 663.114 190.189 661.868C190.189 660.947 190.385 660.213 190.777 659.667C191.17 659.103 191.648 658.685 192.211 658.412C192.791 658.122 193.337 657.934 193.849 657.849C194.088 657.815 194.455 657.764 194.95 657.695C195.445 657.61 196.068 657.516 196.819 657.414C197.672 657.294 198.261 657.132 198.585 656.927C198.927 656.723 199.097 656.407 199.097 655.98V655.519C199.097 654.188 198.073 653.523 196.025 653.523C195.036 653.523 194.285 653.719 193.773 654.111C193.278 654.487 192.988 655.084 192.902 655.903H190.752C190.786 654.35 191.289 653.241 192.262 652.575C193.252 651.893 194.541 651.551 196.128 651.551C197.783 651.551 199.038 651.867 199.891 652.499C200.744 653.113 201.171 654.017 201.171 655.212V662.943C201.171 663.643 201.555 663.993 202.323 663.993C202.46 663.993 202.613 663.976 202.784 663.942ZM199.097 660.691V658.566C198.654 658.771 198.099 658.933 197.433 659.052C196.785 659.172 196.179 659.265 195.616 659.334C194.626 659.453 193.832 659.684 193.235 660.025C192.655 660.366 192.365 660.964 192.365 661.817C192.365 662.483 192.604 663.003 193.081 663.379C193.576 663.754 194.25 663.942 195.104 663.942C195.735 663.942 196.35 663.805 196.947 663.532C197.561 663.242 198.073 662.849 198.483 662.355C198.893 661.86 199.097 661.305 199.097 660.691ZM217.175 656.364H215.025C214.905 655.477 214.564 654.777 214.001 654.265C213.438 653.753 212.687 653.497 211.748 653.497C210.826 653.497 210.084 653.753 209.521 654.265C208.958 654.777 208.548 655.443 208.292 656.262C208.036 657.064 207.908 657.909 207.908 658.796C207.908 659.684 208.045 660.511 208.318 661.279C208.591 662.047 209.017 662.67 209.598 663.148C210.178 663.609 210.912 663.839 211.799 663.839C213.694 663.839 214.82 662.781 215.178 660.665H217.329C217.192 662.269 216.638 663.532 215.665 664.454C214.709 665.358 213.403 665.811 211.748 665.811C210.451 665.811 209.35 665.503 208.446 664.889C207.541 664.257 206.85 663.413 206.372 662.355C205.911 661.296 205.681 660.11 205.681 658.796C205.681 657.448 205.911 656.228 206.372 655.135C206.833 654.043 207.515 653.173 208.42 652.524C209.325 651.859 210.442 651.526 211.774 651.526C213.412 651.526 214.709 651.978 215.665 652.883C216.638 653.787 217.141 654.948 217.175 656.364ZM226.856 651.935H232.13V653.676H226.856V661.151C226.856 662.141 227.112 662.832 227.624 663.225C228.136 663.6 228.879 663.788 229.851 663.788C230.295 663.788 230.705 663.771 231.08 663.737C231.456 663.686 231.806 663.617 232.13 663.532V665.401C231.703 665.52 231.285 665.597 230.875 665.631C230.466 665.683 230.082 665.708 229.723 665.708C228.102 665.708 226.865 665.375 226.011 664.71C225.158 664.044 224.731 662.986 224.731 661.535V653.676H220.866V651.935H224.731V648.249H226.856V651.935ZM241.017 650.015V647.455H243.577V650.015H241.017ZM243.347 651.935V663.609H247.468V665.35H236.64V663.609H241.248V653.676H236.64V651.935H243.347ZM263.473 651.935L258.557 665.35H256.202L251.287 651.935H253.565L257.431 662.79L261.271 651.935H263.473ZM278.53 661.203C278.308 662.602 277.685 663.72 276.661 664.556C275.654 665.392 274.365 665.811 272.795 665.811C271.447 665.811 270.321 665.512 269.416 664.915C268.511 664.3 267.829 663.464 267.368 662.406C266.924 661.348 266.702 660.136 266.702 658.771C266.702 657.269 266.958 655.98 267.47 654.905C267.982 653.83 268.699 653.002 269.621 652.422C270.542 651.824 271.618 651.526 272.846 651.526C274.229 651.526 275.355 651.85 276.226 652.499C277.113 653.147 277.762 654.052 278.171 655.212C278.598 656.373 278.811 657.729 278.811 659.283H268.93C268.964 660.597 269.305 661.689 269.954 662.559C270.602 663.413 271.575 663.839 272.872 663.839C274.63 663.839 275.799 662.96 276.379 661.203H278.53ZM272.821 653.497C271.626 653.497 270.713 653.889 270.082 654.675C269.45 655.46 269.083 656.415 268.981 657.542H276.507C276.507 656.791 276.354 656.117 276.046 655.519C275.756 654.905 275.338 654.419 274.792 654.06C274.246 653.685 273.589 653.497 272.821 653.497ZM282.604 667.398L291.231 645.023H293.407L284.78 667.398H282.604ZM309.412 651.935L304.496 665.35H302.141L297.226 651.935H299.504L303.37 662.79L307.21 651.935H309.412ZM317.582 650.015V647.455H320.142V650.015H317.582ZM319.912 651.935V663.609H324.033V665.35H313.205V663.609H317.813V653.676H313.205V651.935H319.912ZM339.782 661.203C339.56 662.602 338.937 663.72 337.913 664.556C336.906 665.392 335.617 665.811 334.047 665.811C332.699 665.811 331.573 665.512 330.668 664.915C329.763 664.3 329.081 663.464 328.62 662.406C328.176 661.348 327.954 660.136 327.954 658.771C327.954 657.269 328.21 655.98 328.722 654.905C329.234 653.83 329.951 653.002 330.873 652.422C331.794 651.824 332.87 651.526 334.098 651.526C335.481 651.526 336.607 651.85 337.478 652.499C338.365 653.147 339.014 654.052 339.423 655.212C339.85 656.373 340.063 657.729 340.063 659.283H330.182C330.216 660.597 330.557 661.689 331.206 662.559C331.854 663.413 332.827 663.839 334.124 663.839C335.882 663.839 337.051 662.96 337.631 661.203H339.782ZM334.073 653.497C332.878 653.497 331.965 653.889 331.334 654.675C330.702 655.46 330.335 656.415 330.233 657.542H337.759C337.759 656.791 337.606 656.117 337.298 655.519C337.008 654.905 336.59 654.419 336.044 654.06C335.498 653.685 334.841 653.497 334.073 653.497ZM344.701 665.35L341.911 651.935H344.061L345.981 663.174H346.007L347.875 651.935H350.589L352.535 663.199H352.56L354.48 651.935H356.605L353.763 665.35H351.203L349.232 653.804H349.207L347.261 665.35H344.701Z" fill="#16478F"/>
</g>
</g>
<g id="subjects/view">
<path id="Rectangle 260_3" d="M14.4346 170.78C14.4346 169.675 15.33 168.78 16.4346 168.78H874.4C875.505 168.78 876.4 169.675 876.4 170.78V656.821C876.4 657.925 875.505 658.821 874.4 658.821H16.4346C15.33 658.821 14.4346 657.925 14.4346 656.821V170.78Z" fill="url(#paint4_linear_366_874)" fill-opacity="0.2" stroke="url(#paint5_linear_366_874)" stroke-opacity="0.5" stroke-width="2" stroke-dasharray="8 2"/>
<g id="Frame 112_3" filter="url(#filter2_dd_366_874)">
<path d="M410.6 637.75C410.6 635.099 412.749 632.95 415.4 632.95H618.6C621.251 632.95 623.4 635.099 623.4 637.75V674.95C623.4 677.601 621.251 679.75 618.6 679.75H415.4C412.749 679.75 410.6 677.601 410.6 674.95V637.75Z" fill="#D8EAFF" shape-rendering="crispEdges"/>
<path d="M415.399 633.75H618.6C620.809 633.75 622.6 635.54 622.6 637.75V674.95C622.6 677.159 620.809 678.95 618.6 678.95H415.399C413.19 678.95 411.399 677.159 411.399 674.95V637.75C411.4 635.541 413.19 633.75 415.399 633.75Z" stroke="black" stroke-opacity="0.58" stroke-width="1.6" style="mix-blend-mode:overlay" shape-rendering="crispEdges"/>
<path id="subjects/view_2" d="M429.826 655.596H427.598C427.581 654.931 427.325 654.401 426.83 654.009C426.353 653.616 425.713 653.42 424.91 653.42C424.04 653.42 423.332 653.599 422.786 653.958C422.257 654.316 421.992 654.794 421.992 655.391C421.992 655.869 422.154 656.253 422.478 656.543C422.803 656.833 423.281 657.064 423.912 657.235L426.958 658.028C428.085 658.318 428.93 658.753 429.493 659.334C430.073 659.897 430.363 660.656 430.363 661.612C430.363 662.909 429.885 663.933 428.93 664.684C427.974 665.435 426.66 665.811 424.987 665.811C421.471 665.811 419.637 664.3 419.483 661.279H421.736C421.838 662.184 422.163 662.849 422.709 663.276C423.272 663.703 424.049 663.916 425.038 663.916C425.994 663.916 426.754 663.745 427.317 663.404C427.897 663.063 428.187 662.576 428.187 661.945C428.187 661.365 428.034 660.929 427.726 660.639C427.419 660.349 426.899 660.11 426.165 659.923L423.349 659.18C422.137 658.856 421.241 658.421 420.661 657.875C420.098 657.311 419.816 656.518 419.816 655.494C419.816 654.282 420.277 653.318 421.198 652.601C422.137 651.884 423.391 651.526 424.962 651.526C426.532 651.526 427.726 651.893 428.546 652.627C429.382 653.343 429.809 654.333 429.826 655.596ZM445.574 651.935V665.35H443.654V663.353C443.039 664.24 442.382 664.872 441.683 665.247C441 665.623 440.164 665.811 439.174 665.811C437.996 665.811 437.032 665.546 436.281 665.017C435.359 664.351 434.899 663.396 434.899 662.15V651.935H437.023V661.305C437.023 662.209 437.322 662.892 437.919 663.353C438.414 663.745 439.037 663.942 439.788 663.942C440.795 663.942 441.64 663.575 442.323 662.841C443.074 662.039 443.449 660.887 443.449 659.385V651.935H445.574ZM449.853 665.35V646.687H451.978V653.727C452.951 652.26 454.333 651.526 456.125 651.526C457.439 651.526 458.515 651.841 459.351 652.473C460.204 653.087 460.836 653.924 461.245 654.982C461.655 656.04 461.86 657.217 461.86 658.515C461.86 659.88 461.638 661.117 461.194 662.227C460.75 663.336 460.093 664.215 459.223 664.863C458.369 665.495 457.303 665.811 456.023 665.811C454.197 665.811 452.78 665.043 451.773 663.507V665.35H449.853ZM455.741 653.523C454.837 653.523 454.103 653.779 453.54 654.291C452.993 654.803 452.592 655.46 452.336 656.262C452.097 657.047 451.978 657.875 451.978 658.745C451.978 659.581 452.097 660.392 452.336 661.177C452.592 661.945 452.993 662.576 453.54 663.071C454.103 663.566 454.837 663.814 455.741 663.814C456.646 663.814 457.38 663.575 457.943 663.097C458.523 662.619 458.95 661.996 459.223 661.228C459.513 660.443 459.658 659.615 459.658 658.745C459.658 657.806 459.513 656.944 459.223 656.159C458.95 655.374 458.523 654.743 457.943 654.265C457.363 653.77 456.629 653.523 455.741 653.523ZM471.233 650.015V647.455H473.793V650.015H471.233ZM471.438 666.246V653.676H466.062V651.935H473.563V666.758C473.563 668.072 473.153 669.096 472.334 669.83C471.515 670.564 470.32 670.931 468.75 670.931C468.17 670.931 467.607 670.905 467.061 670.854C466.514 670.82 466.011 670.743 465.55 670.623V668.755C466.079 668.857 466.608 668.925 467.137 668.959C467.684 669.011 468.187 669.036 468.648 669.036C469.655 669.036 470.372 668.814 470.798 668.371C471.225 667.944 471.438 667.236 471.438 666.246ZM491.999 661.203C491.777 662.602 491.154 663.72 490.13 664.556C489.123 665.392 487.835 665.811 486.265 665.811C484.917 665.811 483.79 665.512 482.886 664.915C481.981 664.3 481.298 663.464 480.838 662.406C480.394 661.348 480.172 660.136 480.172 658.771C480.172 657.269 480.428 655.98 480.94 654.905C481.452 653.83 482.169 653.002 483.09 652.422C484.012 651.824 485.087 651.526 486.316 651.526C487.698 651.526 488.825 651.85 489.695 652.499C490.583 653.147 491.231 654.052 491.641 655.212C492.067 656.373 492.281 657.729 492.281 659.283H482.399C482.433 660.597 482.775 661.689 483.423 662.559C484.072 663.413 485.045 663.839 486.342 663.839C488.099 663.839 489.269 662.96 489.849 661.203H491.999ZM486.29 653.497C485.096 653.497 484.183 653.889 483.551 654.675C482.92 655.46 482.553 656.415 482.45 657.542H489.977C489.977 656.791 489.823 656.117 489.516 655.519C489.226 654.905 488.808 654.419 488.262 654.06C487.715 653.685 487.058 653.497 486.29 653.497ZM507.21 656.364H505.059C504.94 655.477 504.599 654.777 504.035 654.265C503.472 653.753 502.721 653.497 501.783 653.497C500.861 653.497 500.119 653.753 499.555 654.265C498.992 654.777 498.583 655.443 498.327 656.262C498.071 657.064 497.943 657.909 497.943 658.796C497.943 659.684 498.079 660.511 498.352 661.279C498.625 662.047 499.052 662.67 499.632 663.148C500.212 663.609 500.946 663.839 501.834 663.839C503.728 663.839 504.855 662.781 505.213 660.665H507.363C507.227 662.269 506.672 663.532 505.699 664.454C504.744 665.358 503.438 665.811 501.783 665.811C500.486 665.811 499.385 665.503 498.48 664.889C497.576 664.257 496.884 663.413 496.407 662.355C495.946 661.296 495.715 660.11 495.715 658.796C495.715 657.448 495.946 656.228 496.407 655.135C496.867 654.043 497.55 653.173 498.455 652.524C499.359 651.859 500.477 651.526 501.808 651.526C503.447 651.526 504.744 651.978 505.699 652.883C506.672 653.787 507.176 654.948 507.21 656.364ZM516.891 651.935H522.164V653.676H516.891V661.151C516.891 662.141 517.147 662.832 517.659 663.225C518.171 663.6 518.913 663.788 519.886 663.788C520.33 663.788 520.739 663.771 521.115 663.737C521.49 663.686 521.84 663.617 522.164 663.532V665.401C521.738 665.52 521.32 665.597 520.91 665.631C520.5 665.683 520.116 665.708 519.758 665.708C518.137 665.708 516.899 665.375 516.046 664.71C515.193 664.044 514.766 662.986 514.766 661.535V653.676H510.9V651.935H514.766V648.249H516.891V651.935ZM537.017 655.596H534.789C534.772 654.931 534.516 654.401 534.021 654.009C533.544 653.616 532.904 653.42 532.101 653.42C531.231 653.42 530.523 653.599 529.977 653.958C529.448 654.316 529.183 654.794 529.183 655.391C529.183 655.869 529.345 656.253 529.669 656.543C529.994 656.833 530.472 657.064 531.103 657.235L534.149 658.028C535.276 658.318 536.121 658.753 536.684 659.334C537.264 659.897 537.554 660.656 537.554 661.612C537.554 662.909 537.076 663.933 536.121 664.684C535.165 665.435 533.851 665.811 532.178 665.811C528.662 665.811 526.828 664.3 526.674 661.279H528.927C529.029 662.184 529.354 662.849 529.9 663.276C530.463 663.703 531.24 663.916 532.229 663.916C533.185 663.916 533.945 663.745 534.508 663.404C535.088 663.063 535.378 662.576 535.378 661.945C535.378 661.365 535.225 660.929 534.917 660.639C534.61 660.349 534.09 660.11 533.356 659.923L530.54 659.18C529.328 658.856 528.432 658.421 527.852 657.875C527.289 657.311 527.007 656.518 527.007 655.494C527.007 654.282 527.468 653.318 528.389 652.601C529.328 651.884 530.582 651.526 532.153 651.526C533.723 651.526 534.917 651.893 535.737 652.627C536.573 653.343 537 654.333 537.017 655.596ZM542.013 667.398L550.64 645.023H552.816L544.189 667.398H542.013ZM568.82 651.935L563.905 665.35H561.55L556.635 651.935H558.913L562.779 662.79L566.619 651.935H568.82ZM576.991 650.015V647.455H579.551V650.015H576.991ZM579.32 651.935V663.609H583.442V665.35H572.613V663.609H577.221V653.676H572.613V651.935H579.32ZM599.19 661.203C598.968 662.602 598.345 663.72 597.321 664.556C596.314 665.392 595.026 665.811 593.456 665.811C592.108 665.811 590.981 665.512 590.077 664.915C589.172 664.3 588.489 663.464 588.029 662.406C587.585 661.348 587.363 660.136 587.363 658.771C587.363 657.269 587.619 655.98 588.131 654.905C588.643 653.83 589.36 653.002 590.281 652.422C591.203 651.824 592.278 651.526 593.507 651.526C594.889 651.526 596.016 651.85 596.886 652.499C597.774 653.147 598.422 654.052 598.832 655.212C599.258 656.373 599.472 657.729 599.472 659.283H589.59C589.624 660.597 589.966 661.689 590.614 662.559C591.263 663.413 592.236 663.839 593.533 663.839C595.29 663.839 596.46 662.96 597.04 661.203H599.19ZM593.481 653.497C592.287 653.497 591.374 653.889 590.742 654.675C590.111 655.46 589.744 656.415 589.641 657.542H597.168C597.168 656.791 597.014 656.117 596.707 655.519C596.417 654.905 595.999 654.419 595.453 654.06C594.906 653.685 594.249 653.497 593.481 653.497ZM604.11 665.35L601.319 651.935H603.47L605.39 663.174H605.415L607.284 651.935H609.998L611.943 663.199H611.969L613.889 651.935H616.014L613.172 665.35H610.612L608.641 653.804H608.615L606.67 665.35H604.11Z" fill="#16478F"/>
</g>
</g>
<g id="subjects">
<path id="Rectangle 260_4" d="M22.8818 99.6078C22.8818 100.712 23.7773 101.608 24.8818 101.608H220.259C221.363 101.608 222.259 100.712 222.259 99.6078V47.1445C222.259 46.0399 221.363 45.1445 220.259 45.1445H24.8818C23.7773 45.1445 22.8818 46.0399 22.8818 47.1445V99.6078Z" fill="#2770F8" fill-opacity="0.2" stroke="#2770F8" stroke-opacity="0.7" stroke-width="1.5" stroke-dasharray="8 2"/>
<path id="Rectangle 261" d="M228.774 99.6078C228.774 100.712 229.67 101.608 230.774 101.608H425.422C426.526 101.608 427.422 100.712 427.422 99.6078V47.1445C427.422 46.0399 426.526 45.1445 425.422 45.1445H230.774C229.67 45.1445 228.774 46.0399 228.774 47.1445V99.6078Z" fill="#2770F8" fill-opacity="0.2" stroke="#2770F8" stroke-opacity="0.7" stroke-width="1.5" stroke-dasharray="8 2"/>
<path id="Rectangle 262" d="M433.938 99.6078C433.938 100.712 434.833 101.608 435.938 101.608H630.308C631.412 101.608 632.308 100.712 632.308 99.6078V47.1445C632.308 46.0399 631.412 45.1445 630.308 45.1445H435.938C434.833 45.1445 433.938 46.0399 433.938 47.1445V99.6078Z" fill="#2770F8" fill-opacity="0.2" stroke="#2770F8" stroke-opacity="0.7" stroke-width="1.5" stroke-dasharray="8 2"/>
<g id="Frame 112_4" filter="url(#filter3_dd_366_874)">
<path d="M533.123 22.8C533.123 20.149 535.272 18 537.923 18H665.123C667.774 18 669.923 20.149 669.923 22.8V60C669.923 62.651 667.774 64.8 665.123 64.8H537.923C535.272 64.8 533.123 62.651 533.123 60V22.8Z" fill="#D8EAFF" shape-rendering="crispEdges"/>
<path d="M537.923 18.7998H665.123C667.332 18.7998 669.123 20.5908 669.123 22.7998V60C669.123 62.2091 667.332 64 665.123 64H537.923C535.714 63.9999 533.923 62.2091 533.923 60V22.7998C533.923 20.5908 535.714 18.7999 537.923 18.7998Z" stroke="black" stroke-opacity="0.58" stroke-width="1.6" style="mix-blend-mode:overlay" shape-rendering="crispEdges"/>
<path id="subjects_2" d="M552.349 40.6464H550.122C550.105 39.9808 549.849 39.4518 549.354 39.0592C548.876 38.6667 548.236 38.4704 547.434 38.4704C546.563 38.4704 545.855 38.6496 545.309 39.008C544.78 39.3664 544.515 39.8443 544.515 40.4416C544.515 40.9195 544.678 41.3035 545.002 41.5936C545.326 41.8838 545.804 42.1142 546.435 42.2848L549.482 43.0784C550.608 43.3686 551.453 43.8038 552.016 44.384C552.597 44.9472 552.887 45.7067 552.887 46.6624C552.887 47.9595 552.409 48.9835 551.453 49.7344C550.497 50.4854 549.183 50.8608 547.511 50.8608C543.995 50.8608 542.16 49.3504 542.007 46.3296H544.259C544.362 47.2342 544.686 47.8998 545.232 48.3264C545.795 48.7531 546.572 48.9664 547.562 48.9664C548.518 48.9664 549.277 48.7958 549.84 48.4544C550.421 48.1131 550.711 47.6267 550.711 46.9952C550.711 46.415 550.557 45.9798 550.25 45.6896C549.943 45.3995 549.422 45.1606 548.688 44.9728L545.872 44.2304C544.661 43.9062 543.765 43.471 543.184 42.9248C542.621 42.3616 542.339 41.568 542.339 40.544C542.339 39.3323 542.8 38.368 543.722 37.6512C544.661 36.9344 545.915 36.576 547.485 36.576C549.055 36.576 550.25 36.943 551.069 37.6768C551.905 38.3936 552.332 39.3835 552.349 40.6464ZM568.097 36.9856V50.4H566.177V48.4032C565.563 49.2907 564.906 49.9222 564.206 50.2976C563.523 50.6731 562.687 50.8608 561.697 50.8608C560.52 50.8608 559.555 50.5963 558.804 50.0672C557.883 49.4016 557.422 48.4459 557.422 47.2V36.9856H559.547V46.3552C559.547 47.2598 559.846 47.9424 560.443 48.4032C560.938 48.7958 561.561 48.992 562.312 48.992C563.319 48.992 564.163 48.6251 564.846 47.8912C565.597 47.0891 565.972 45.9371 565.972 44.4352V36.9856H568.097ZM572.377 50.4V31.7376H574.501V38.7776C575.474 37.3099 576.857 36.576 578.649 36.576C579.963 36.576 581.038 36.8918 581.874 37.5232C582.728 38.1376 583.359 38.9739 583.769 40.032C584.178 41.0902 584.383 42.2678 584.383 43.5648C584.383 44.9302 584.161 46.1675 583.717 47.2768C583.274 48.3862 582.617 49.2651 581.746 49.9136C580.893 50.5451 579.826 50.8608 578.546 50.8608C576.72 50.8608 575.304 50.0928 574.297 48.5568V50.4H572.377ZM578.265 38.5728C577.36 38.5728 576.626 38.8288 576.063 39.3408C575.517 39.8528 575.116 40.5099 574.86 41.312C574.621 42.0971 574.501 42.9248 574.501 43.7952C574.501 44.6315 574.621 45.4422 574.86 46.2272C575.116 46.9952 575.517 47.6267 576.063 48.1216C576.626 48.6166 577.36 48.864 578.265 48.864C579.169 48.864 579.903 48.6251 580.466 48.1472C581.047 47.6694 581.473 47.0464 581.746 46.2784C582.036 45.4934 582.181 44.6656 582.181 43.7952C582.181 42.8566 582.036 41.9947 581.746 41.2096C581.473 40.4246 581.047 39.7931 580.466 39.3152C579.886 38.8203 579.152 38.5728 578.265 38.5728ZM593.757 35.0656V32.5056H596.317V35.0656H593.757ZM593.962 51.296V38.7264H588.586V36.9856H596.086V51.808C596.086 53.1222 595.677 54.1462 594.858 54.88C594.038 55.6139 592.844 55.9808 591.274 55.9808C590.693 55.9808 590.13 55.9552 589.584 55.904C589.038 55.8699 588.534 55.7931 588.074 55.6736V53.8048C588.603 53.9072 589.132 53.9755 589.661 54.0096C590.207 54.0608 590.71 54.0864 591.171 54.0864C592.178 54.0864 592.895 53.8646 593.322 53.4208C593.748 52.9942 593.962 52.2859 593.962 51.296ZM614.523 46.2528C614.301 47.6523 613.678 48.7702 612.654 49.6064C611.647 50.4427 610.358 50.8608 608.788 50.8608C607.44 50.8608 606.314 50.5622 605.409 49.9648C604.505 49.3504 603.822 48.5142 603.361 47.456C602.917 46.3979 602.695 45.1862 602.695 43.8208C602.695 42.319 602.951 41.0304 603.463 39.9552C603.975 38.88 604.692 38.0523 605.614 37.472C606.535 36.8747 607.611 36.576 608.839 36.576C610.222 36.576 611.348 36.9003 612.219 37.5488C613.106 38.1974 613.755 39.1019 614.164 40.2624C614.591 41.423 614.804 42.7798 614.804 44.3328H604.923C604.957 45.647 605.298 46.7392 605.947 47.6096C606.595 48.463 607.568 48.8896 608.865 48.8896C610.623 48.8896 611.792 48.0107 612.372 46.2528H614.523ZM608.814 38.5472C607.619 38.5472 606.706 38.9398 606.075 39.7248C605.443 40.5099 605.076 41.4656 604.974 42.592H612.5C612.5 41.8411 612.347 41.167 612.039 40.5696C611.749 39.9552 611.331 39.4688 610.785 39.1104C610.239 38.735 609.582 38.5472 608.814 38.5472ZM629.733 41.4144H627.583C627.463 40.527 627.122 39.8272 626.559 39.3152C625.996 38.8032 625.245 38.5472 624.306 38.5472C623.384 38.5472 622.642 38.8032 622.079 39.3152C621.516 39.8272 621.106 40.4928 620.85 41.312C620.594 42.1142 620.466 42.959 620.466 43.8464C620.466 44.7339 620.603 45.5616 620.876 46.3296C621.149 47.0976 621.575 47.7206 622.156 48.1984C622.736 48.6592 623.47 48.8896 624.357 48.8896C626.252 48.8896 627.378 47.8315 627.736 45.7152H629.887C629.75 47.3195 629.196 48.5824 628.223 49.504C627.267 50.4086 625.962 50.8608 624.306 50.8608C623.009 50.8608 621.908 50.5536 621.004 49.9392C620.099 49.3078 619.408 48.463 618.93 47.4048C618.469 46.3467 618.239 45.1606 618.239 43.8464C618.239 42.4982 618.469 41.2779 618.93 40.1856C619.391 39.0934 620.074 38.223 620.978 37.5744C621.883 36.9088 623 36.576 624.332 36.576C625.97 36.576 627.267 37.0283 628.223 37.9328C629.196 38.8374 629.699 39.9979 629.733 41.4144ZM639.414 36.9856H644.688V38.7264H639.414V46.2016C639.414 47.1915 639.67 47.8827 640.182 48.2752C640.694 48.6507 641.437 48.8384 642.409 48.8384C642.853 48.8384 643.263 48.8214 643.638 48.7872C644.014 48.736 644.364 48.6678 644.688 48.5824V50.4512C644.261 50.5707 643.843 50.6475 643.433 50.6816C643.024 50.7328 642.64 50.7584 642.281 50.7584C640.66 50.7584 639.423 50.4256 638.569 49.76C637.716 49.0944 637.289 48.0363 637.289 46.5856V38.7264H633.424V36.9856H637.289V33.2992H639.414V36.9856ZM659.54 40.6464H657.313C657.296 39.9808 657.04 39.4518 656.545 39.0592C656.067 38.6667 655.427 38.4704 654.625 38.4704C653.754 38.4704 653.046 38.6496 652.5 39.008C651.971 39.3664 651.706 39.8443 651.706 40.4416C651.706 40.9195 651.869 41.3035 652.193 41.5936C652.517 41.8838 652.995 42.1142 653.626 42.2848L656.673 43.0784C657.799 43.3686 658.644 43.8038 659.207 44.384C659.788 44.9472 660.078 45.7067 660.078 46.6624C660.078 47.9595 659.6 48.9835 658.644 49.7344C657.688 50.4854 656.374 50.8608 654.702 50.8608C651.186 50.8608 649.351 49.3504 649.198 46.3296H651.45C651.553 47.2342 651.877 47.8998 652.423 48.3264C652.986 48.7531 653.763 48.9664 654.753 48.9664C655.709 48.9664 656.468 48.7958 657.031 48.4544C657.612 48.1131 657.902 47.6267 657.902 46.9952C657.902 46.415 657.748 45.9798 657.441 45.6896C657.134 45.3995 656.613 45.1606 655.879 44.9728L653.063 44.2304C651.852 43.9062 650.956 43.471 650.375 42.9248C649.812 42.3616 649.53 41.568 649.53 40.544C649.53 39.3323 649.991 38.368 650.913 37.6512C651.852 36.9344 653.106 36.576 654.676 36.576C656.246 36.576 657.441 36.943 658.26 37.6768C659.096 38.3936 659.523 39.3835 659.54 40.6464Z" fill="#16478F"/>
</g>
</g>
<g id="tabs-view">
<path id="Rectangle 262_2" d="M14.4346 47.1445C14.4346 46.0399 15.33 45.1445 16.4346 45.1445H860.302C861.406 45.1445 862.302 46.0399 862.302 47.1445V108.608C862.302 109.712 861.406 110.608 860.302 110.608H16.4346C15.33 110.608 14.4346 109.712 14.4346 108.608V47.1445Z" fill="url(#paint6_linear_366_874)" fill-opacity="0.2" stroke="url(#paint7_linear_366_874)" stroke-opacity="0.5" stroke-width="2" stroke-dasharray="8 2"/>
<g id="Frame 112_5" filter="url(#filter4_dd_366_874)">
<path d="M695 83.0078C695 80.3568 697.149 78.2078 699.8 78.2078H842C844.651 78.2078 846.8 80.3568 846.8 83.0078V120.208C846.8 122.859 844.651 125.008 842 125.008H699.8C697.149 125.008 695 122.859 695 120.208V83.0078Z" fill="#D8EAFF" shape-rendering="crispEdges"/>
<path d="M699.8 79.0076H842C844.209 79.0076 846 80.7985 846 83.0076V120.208C846 122.417 844.209 124.208 842 124.208H699.8C697.591 124.208 695.8 122.417 695.8 120.208V83.0076C695.8 80.7986 697.591 79.0077 699.8 79.0076Z" stroke="black" stroke-opacity="0.58" stroke-width="1.6" style="mix-blend-mode:overlay" shape-rendering="crispEdges"/>
<path id="tabs-view_2" d="M709.413 97.1934H714.687V98.9342H709.413V106.409C709.413 107.399 709.669 108.09 710.181 108.483C710.693 108.858 711.436 109.046 712.408 109.046C712.852 109.046 713.262 109.029 713.637 108.995C714.013 108.944 714.363 108.876 714.687 108.79V110.659C714.26 110.778 713.842 110.855 713.432 110.889C713.023 110.941 712.639 110.966 712.28 110.966C710.659 110.966 709.422 110.633 708.568 109.968C707.715 109.302 707.288 108.244 707.288 106.793V98.9342H703.423V97.1934H707.288V93.507H709.413V97.1934ZM731.28 109.2V110.813C730.751 110.966 730.324 111.043 730 111.043C728.566 111.043 727.773 110.369 727.619 109.021C726.868 109.754 726.134 110.284 725.417 110.608C724.701 110.915 723.916 111.069 723.062 111.069C721.765 111.069 720.707 110.727 719.888 110.045C719.086 109.345 718.685 108.372 718.685 107.126C718.685 106.205 718.881 105.471 719.273 104.925C719.666 104.361 720.144 103.943 720.707 103.67C721.287 103.38 721.833 103.192 722.345 103.107C722.584 103.073 722.951 103.022 723.446 102.953C723.941 102.868 724.564 102.774 725.315 102.672C726.168 102.552 726.757 102.39 727.081 102.185C727.423 101.981 727.593 101.665 727.593 101.238V100.777C727.593 99.4462 726.569 98.7806 724.521 98.7806C723.532 98.7806 722.781 98.9769 722.269 99.3694C721.774 99.7449 721.484 100.342 721.398 101.161H719.248C719.282 99.6083 719.785 98.499 720.758 97.8334C721.748 97.1507 723.037 96.8094 724.624 96.8094C726.279 96.8094 727.534 97.1251 728.387 97.7566C729.24 98.371 729.667 99.2755 729.667 100.47V108.201C729.667 108.901 730.051 109.251 730.819 109.251C730.956 109.251 731.109 109.234 731.28 109.2ZM727.593 105.949V103.824C727.15 104.029 726.595 104.191 725.929 104.31C725.281 104.43 724.675 104.524 724.112 104.592C723.122 104.711 722.328 104.942 721.731 105.283C721.151 105.624 720.861 106.222 720.861 107.075C720.861 107.741 721.1 108.261 721.577 108.637C722.072 109.012 722.746 109.2 723.6 109.2C724.231 109.2 724.846 109.063 725.443 108.79C726.057 108.5 726.569 108.108 726.979 107.613C727.389 107.118 727.593 106.563 727.593 105.949ZM734.254 110.608V91.9454H736.378V98.9854C737.351 97.5177 738.734 96.7838 740.526 96.7838C741.84 96.7838 742.915 97.0995 743.751 97.731C744.605 98.3454 745.236 99.1817 745.646 100.24C746.055 101.298 746.26 102.476 746.26 103.773C746.26 105.138 746.038 106.375 745.594 107.485C745.151 108.594 744.494 109.473 743.623 110.121C742.77 110.753 741.703 111.069 740.423 111.069C738.597 111.069 737.181 110.301 736.174 108.765V110.608H734.254ZM740.142 98.7806C739.237 98.7806 738.503 99.0366 737.94 99.5486C737.394 100.061 736.993 100.718 736.737 101.52C736.498 102.305 736.378 103.133 736.378 104.003C736.378 104.839 736.498 105.65 736.737 106.435C736.993 107.203 737.394 107.834 737.94 108.329C738.503 108.824 739.237 109.072 740.142 109.072C741.046 109.072 741.78 108.833 742.343 108.355C742.923 107.877 743.35 107.254 743.623 106.486C743.913 105.701 744.058 104.873 744.058 104.003C744.058 103.064 743.913 102.202 743.623 101.417C743.35 100.632 742.923 100.001 742.343 99.523C741.763 99.0281 741.029 98.7806 740.142 98.7806ZM760.165 100.854H757.938C757.921 100.189 757.665 99.6595 757.17 99.267C756.692 98.8745 756.052 98.6782 755.25 98.6782C754.379 98.6782 753.671 98.8574 753.125 99.2158C752.596 99.5742 752.331 100.052 752.331 100.649C752.331 101.127 752.494 101.511 752.818 101.801C753.142 102.092 753.62 102.322 754.251 102.493L757.298 103.286C758.424 103.576 759.269 104.012 759.832 104.592C760.412 105.155 760.703 105.914 760.703 106.87C760.703 108.167 760.225 109.191 759.269 109.942C758.313 110.693 756.999 111.069 755.327 111.069C751.811 111.069 749.976 109.558 749.823 106.537H752.075C752.178 107.442 752.502 108.108 753.048 108.534C753.611 108.961 754.388 109.174 755.378 109.174C756.334 109.174 757.093 109.004 757.656 108.662C758.236 108.321 758.527 107.834 758.527 107.203C758.527 106.623 758.373 106.188 758.066 105.897C757.759 105.607 757.238 105.368 756.504 105.181L753.688 104.438C752.476 104.114 751.58 103.679 751 103.133C750.437 102.569 750.155 101.776 750.155 100.752C750.155 99.5401 750.616 98.5758 751.538 97.859C752.476 97.1422 753.731 96.7838 755.301 96.7838C756.871 96.7838 758.066 97.1507 758.885 97.8846C759.721 98.6014 760.148 99.5913 760.165 100.854ZM765.724 101.443H775.401V103.286H765.724V101.443ZM791.969 97.1934L787.053 110.608H784.698L779.783 97.1934H782.061L785.927 108.048L789.767 97.1934H791.969ZM800.139 95.2734V92.7134H802.699V95.2734H800.139ZM802.469 97.1934V108.867H806.59V110.608H795.762V108.867H800.37V98.9342H795.762V97.1934H802.469ZM822.339 106.461C822.117 107.86 821.494 108.978 820.47 109.814C819.463 110.65 818.174 111.069 816.604 111.069C815.256 111.069 814.13 110.77 813.225 110.173C812.32 109.558 811.638 108.722 811.177 107.664C810.733 106.606 810.511 105.394 810.511 104.029C810.511 102.527 810.767 101.238 811.279 100.163C811.791 99.0878 812.508 98.2601 813.43 97.6798C814.351 97.0825 815.427 96.7838 816.655 96.7838C818.038 96.7838 819.164 97.1081 820.035 97.7566C820.922 98.4051 821.571 99.3097 821.98 100.47C822.407 101.631 822.62 102.988 822.62 104.541H812.739C812.773 105.855 813.114 106.947 813.763 107.817C814.411 108.671 815.384 109.097 816.681 109.097C818.439 109.097 819.608 108.218 820.188 106.461H822.339ZM816.63 98.755C815.435 98.755 814.522 99.1475 813.891 99.9326C813.259 100.718 812.892 101.673 812.79 102.8H820.316C820.316 102.049 820.163 101.375 819.855 100.777C819.565 100.163 819.147 99.6766 818.601 99.3182C818.055 98.9427 817.398 98.755 816.63 98.755ZM827.258 110.608L824.468 97.1934H826.618L828.538 108.432H828.564L830.432 97.1934H833.146L835.092 108.457H835.117L837.037 97.1934H839.162L836.32 110.608H833.76L831.789 99.0622H831.764L829.818 110.608H827.258Z" fill="#16478F"/>
</g>
</g>
<g id="subjects.active">
<path id="Rectangle 262_3" d="M22.376 99.8694C22.376 100.974 23.2714 101.869 24.376 101.869H221.533C222.638 101.869 223.533 100.974 223.533 99.8694V47.4061C223.533 46.3015 222.638 45.4061 221.533 45.4061H24.376C23.2714 45.4061 22.376 46.3015 22.376 47.4061V99.8694Z" fill="#2770F8" fill-opacity="0.2" stroke="#2770F8" stroke-opacity="0.7" stroke-width="1.5" stroke-dasharray="8 2"/>
<g id="Frame 113" filter="url(#filter5_dd_366_874)">
<path d="M101 22.8C101 20.149 103.149 18 105.8 18H340C342.651 18 344.8 20.149 344.8 22.8V60C344.8 62.651 342.651 64.8 340 64.8H105.8C103.149 64.8 101 62.651 101 60V22.8Z" fill="#D8EAFF" shape-rendering="crispEdges"/>
<path d="M105.8 18.7998H340C342.209 18.7998 344 20.5908 344 22.7998V60C344 62.2091 342.209 64 340 64H105.8C103.591 63.9999 101.8 62.2091 101.8 60V22.7998C101.8 20.5908 103.591 18.7999 105.8 18.7998Z" stroke="black" stroke-opacity="0.58" stroke-width="1.6" style="mix-blend-mode:overlay" shape-rendering="crispEdges"/>
<path id="subjects.active_2" d="M120.226 40.6464H117.999C117.982 39.9808 117.726 39.4518 117.231 39.0592C116.753 38.6667 116.113 38.4704 115.311 38.4704C114.44 38.4704 113.732 38.6496 113.186 39.008C112.657 39.3664 112.392 39.8443 112.392 40.4416C112.392 40.9195 112.555 41.3035 112.879 41.5936C113.203 41.8838 113.681 42.1142 114.312 42.2848L117.359 43.0784C118.485 43.3686 119.33 43.8038 119.893 44.384C120.473 44.9472 120.764 45.7067 120.764 46.6624C120.764 47.9595 120.286 48.9835 119.33 49.7344C118.374 50.4854 117.06 50.8608 115.388 50.8608C111.872 50.8608 110.037 49.3504 109.884 46.3296H112.136C112.239 47.2342 112.563 47.8998 113.109 48.3264C113.672 48.7531 114.449 48.9664 115.439 48.9664C116.395 48.9664 117.154 48.7958 117.717 48.4544C118.297 48.1131 118.588 47.6267 118.588 46.9952C118.588 46.415 118.434 45.9798 118.127 45.6896C117.82 45.3995 117.299 45.1606 116.565 44.9728L113.749 44.2304C112.537 43.9062 111.641 43.471 111.061 42.9248C110.498 42.3616 110.216 41.568 110.216 40.544C110.216 39.3323 110.677 38.368 111.599 37.6512C112.537 36.9344 113.792 36.576 115.362 36.576C116.932 36.576 118.127 36.943 118.946 37.6768C119.782 38.3936 120.209 39.3835 120.226 40.6464ZM135.974 36.9856V50.4H134.054V48.4032C133.44 49.2907 132.783 49.9222 132.083 50.2976C131.4 50.6731 130.564 50.8608 129.574 50.8608C128.397 50.8608 127.432 50.5963 126.681 50.0672C125.76 49.4016 125.299 48.4459 125.299 47.2V36.9856H127.424V46.3552C127.424 47.2598 127.722 47.9424 128.32 48.4032C128.815 48.7958 129.438 48.992 130.189 48.992C131.196 48.992 132.04 48.6251 132.723 47.8912C133.474 47.0891 133.849 45.9371 133.849 44.4352V36.9856H135.974ZM140.254 50.4V31.7376H142.378V38.7776C143.351 37.3099 144.734 36.576 146.526 36.576C147.84 36.576 148.915 36.8918 149.751 37.5232C150.605 38.1376 151.236 38.9739 151.646 40.032C152.055 41.0902 152.26 42.2678 152.26 43.5648C152.26 44.9302 152.038 46.1675 151.594 47.2768C151.151 48.3862 150.494 49.2651 149.623 49.9136C148.77 50.5451 147.703 50.8608 146.423 50.8608C144.597 50.8608 143.181 50.0928 142.174 48.5568V50.4H140.254ZM146.142 38.5728C145.237 38.5728 144.503 38.8288 143.94 39.3408C143.394 39.8528 142.993 40.5099 142.737 41.312C142.498 42.0971 142.378 42.9248 142.378 43.7952C142.378 44.6315 142.498 45.4422 142.737 46.2272C142.993 46.9952 143.394 47.6267 143.94 48.1216C144.503 48.6166 145.237 48.864 146.142 48.864C147.046 48.864 147.78 48.6251 148.343 48.1472C148.923 47.6694 149.35 47.0464 149.623 46.2784C149.913 45.4934 150.058 44.6656 150.058 43.7952C150.058 42.8566 149.913 41.9947 149.623 41.2096C149.35 40.4246 148.923 39.7931 148.343 39.3152C147.763 38.8203 147.029 38.5728 146.142 38.5728ZM161.634 35.0656V32.5056H164.194V35.0656H161.634ZM161.839 51.296V38.7264H156.463V36.9856H163.963V51.808C163.963 53.1222 163.554 54.1462 162.735 54.88C161.915 55.6139 160.721 55.9808 159.151 55.9808C158.57 55.9808 158.007 55.9552 157.461 55.904C156.915 55.8699 156.411 55.7931 155.951 55.6736V53.8048C156.48 53.9072 157.009 53.9755 157.538 54.0096C158.084 54.0608 158.587 54.0864 159.048 54.0864C160.055 54.0864 160.772 53.8646 161.199 53.4208C161.625 52.9942 161.839 52.2859 161.839 51.296ZM182.4 46.2528C182.178 47.6523 181.555 48.7702 180.531 49.6064C179.524 50.4427 178.235 50.8608 176.665 50.8608C175.317 50.8608 174.191 50.5622 173.286 49.9648C172.381 49.3504 171.699 48.5142 171.238 47.456C170.794 46.3979 170.572 45.1862 170.572 43.8208C170.572 42.319 170.828 41.0304 171.34 39.9552C171.852 38.88 172.569 38.0523 173.491 37.472C174.412 36.8747 175.488 36.576 176.716 36.576C178.099 36.576 179.225 36.9003 180.096 37.5488C180.983 38.1974 181.632 39.1019 182.041 40.2624C182.468 41.423 182.681 42.7798 182.681 44.3328H172.8C172.834 45.647 173.175 46.7392 173.824 47.6096C174.472 48.463 175.445 48.8896 176.742 48.8896C178.5 48.8896 179.669 48.0107 180.249 46.2528H182.4ZM176.691 38.5472C175.496 38.5472 174.583 38.9398 173.952 39.7248C173.32 40.5099 172.953 41.4656 172.851 42.592H180.377C180.377 41.8411 180.224 41.167 179.916 40.5696C179.626 39.9552 179.208 39.4688 178.662 39.1104C178.116 38.735 177.459 38.5472 176.691 38.5472ZM197.61 41.4144H195.46C195.34 40.527 194.999 39.8272 194.436 39.3152C193.873 38.8032 193.122 38.5472 192.183 38.5472C191.261 38.5472 190.519 38.8032 189.956 39.3152C189.393 39.8272 188.983 40.4928 188.727 41.312C188.471 42.1142 188.343 42.959 188.343 43.8464C188.343 44.7339 188.48 45.5616 188.753 46.3296C189.026 47.0976 189.452 47.7206 190.033 48.1984C190.613 48.6592 191.347 48.8896 192.234 48.8896C194.129 48.8896 195.255 47.8315 195.613 45.7152H197.764C197.627 47.3195 197.073 48.5824 196.1 49.504C195.144 50.4086 193.838 50.8608 192.183 50.8608C190.886 50.8608 189.785 50.5536 188.881 49.9392C187.976 49.3078 187.285 48.463 186.807 47.4048C186.346 46.3467 186.116 45.1606 186.116 43.8464C186.116 42.4982 186.346 41.2779 186.807 40.1856C187.268 39.0934 187.95 38.223 188.855 37.5744C189.76 36.9088 190.877 36.576 192.209 36.576C193.847 36.576 195.144 37.0283 196.1 37.9328C197.073 38.8374 197.576 39.9979 197.61 41.4144ZM207.291 36.9856H212.565V38.7264H207.291V46.2016C207.291 47.1915 207.547 47.8827 208.059 48.2752C208.571 48.6507 209.314 48.8384 210.286 48.8384C210.73 48.8384 211.14 48.8214 211.515 48.7872C211.891 48.736 212.241 48.6678 212.565 48.5824V50.4512C212.138 50.5707 211.72 50.6475 211.31 50.6816C210.901 50.7328 210.517 50.7584 210.158 50.7584C208.537 50.7584 207.3 50.4256 206.446 49.76C205.593 49.0944 205.166 48.0363 205.166 46.5856V38.7264H201.301V36.9856H205.166V33.2992H207.291V36.9856ZM227.417 40.6464H225.19C225.173 39.9808 224.917 39.4518 224.422 39.0592C223.944 38.6667 223.304 38.4704 222.502 38.4704C221.631 38.4704 220.923 38.6496 220.377 39.008C219.848 39.3664 219.583 39.8443 219.583 40.4416C219.583 40.9195 219.746 41.3035 220.07 41.5936C220.394 41.8838 220.872 42.1142 221.503 42.2848L224.55 43.0784C225.676 43.3686 226.521 43.8038 227.084 44.384C227.664 44.9472 227.955 45.7067 227.955 46.6624C227.955 47.9595 227.477 48.9835 226.521 49.7344C225.565 50.4854 224.251 50.8608 222.579 50.8608C219.063 50.8608 217.228 49.3504 217.075 46.3296H219.327C219.43 47.2342 219.754 47.8998 220.3 48.3264C220.863 48.7531 221.64 48.9664 222.63 48.9664C223.586 48.9664 224.345 48.7958 224.908 48.4544C225.488 48.1131 225.779 47.6267 225.779 46.9952C225.779 46.415 225.625 45.9798 225.318 45.6896C225.011 45.3995 224.49 45.1606 223.756 44.9728L220.94 44.2304C219.728 43.9062 218.832 43.471 218.252 42.9248C217.689 42.3616 217.407 41.568 217.407 40.544C217.407 39.3323 217.868 38.368 218.79 37.6512C219.728 36.9344 220.983 36.576 222.553 36.576C224.123 36.576 225.318 36.943 226.137 37.6768C226.973 38.3936 227.4 39.3835 227.417 40.6464ZM236.074 46.9184H239.556V50.4H236.074V46.9184ZM259.784 48.992V50.6048C259.255 50.7584 258.828 50.8352 258.504 50.8352C257.07 50.8352 256.277 50.1611 256.123 48.8128C255.372 49.5467 254.638 50.0758 253.921 50.4C253.205 50.7072 252.42 50.8608 251.566 50.8608C250.269 50.8608 249.211 50.5195 248.392 49.8368C247.59 49.1371 247.189 48.1643 247.189 46.9184C247.189 45.9968 247.385 45.263 247.777 44.7168C248.17 44.1536 248.648 43.7355 249.211 43.4624C249.791 43.1723 250.337 42.9846 250.849 42.8992C251.088 42.8651 251.455 42.8139 251.95 42.7456C252.445 42.6603 253.068 42.5664 253.819 42.464C254.672 42.3446 255.261 42.1824 255.585 41.9776C255.927 41.7728 256.097 41.4571 256.097 41.0304V40.5696C256.097 39.2384 255.073 38.5728 253.025 38.5728C252.036 38.5728 251.285 38.7691 250.773 39.1616C250.278 39.5371 249.988 40.1344 249.902 40.9536H247.752C247.786 39.4006 248.289 38.2912 249.262 37.6256C250.252 36.943 251.541 36.6016 253.128 36.6016C254.783 36.6016 256.038 36.9174 256.891 37.5488C257.744 38.1632 258.171 39.0678 258.171 40.2624V47.9936C258.171 48.6934 258.555 49.0432 259.323 49.0432C259.46 49.0432 259.613 49.0262 259.784 48.992ZM256.097 45.7408V43.616C255.654 43.8208 255.099 43.983 254.433 44.1024C253.785 44.2219 253.179 44.3158 252.616 44.384C251.626 44.5035 250.832 44.7339 250.235 45.0752C249.655 45.4166 249.365 46.0139 249.365 46.8672C249.365 47.5328 249.604 48.0534 250.081 48.4288C250.576 48.8043 251.25 48.992 252.104 48.992C252.735 48.992 253.35 48.8555 253.947 48.5824C254.561 48.2923 255.073 47.8998 255.483 47.4048C255.893 46.9099 256.097 46.3552 256.097 45.7408ZM274.175 41.4144H272.025C271.905 40.527 271.564 39.8272 271.001 39.3152C270.438 38.8032 269.687 38.5472 268.748 38.5472C267.826 38.5472 267.084 38.8032 266.521 39.3152C265.958 39.8272 265.548 40.4928 265.292 41.312C265.036 42.1142 264.908 42.959 264.908 43.8464C264.908 44.7339 265.045 45.5616 265.318 46.3296C265.591 47.0976 266.017 47.7206 266.598 48.1984C267.178 48.6592 267.912 48.8896 268.799 48.8896C270.694 48.8896 271.82 47.8315 272.178 45.7152H274.329C274.192 47.3195 273.638 48.5824 272.665 49.504C271.709 50.4086 270.403 50.8608 268.748 50.8608C267.451 50.8608 266.35 50.5536 265.446 49.9392C264.541 49.3078 263.85 48.463 263.372 47.4048C262.911 46.3467 262.681 45.1606 262.681 43.8464C262.681 42.4982 262.911 41.2779 263.372 40.1856C263.833 39.0934 264.515 38.223 265.42 37.5744C266.325 36.9088 267.442 36.576 268.774 36.576C270.412 36.576 271.709 37.0283 272.665 37.9328C273.638 38.8374 274.141 39.9979 274.175 41.4144ZM283.856 36.9856H289.13V38.7264H283.856V46.2016C283.856 47.1915 284.112 47.8827 284.624 48.2752C285.136 48.6507 285.879 48.8384 286.851 48.8384C287.295 48.8384 287.705 48.8214 288.08 48.7872C288.456 48.736 288.806 48.6678 289.13 48.5824V50.4512C288.703 50.5707 288.285 50.6475 287.875 50.6816C287.466 50.7328 287.082 50.7584 286.723 50.7584C285.102 50.7584 283.865 50.4256 283.011 49.76C282.158 49.0944 281.731 48.0363 281.731 46.5856V38.7264H277.866V36.9856H281.731V33.2992H283.856V36.9856ZM298.017 35.0656V32.5056H300.577V35.0656H298.017ZM300.347 36.9856V48.6592H304.468V50.4H293.64V48.6592H298.248V38.7264H293.64V36.9856H300.347ZM320.473 36.9856L315.557 50.4H313.202L308.287 36.9856H310.565L314.431 47.84L318.271 36.9856H320.473ZM335.53 46.2528C335.308 47.6523 334.685 48.7702 333.661 49.6064C332.654 50.4427 331.365 50.8608 329.795 50.8608C328.447 50.8608 327.321 50.5622 326.416 49.9648C325.511 49.3504 324.829 48.5142 324.368 47.456C323.924 46.3979 323.702 45.1862 323.702 43.8208C323.702 42.319 323.958 41.0304 324.47 39.9552C324.982 38.88 325.699 38.0523 326.621 37.472C327.542 36.8747 328.618 36.576 329.846 36.576C331.229 36.576 332.355 36.9003 333.226 37.5488C334.113 38.1974 334.762 39.1019 335.171 40.2624C335.598 41.423 335.811 42.7798 335.811 44.3328H325.93C325.964 45.647 326.305 46.7392 326.954 47.6096C327.602 48.463 328.575 48.8896 329.872 48.8896C331.63 48.8896 332.799 48.0107 333.379 46.2528H335.53ZM329.821 38.5472C328.626 38.5472 327.713 38.9398 327.082 39.7248C326.45 40.5099 326.083 41.4656 325.981 42.592H333.507C333.507 41.8411 333.354 41.167 333.046 40.5696C332.756 39.9552 332.338 39.4688 331.792 39.1104C331.246 38.735 330.589 38.5472 329.821 38.5472Z" fill="#16478F"/>
</g>
</g>
<g id="tabs-order">
<path id="Vector 84" d="M674.904 84.9817C675.49 84.3959 675.49 83.4461 674.904 82.8604L665.358 73.3144C664.772 72.7286 663.823 72.7286 663.237 73.3144C662.651 73.9002 662.651 74.85 663.237 75.4357L671.722 83.921L663.237 92.4063C662.651 92.9921 662.651 93.9418 663.237 94.5276C663.823 95.1134 664.772 95.1134 665.358 94.5276L674.904 84.9817ZM20.6211 83.921L20.6211 85.421L25.6614 85.421L25.6614 83.921L25.6614 82.421L20.6211 82.421L20.6211 83.921ZM27.6775 83.921L27.6775 85.421L37.7581 85.421L37.7581 83.921L37.7581 82.421L27.6775 82.421L27.6775 83.921ZM39.7742 83.921L39.7742 85.421L49.8548 85.421L49.8548 83.921L49.8548 82.421L39.7742 82.421L39.7742 83.921ZM51.8709 83.921L51.8709 85.421L61.9515 85.421L61.9515 83.921L61.9515 82.421L51.8709 82.421L51.8709 83.921ZM63.9676 83.921L63.9676 85.421L74.0482 85.421V83.921V82.421L63.9676 82.421L63.9676 83.921ZM76.0643 83.921V85.421L86.1449 85.421V83.921V82.421L76.0643 82.421V83.921ZM88.1611 83.921V85.421L98.2417 85.421V83.921V82.421L88.1611 82.421V83.921ZM100.258 83.921V85.421L110.338 85.421V83.921V82.421L100.258 82.421V83.921ZM112.354 83.921V85.421L122.435 85.421V83.921V82.421L112.354 82.421V83.921ZM124.451 83.921V85.421L134.532 85.421V83.921V82.421L124.451 82.421V83.921ZM136.548 83.921V85.421L146.628 85.421V83.921V82.421L136.548 82.421V83.921ZM148.645 83.921V85.421L158.725 85.421V83.921V82.421L148.645 82.421V83.921ZM160.741 83.921V85.421L170.822 85.421V83.921V82.421L160.741 82.421V83.921ZM172.838 83.921V85.421L182.919 85.421V83.921V82.421L172.838 82.421V83.921ZM184.935 83.921V85.421L195.015 85.421V83.921V82.421L184.935 82.421V83.921ZM197.031 83.921V85.421L207.112 85.421V83.921V82.421L197.031 82.421V83.921ZM209.128 83.921V85.421L219.209 85.421V83.921V82.421L209.128 82.421V83.921ZM221.225 83.921V85.421L231.305 85.421V83.921V82.421L221.225 82.421V83.921ZM233.322 83.921V85.421L243.402 85.421V83.921V82.421L233.322 82.421V83.921ZM245.418 83.921V85.421L255.499 85.421V83.921V82.421L245.418 82.421V83.921ZM257.515 83.921V85.421L267.596 85.421V83.921V82.421L257.515 82.421V83.921ZM269.612 83.921V85.421L279.692 85.421V83.921V82.421L269.612 82.421V83.921ZM281.708 83.921V85.421L291.789 85.421V83.921V82.421L281.708 82.421V83.921ZM293.805 83.921V85.421L303.886 85.421V83.921V82.421L293.805 82.421V83.921ZM305.902 83.921V85.421L315.982 85.421V83.921V82.421L305.902 82.421V83.921ZM317.999 83.921V85.421L328.079 85.421V83.921V82.421L317.999 82.421V83.921ZM330.095 83.921V85.421L340.176 85.421V83.921V82.421L330.095 82.421V83.921ZM342.192 83.921V85.421L352.273 85.421V83.921V82.421L342.192 82.421V83.921ZM354.289 83.921V85.421L364.369 85.421V83.921V82.421L354.289 82.421V83.921ZM366.385 83.921V85.421L376.466 85.421V83.921V82.421L366.385 82.421V83.921ZM378.482 83.921V85.421L388.563 85.421V83.921V82.421L378.482 82.421V83.921ZM390.579 83.921V85.421L400.659 85.421V83.921V82.421L390.579 82.421V83.921ZM402.676 83.921V85.421L412.756 85.421V83.921V82.421L402.676 82.421V83.921ZM414.772 83.921V85.421L424.853 85.421V83.921V82.421L414.772 82.421V83.921ZM426.869 83.921V85.421L436.95 85.421V83.921V82.421L426.869 82.421V83.921ZM438.966 83.921V85.421L449.046 85.421V83.921V82.421L438.966 82.421V83.921ZM451.062 83.921V85.421L461.143 85.421V83.921V82.421L451.062 82.421V83.921ZM463.159 83.921V85.421L473.24 85.421V83.921V82.421L463.159 82.421V83.921ZM475.256 83.921V85.421L485.336 85.421V83.921V82.421L475.256 82.421V83.921ZM487.352 83.921V85.421L497.433 85.421V83.921V82.421L487.352 82.421V83.921ZM499.449 83.921V85.421L509.53 85.421V83.921V82.421L499.449 82.421V83.921ZM511.546 83.921V85.421L521.626 85.421V83.921V82.421L511.546 82.421V83.921ZM523.643 83.921V85.421L533.723 85.421V83.921V82.421L523.643 82.421V83.921ZM535.739 83.921V85.421L545.82 85.421V83.921V82.421L535.739 82.421V83.921ZM547.836 83.921V85.421L557.917 85.421V83.921V82.421L547.836 82.421V83.921ZM559.933 83.921V85.421L570.013 85.421V83.921V82.421L559.933 82.421V83.921ZM572.029 83.921V85.421L582.11 85.421V83.921V82.421L572.029 82.421V83.921ZM584.126 83.921V85.421L594.207 85.421V83.921V82.421L584.126 82.421V83.921ZM596.223 83.921V85.421L606.303 85.421V83.921V82.421L596.223 82.421V83.921ZM608.319 83.921V85.421L618.4 85.421V83.921V82.421L608.319 82.421V83.921ZM620.416 83.921V85.421L630.497 85.421V83.921V82.421L620.416 82.421V83.921ZM632.513 83.921V85.421L642.593 85.421V83.921V82.421L632.513 82.421V83.921ZM644.609 83.921V85.421L654.69 85.421V83.921V82.421L644.609 82.421V83.921ZM656.706 83.921V85.421L666.787 85.421V83.921V82.421L656.706 82.421V83.921ZM668.803 83.921V85.421L673.843 85.421V83.921V82.421L668.803 82.421V83.921Z" fill="#165DC7" fill-opacity="0.7"/>
<g id="Frame 118" filter="url(#filter6_dd_366_874)">
<path d="M456.123 135.113C456.123 132.462 458.272 130.313 460.923 130.313H618.123C620.774 130.313 622.923 132.462 622.923 135.113V172.313C622.923 174.964 620.774 177.113 618.123 177.113H460.923C458.272 177.113 456.123 174.964 456.123 172.313V135.113Z" fill="#D8EAFF" shape-rendering="crispEdges"/>
<path d="M460.923 131.113H618.123C620.332 131.113 622.123 132.904 622.123 135.113V172.313C622.123 174.522 620.332 176.313 618.123 176.313H460.923C458.714 176.313 456.923 174.522 456.923 172.313V135.113C456.923 132.904 458.714 131.113 460.923 131.113Z" stroke="black" stroke-opacity="0.58" stroke-width="1.6" style="mix-blend-mode:overlay" shape-rendering="crispEdges"/>
<path id="tabs-order_2" d="M470.536 149.299H475.81V151.039H470.536V158.515C470.536 159.504 470.792 160.196 471.304 160.588C471.816 160.964 472.559 161.151 473.531 161.151C473.975 161.151 474.385 161.134 474.76 161.1C475.136 161.049 475.486 160.981 475.81 160.895V162.764C475.383 162.884 474.965 162.96 474.555 162.995C474.146 163.046 473.762 163.071 473.403 163.071C471.782 163.071 470.545 162.739 469.691 162.073C468.838 161.407 468.411 160.349 468.411 158.899V151.039H464.546V149.299H468.411V145.612H470.536V149.299ZM492.403 161.305V162.918C491.874 163.071 491.447 163.148 491.123 163.148C489.689 163.148 488.896 162.474 488.742 161.126C487.991 161.86 487.257 162.389 486.54 162.713C485.824 163.02 485.039 163.174 484.185 163.174C482.888 163.174 481.83 162.832 481.011 162.15C480.209 161.45 479.808 160.477 479.808 159.231C479.808 158.31 480.004 157.576 480.396 157.03C480.789 156.467 481.267 156.048 481.83 155.775C482.41 155.485 482.956 155.297 483.468 155.212C483.707 155.178 484.074 155.127 484.569 155.059C485.064 154.973 485.687 154.879 486.438 154.777C487.291 154.657 487.88 154.495 488.204 154.291C488.546 154.086 488.716 153.77 488.716 153.343V152.883C488.716 151.551 487.692 150.886 485.644 150.886C484.655 150.886 483.904 151.082 483.392 151.475C482.897 151.85 482.607 152.447 482.521 153.267H480.371C480.405 151.713 480.908 150.604 481.881 149.939C482.871 149.256 484.16 148.915 485.747 148.915C487.402 148.915 488.657 149.23 489.51 149.862C490.363 150.476 490.79 151.381 490.79 152.575V160.307C490.79 161.006 491.174 161.356 491.942 161.356C492.079 161.356 492.232 161.339 492.403 161.305ZM488.716 158.054V155.929C488.273 156.134 487.718 156.296 487.052 156.415C486.404 156.535 485.798 156.629 485.235 156.697C484.245 156.816 483.451 157.047 482.854 157.388C482.274 157.729 481.984 158.327 481.984 159.18C481.984 159.846 482.223 160.366 482.7 160.742C483.195 161.117 483.87 161.305 484.723 161.305C485.354 161.305 485.969 161.168 486.566 160.895C487.18 160.605 487.692 160.213 488.102 159.718C488.512 159.223 488.716 158.668 488.716 158.054ZM495.377 162.713V144.051H497.501V151.091C498.474 149.623 499.857 148.889 501.649 148.889C502.963 148.889 504.038 149.205 504.874 149.836C505.728 150.451 506.359 151.287 506.769 152.345C507.178 153.403 507.383 154.581 507.383 155.878C507.383 157.243 507.161 158.48 506.717 159.59C506.274 160.699 505.617 161.578 504.746 162.227C503.893 162.858 502.826 163.174 501.546 163.174C499.72 163.174 498.304 162.406 497.297 160.87V162.713H495.377ZM501.265 150.886C500.36 150.886 499.626 151.142 499.063 151.654C498.517 152.166 498.116 152.823 497.86 153.625C497.621 154.41 497.501 155.238 497.501 156.108C497.501 156.944 497.621 157.755 497.86 158.54C498.116 159.308 498.517 159.94 499.063 160.435C499.626 160.929 500.36 161.177 501.265 161.177C502.169 161.177 502.903 160.938 503.466 160.46C504.047 159.982 504.473 159.359 504.746 158.591C505.036 157.806 505.181 156.979 505.181 156.108C505.181 155.169 505.036 154.308 504.746 153.523C504.473 152.737 504.047 152.106 503.466 151.628C502.886 151.133 502.152 150.886 501.265 150.886ZM521.288 152.959H519.061C519.044 152.294 518.788 151.765 518.293 151.372C517.815 150.98 517.175 150.783 516.373 150.783C515.502 150.783 514.794 150.963 514.248 151.321C513.719 151.679 513.454 152.157 513.454 152.755C513.454 153.232 513.617 153.616 513.941 153.907C514.265 154.197 514.743 154.427 515.374 154.598L518.421 155.391C519.547 155.681 520.392 156.117 520.955 156.697C521.536 157.26 521.826 158.02 521.826 158.975C521.826 160.272 521.348 161.296 520.392 162.047C519.436 162.798 518.122 163.174 516.45 163.174C512.934 163.174 511.099 161.663 510.946 158.643H513.198C513.301 159.547 513.625 160.213 514.171 160.639C514.734 161.066 515.511 161.279 516.501 161.279C517.457 161.279 518.216 161.109 518.779 160.767C519.36 160.426 519.65 159.94 519.65 159.308C519.65 158.728 519.496 158.293 519.189 158.003C518.882 157.712 518.361 157.473 517.627 157.286L514.811 156.543C513.6 156.219 512.704 155.784 512.123 155.238C511.56 154.675 511.278 153.881 511.278 152.857C511.278 151.645 511.739 150.681 512.661 149.964C513.6 149.247 514.854 148.889 516.424 148.889C517.994 148.889 519.189 149.256 520.008 149.99C520.844 150.707 521.271 151.696 521.288 152.959ZM526.847 153.548H536.524V155.391H526.847V153.548ZM546.999 148.889C548.381 148.889 549.516 149.205 550.404 149.836C551.308 150.451 551.974 151.295 552.4 152.371C552.844 153.446 553.066 154.666 553.066 156.031C553.066 157.38 552.844 158.6 552.4 159.692C551.974 160.767 551.308 161.621 550.404 162.252C549.516 162.867 548.381 163.174 546.999 163.174C545.634 163.174 544.499 162.867 543.594 162.252C542.69 161.621 542.015 160.767 541.572 159.692C541.145 158.6 540.932 157.38 540.932 156.031C540.932 154.666 541.145 153.446 541.572 152.371C542.015 151.295 542.69 150.451 543.594 149.836C544.499 149.205 545.634 148.889 546.999 148.889ZM546.999 150.86C546.094 150.86 545.36 151.099 544.797 151.577C544.234 152.055 543.816 152.686 543.543 153.471C543.287 154.256 543.159 155.11 543.159 156.031C543.159 156.936 543.287 157.789 543.543 158.591C543.816 159.376 544.234 160.008 544.797 160.486C545.36 160.964 546.094 161.203 546.999 161.203C547.903 161.203 548.637 160.964 549.2 160.486C549.764 160.008 550.173 159.376 550.429 158.591C550.702 157.789 550.839 156.936 550.839 156.031C550.839 155.11 550.702 154.256 550.429 153.471C550.173 152.686 549.764 152.055 549.2 151.577C548.637 151.099 547.903 150.86 546.999 150.86ZM557.576 162.713V149.299H559.547V152.191C559.991 151.236 560.631 150.451 561.467 149.836C562.303 149.222 563.268 148.915 564.36 148.915C565.896 148.915 567.065 149.307 567.867 150.092C568.686 150.877 569.156 151.935 569.275 153.267H567.15C566.997 152.464 566.681 151.85 566.203 151.423C565.742 150.997 565.06 150.783 564.155 150.783C563.268 150.783 562.491 151.022 561.825 151.5C561.16 151.961 560.639 152.601 560.264 153.42C559.905 154.222 559.726 155.152 559.726 156.211V162.713H557.576ZM581.183 144.051H583.308V162.713H581.414V160.819C580.338 162.389 578.913 163.174 577.138 163.174C575.824 163.174 574.732 162.858 573.862 162.227C572.991 161.578 572.343 160.699 571.916 159.59C571.506 158.48 571.302 157.243 571.302 155.878C571.302 154.581 571.515 153.412 571.942 152.371C572.368 151.312 573.008 150.468 573.862 149.836C574.732 149.205 575.799 148.889 577.062 148.889C578.888 148.889 580.262 149.58 581.183 150.963V144.051ZM577.42 150.886C576.584 150.886 575.876 151.116 575.295 151.577C574.715 152.021 574.271 152.635 573.964 153.42C573.674 154.188 573.529 155.059 573.529 156.031C573.529 156.936 573.665 157.781 573.938 158.566C574.212 159.351 574.63 159.982 575.193 160.46C575.773 160.938 576.524 161.177 577.446 161.177C578.35 161.177 579.076 160.929 579.622 160.435C580.168 159.923 580.56 159.283 580.799 158.515C581.055 157.729 581.183 156.927 581.183 156.108C581.183 155.204 581.055 154.359 580.799 153.574C580.543 152.772 580.142 152.123 579.596 151.628C579.05 151.133 578.325 150.886 577.42 150.886ZM598.775 158.566C598.553 159.965 597.93 161.083 596.906 161.919C595.899 162.756 594.61 163.174 593.04 163.174C591.692 163.174 590.566 162.875 589.661 162.278C588.757 161.663 588.074 160.827 587.613 159.769C587.169 158.711 586.947 157.499 586.947 156.134C586.947 154.632 587.203 153.343 587.715 152.268C588.227 151.193 588.944 150.365 589.866 149.785C590.787 149.188 591.863 148.889 593.091 148.889C594.474 148.889 595.6 149.213 596.471 149.862C597.358 150.51 598.007 151.415 598.416 152.575C598.843 153.736 599.056 155.093 599.056 156.646H589.175C589.209 157.96 589.55 159.052 590.199 159.923C590.847 160.776 591.82 161.203 593.117 161.203C594.875 161.203 596.044 160.324 596.624 158.566H598.775ZM593.066 150.86C591.871 150.86 590.958 151.253 590.327 152.038C589.695 152.823 589.328 153.779 589.226 154.905H596.752C596.752 154.154 596.599 153.48 596.291 152.883C596.001 152.268 595.583 151.782 595.037 151.423C594.491 151.048 593.834 150.86 593.066 150.86ZM603.515 162.713V149.299H605.486V152.191C605.93 151.236 606.57 150.451 607.406 149.836C608.242 149.222 609.207 148.915 610.299 148.915C611.835 148.915 613.004 149.307 613.806 150.092C614.625 150.877 615.095 151.935 615.214 153.267H613.089C612.936 152.464 612.62 151.85 612.142 151.423C611.681 150.997 610.999 150.783 610.094 150.783C609.207 150.783 608.43 151.022 607.764 151.5C607.099 151.961 606.578 152.601 606.203 153.42C605.844 154.222 605.665 155.152 605.665 156.211V162.713H603.515Z" fill="#16478F"/>
</g>
<path id="Arrow 71" opacity="0.5" d="M539.523 88.7982L539.523 127.405" stroke="#165DC7" stroke-width="3" stroke-dasharray="11.61 2.32"/>
</g>
</g>
<defs>
<filter id="filter0_dd_366_874" x="693.062" y="615.51" width="186.68" height="81.68" filterUnits="userSpaceOnUse" color-interpolation-filters="sRGB">
<feFlood flood-opacity="0" result="BackgroundImageFix"/>
<feColorMatrix in="SourceAlpha" type="matrix" values="0 0 0 0 0 0 0 0 0 0 0 0 0 0 0 0 0 0 127 0" result="hardAlpha"/>
<feOffset/>
<feGaussianBlur stdDeviation="8.72"/>
<feComposite in2="hardAlpha" operator="out"/>
<feColorMatrix type="matrix" values="0 0 0 0 0 0 0 0 0 0 0 0 0 0 0 0 0 0 0.08 0"/>
<feBlend mode="normal" in2="BackgroundImageFix" result="effect1_dropShadow_366_874"/>
<feColorMatrix in="SourceAlpha" type="matrix" values="0 0 0 0 0 0 0 0 0 0 0 0 0 0 0 0 0 0 127 0" result="hardAlpha"/>
<feOffset dy="3.2"/>
<feGaussianBlur stdDeviation="5.68"/>
<feComposite in2="hardAlpha" operator="out"/>
<feColorMatrix type="matrix" values="0 0 0 0 0 0 0 0 0 0 0 0 0 0 0 0 0 0 0.07 0"/>
<feBlend mode="normal" in2="effect1_dropShadow_366_874" result="effect2_dropShadow_366_874"/>
<feBlend mode="normal" in="SourceGraphic" in2="effect2_dropShadow_366_874" result="shape"/>
</filter>
<filter id="filter1_dd_366_874" x="26.56" y="615.51" width="354.68" height="81.68" filterUnits="userSpaceOnUse" color-interpolation-filters="sRGB">
<feFlood flood-opacity="0" result="BackgroundImageFix"/>
<feColorMatrix in="SourceAlpha" type="matrix" values="0 0 0 0 0 0 0 0 0 0 0 0 0 0 0 0 0 0 127 0" result="hardAlpha"/>
<feOffset/>
<feGaussianBlur stdDeviation="8.72"/>
<feComposite in2="hardAlpha" operator="out"/>
<feColorMatrix type="matrix" values="0 0 0 0 0 0 0 0 0 0 0 0 0 0 0 0 0 0 0.08 0"/>
<feBlend mode="normal" in2="BackgroundImageFix" result="effect1_dropShadow_366_874"/>
<feColorMatrix in="SourceAlpha" type="matrix" values="0 0 0 0 0 0 0 0 0 0 0 0 0 0 0 0 0 0 127 0" result="hardAlpha"/>
<feOffset dy="3.2"/>
<feGaussianBlur stdDeviation="5.68"/>
<feComposite in2="hardAlpha" operator="out"/>
<feColorMatrix type="matrix" values="0 0 0 0 0 0 0 0 0 0 0 0 0 0 0 0 0 0 0.07 0"/>
<feBlend mode="normal" in2="effect1_dropShadow_366_874" result="effect2_dropShadow_366_874"/>
<feBlend mode="normal" in="SourceGraphic" in2="effect2_dropShadow_366_874" result="shape"/>
</filter>
<filter id="filter2_dd_366_874" x="393.16" y="615.51" width="247.68" height="81.68" filterUnits="userSpaceOnUse" color-interpolation-filters="sRGB">
<feFlood flood-opacity="0" result="BackgroundImageFix"/>
<feColorMatrix in="SourceAlpha" type="matrix" values="0 0 0 0 0 0 0 0 0 0 0 0 0 0 0 0 0 0 127 0" result="hardAlpha"/>
<feOffset/>
<feGaussianBlur stdDeviation="8.72"/>
<feComposite in2="hardAlpha" operator="out"/>
<feColorMatrix type="matrix" values="0 0 0 0 0 0 0 0 0 0 0 0 0 0 0 0 0 0 0.08 0"/>
<feBlend mode="normal" in2="BackgroundImageFix" result="effect1_dropShadow_366_874"/>
<feColorMatrix in="SourceAlpha" type="matrix" values="0 0 0 0 0 0 0 0 0 0 0 0 0 0 0 0 0 0 127 0" result="hardAlpha"/>
<feOffset dy="3.2"/>
<feGaussianBlur stdDeviation="5.68"/>
<feComposite in2="hardAlpha" operator="out"/>
<feColorMatrix type="matrix" values="0 0 0 0 0 0 0 0 0 0 0 0 0 0 0 0 0 0 0.07 0"/>
<feBlend mode="normal" in2="effect1_dropShadow_366_874" result="effect2_dropShadow_366_874"/>
<feBlend mode="normal" in="SourceGraphic" in2="effect2_dropShadow_366_874" result="shape"/>
</filter>
<filter id="filter3_dd_366_874" x="515.683" y="0.559999" width="171.68" height="81.68" filterUnits="userSpaceOnUse" color-interpolation-filters="sRGB">
<feFlood flood-opacity="0" result="BackgroundImageFix"/>
<feColorMatrix in="SourceAlpha" type="matrix" values="0 0 0 0 0 0 0 0 0 0 0 0 0 0 0 0 0 0 127 0" result="hardAlpha"/>
<feOffset/>
<feGaussianBlur stdDeviation="8.72"/>
<feComposite in2="hardAlpha" operator="out"/>
<feColorMatrix type="matrix" values="0 0 0 0 0 0 0 0 0 0 0 0 0 0 0 0 0 0 0.08 0"/>
<feBlend mode="normal" in2="BackgroundImageFix" result="effect1_dropShadow_366_874"/>
<feColorMatrix in="SourceAlpha" type="matrix" values="0 0 0 0 0 0 0 0 0 0 0 0 0 0 0 0 0 0 127 0" result="hardAlpha"/>
<feOffset dy="3.2"/>
<feGaussianBlur stdDeviation="5.68"/>
<feComposite in2="hardAlpha" operator="out"/>
<feColorMatrix type="matrix" values="0 0 0 0 0 0 0 0 0 0 0 0 0 0 0 0 0 0 0.07 0"/>
<feBlend mode="normal" in2="effect1_dropShadow_366_874" result="effect2_dropShadow_366_874"/>
<feBlend mode="normal" in="SourceGraphic" in2="effect2_dropShadow_366_874" result="shape"/>
</filter>
<filter id="filter4_dd_366_874" x="677.56" y="60.7678" width="186.68" height="81.68" filterUnits="userSpaceOnUse" color-interpolation-filters="sRGB">
<feFlood flood-opacity="0" result="BackgroundImageFix"/>
<feColorMatrix in="SourceAlpha" type="matrix" values="0 0 0 0 0 0 0 0 0 0 0 0 0 0 0 0 0 0 127 0" result="hardAlpha"/>
<feOffset/>
<feGaussianBlur stdDeviation="8.72"/>
<feComposite in2="hardAlpha" operator="out"/>
<feColorMatrix type="matrix" values="0 0 0 0 0 0 0 0 0 0 0 0 0 0 0 0 0 0 0.08 0"/>
<feBlend mode="normal" in2="BackgroundImageFix" result="effect1_dropShadow_366_874"/>
<feColorMatrix in="SourceAlpha" type="matrix" values="0 0 0 0 0 0 0 0 0 0 0 0 0 0 0 0 0 0 127 0" result="hardAlpha"/>
<feOffset dy="3.2"/>
<feGaussianBlur stdDeviation="5.68"/>
<feComposite in2="hardAlpha" operator="out"/>
<feColorMatrix type="matrix" values="0 0 0 0 0 0 0 0 0 0 0 0 0 0 0 0 0 0 0.07 0"/>
<feBlend mode="normal" in2="effect1_dropShadow_366_874" result="effect2_dropShadow_366_874"/>
<feBlend mode="normal" in="SourceGraphic" in2="effect2_dropShadow_366_874" result="shape"/>
</filter>
<filter id="filter5_dd_366_874" x="83.56" y="0.559999" width="278.68" height="81.68" filterUnits="userSpaceOnUse" color-interpolation-filters="sRGB">
<feFlood flood-opacity="0" result="BackgroundImageFix"/>
<feColorMatrix in="SourceAlpha" type="matrix" values="0 0 0 0 0 0 0 0 0 0 0 0 0 0 0 0 0 0 127 0" result="hardAlpha"/>
<feOffset/>
<feGaussianBlur stdDeviation="8.72"/>
<feComposite in2="hardAlpha" operator="out"/>
<feColorMatrix type="matrix" values="0 0 0 0 0 0 0 0 0 0 0 0 0 0 0 0 0 0 0.08 0"/>
<feBlend mode="normal" in2="BackgroundImageFix" result="effect1_dropShadow_366_874"/>
<feColorMatrix in="SourceAlpha" type="matrix" values="0 0 0 0 0 0 0 0 0 0 0 0 0 0 0 0 0 0 127 0" result="hardAlpha"/>
<feOffset dy="3.2"/>
<feGaussianBlur stdDeviation="5.68"/>
<feComposite in2="hardAlpha" operator="out"/>
<feColorMatrix type="matrix" values="0 0 0 0 0 0 0 0 0 0 0 0 0 0 0 0 0 0 0.07 0"/>
<feBlend mode="normal" in2="effect1_dropShadow_366_874" result="effect2_dropShadow_366_874"/>
<feBlend mode="normal" in="SourceGraphic" in2="effect2_dropShadow_366_874" result="shape"/>
</filter>
<filter id="filter6_dd_366_874" x="438.683" y="112.873" width="201.68" height="81.68" filterUnits="userSpaceOnUse" color-interpolation-filters="sRGB">
<feFlood flood-opacity="0" result="BackgroundImageFix"/>
<feColorMatrix in="SourceAlpha" type="matrix" values="0 0 0 0 0 0 0 0 0 0 0 0 0 0 0 0 0 0 127 0" result="hardAlpha"/>
<feOffset/>
<feGaussianBlur stdDeviation="8.72"/>
<feComposite in2="hardAlpha" operator="out"/>
<feColorMatrix type="matrix" values="0 0 0 0 0 0 0 0 0 0 0 0 0 0 0 0 0 0 0.08 0"/>
<feBlend mode="normal" in2="BackgroundImageFix" result="effect1_dropShadow_366_874"/>
<feColorMatrix in="SourceAlpha" type="matrix" values="0 0 0 0 0 0 0 0 0 0 0 0 0 0 0 0 0 0 127 0" result="hardAlpha"/>
<feOffset dy="3.2"/>
<feGaussianBlur stdDeviation="5.68"/>
<feComposite in2="hardAlpha" operator="out"/>
<feColorMatrix type="matrix" values="0 0 0 0 0 0 0 0 0 0 0 0 0 0 0 0 0 0 0.07 0"/>
<feBlend mode="normal" in2="effect1_dropShadow_366_874" result="effect2_dropShadow_366_874"/>
<feBlend mode="normal" in="SourceGraphic" in2="effect2_dropShadow_366_874" result="shape"/>
</filter>
<linearGradient id="paint0_linear_366_874" x1="445.417" y1="658.821" x2="445.417" y2="168.78" gradientUnits="userSpaceOnUse">
<stop stop-color="#2770F8"/>
<stop offset="1" stop-color="#2770F8" stop-opacity="0"/>
</linearGradient>
<linearGradient id="paint1_linear_366_874" x1="445.417" y1="658.821" x2="445.417" y2="168.78" gradientUnits="userSpaceOnUse">
<stop stop-color="#165DC7"/>
<stop offset="1" stop-color="#165DC7" stop-opacity="0"/>
</linearGradient>
<linearGradient id="paint2_linear_366_874" x1="445.417" y1="658.821" x2="445.417" y2="168.78" gradientUnits="userSpaceOnUse">
<stop stop-color="#2770F8"/>
<stop offset="1" stop-color="#2770F8" stop-opacity="0"/>
</linearGradient>
<linearGradient id="paint3_linear_366_874" x1="445.417" y1="658.821" x2="445.417" y2="168.78" gradientUnits="userSpaceOnUse">
<stop stop-color="#165DC7"/>
<stop offset="1" stop-color="#165DC7" stop-opacity="0"/>
</linearGradient>
<linearGradient id="paint4_linear_366_874" x1="445.417" y1="658.821" x2="445.417" y2="168.78" gradientUnits="userSpaceOnUse">
<stop stop-color="#2770F8"/>
<stop offset="1" stop-color="#2770F8" stop-opacity="0"/>
</linearGradient>
<linearGradient id="paint5_linear_366_874" x1="445.417" y1="658.821" x2="445.417" y2="168.78" gradientUnits="userSpaceOnUse">
<stop stop-color="#165DC7"/>
<stop offset="1" stop-color="#165DC7" stop-opacity="0"/>
</linearGradient>
<linearGradient id="paint6_linear_366_874" x1="438.368" y1="110.608" x2="438.368" y2="45.1445" gradientUnits="userSpaceOnUse">
<stop stop-color="#2770F8"/>
<stop offset="1" stop-color="#2770F8" stop-opacity="0"/>
</linearGradient>
<linearGradient id="paint7_linear_366_874" x1="438.368" y1="110.608" x2="438.368" y2="45.1445" gradientUnits="userSpaceOnUse">
<stop stop-color="#165DC7"/>
<stop offset="1" stop-color="#165DC7" stop-opacity="0"/>
</linearGradient>
</defs>
</svg>
