<svg width="294" height="231" viewBox="0 0 294 231" fill="none" xmlns="http://www.w3.org/2000/svg">
<g id="tabs-pattern">
<g id="BACKGROUND">
<rect id="Rectangle 340" x="0.263672" y="5.56598" width="293.248" height="219.456" fill="#EBEBEB"/>
<rect id="Rectangle 341" x="9.28215" y="17.5611" width="63.1143" height="14.8875" rx="1.32" fill="white" stroke="#58A2F5" stroke-width="0.66"/>
<g id="Rectangle 344">
<path d="M8.95215 40.1064C8.95215 39.1951 9.69088 38.4564 10.6021 38.4564H283.174C284.085 38.4564 284.824 39.1952 284.824 40.1064V213.355C284.824 214.266 284.085 215.005 283.174 215.005H10.6021C9.69087 215.005 8.95215 214.266 8.95215 213.355V40.1064Z" fill="white"/>
<path d="M10.6025 38.6215H283.174C283.994 38.6215 284.659 39.2867 284.659 40.1068V213.355C284.659 214.175 283.994 214.84 283.174 214.84H10.6025C9.78242 214.84 9.11722 214.175 9.11719 213.355V40.1068C9.11719 39.2867 9.78239 38.6215 10.6025 38.6215Z" stroke="black" stroke-opacity="0.24" stroke-width="0.33"/>
</g>
<rect id="Rectangle 342" x="76.5869" y="17.2311" width="63.7743" height="15.5475" rx="1.65" fill="#CECECE"/>
<rect id="Rectangle 343" x="144.222" y="17.2311" width="63.7743" height="15.5475" rx="1.65" fill="#CECECE"/>
</g>
<g id="main-view">
<path id="Rectangle 260" d="M5.02734 57.0617C5.02734 56.6972 5.32284 56.4017 5.68734 56.4017H288.816C289.181 56.4017 289.476 56.6972 289.476 57.0617V217.455C289.476 217.82 289.181 218.115 288.816 218.115H5.68735C5.32284 218.115 5.02734 217.82 5.02734 217.455V57.0617Z" fill="url(#paint0_linear_366_874)" fill-opacity="0.2" stroke="url(#paint1_linear_366_874)" stroke-opacity="0.5" stroke-width="0.66" stroke-dasharray="2.64 0.66"/>
<g id="Frame 112" filter="url(#filter0_dd_366_874)">
<path d="M234.729 211.162C234.729 210.287 235.439 209.578 236.313 209.578H283.369C284.244 209.578 284.953 210.287 284.953 211.162V223.218C284.953 224.093 284.244 224.802 283.369 224.802H236.313C235.439 224.802 234.729 224.093 234.729 223.218V211.162Z" fill="#D8EAFF" shape-rendering="crispEdges"/>
<path d="M236.313 209.842H283.369C284.098 209.842 284.689 210.433 284.689 211.162V223.218C284.689 223.947 284.098 224.538 283.369 224.538H236.313C235.584 224.538 234.993 223.947 234.993 223.218V211.162C234.993 210.433 235.584 209.842 236.313 209.842Z" stroke="black" stroke-opacity="0.58" stroke-width="0.528" style="mix-blend-mode:overlay" shape-rendering="crispEdges"/>
<path id="main-view_2" d="M237.171 219.69V215.263H237.83V215.719C237.926 215.579 238.058 215.452 238.227 215.339C238.402 215.221 238.607 215.162 238.844 215.162C239.058 215.162 239.244 215.215 239.402 215.322C239.565 215.424 239.68 215.567 239.748 215.753C239.838 215.607 239.97 215.472 240.145 215.348C240.32 215.224 240.531 215.162 240.779 215.162C241.055 215.162 241.283 215.246 241.463 215.415C241.643 215.579 241.733 215.801 241.733 216.083V219.69H241.04V216.226C241.04 216.069 240.995 215.95 240.905 215.871C240.815 215.793 240.697 215.753 240.55 215.753C240.314 215.753 240.128 215.821 239.993 215.956C239.863 216.085 239.799 216.266 239.799 216.497V219.69H239.106V216.226C239.106 216.069 239.061 215.95 238.971 215.871C238.881 215.793 238.762 215.753 238.616 215.753C238.379 215.753 238.193 215.821 238.058 215.956C237.929 216.085 237.864 216.266 237.864 216.497V219.69H237.171ZM246.702 219.225V219.757C246.527 219.808 246.387 219.833 246.28 219.833C245.807 219.833 245.545 219.611 245.494 219.166C245.246 219.408 245.004 219.583 244.767 219.69C244.531 219.791 244.272 219.842 243.99 219.842C243.562 219.842 243.213 219.729 242.943 219.504C242.678 219.273 242.546 218.952 242.546 218.541C242.546 218.237 242.61 217.995 242.74 217.814C242.869 217.629 243.027 217.491 243.213 217.4C243.404 217.305 243.585 217.243 243.754 217.215C243.832 217.203 243.954 217.186 244.117 217.164C244.28 217.136 244.486 217.105 244.734 217.071C245.015 217.032 245.21 216.978 245.317 216.91C245.429 216.843 245.485 216.739 245.485 216.598V216.446C245.485 216.007 245.148 215.787 244.472 215.787C244.145 215.787 243.897 215.852 243.728 215.981C243.565 216.105 243.469 216.302 243.441 216.573H242.731C242.743 216.06 242.909 215.694 243.23 215.474C243.557 215.249 243.982 215.136 244.506 215.136C245.052 215.136 245.466 215.241 245.747 215.449C246.029 215.652 246.17 215.95 246.17 216.344V218.896C246.17 219.127 246.296 219.242 246.55 219.242C246.595 219.242 246.646 219.237 246.702 219.225ZM245.485 218.152V217.451C245.339 217.519 245.156 217.572 244.936 217.612C244.722 217.651 244.522 217.682 244.337 217.705C244.01 217.744 243.748 217.82 243.551 217.933C243.359 218.045 243.264 218.242 243.264 218.524C243.264 218.744 243.343 218.915 243.5 219.039C243.664 219.163 243.886 219.225 244.168 219.225C244.376 219.225 244.579 219.18 244.776 219.09C244.979 218.994 245.148 218.865 245.283 218.701C245.418 218.538 245.485 218.355 245.485 218.152ZM249.212 214.63V213.785H250.057V214.63H249.212ZM249.981 215.263V219.115H251.341V219.69H247.768V219.115H249.288V215.838H247.768V215.263H249.981ZM252.855 219.69V215.263H253.505V215.998C253.68 215.728 253.88 215.517 254.105 215.365C254.336 215.212 254.626 215.136 254.975 215.136C255.234 215.136 255.468 215.181 255.677 215.272C255.891 215.356 256.06 215.488 256.183 215.669C256.313 215.843 256.378 216.069 256.378 216.344V219.69H255.677V216.623C255.677 216.325 255.586 216.105 255.406 215.964C255.226 215.824 255.012 215.753 254.764 215.753C254.499 215.753 254.277 215.821 254.097 215.956C253.917 216.091 253.781 216.268 253.691 216.488C253.601 216.708 253.556 216.944 253.556 217.198V219.69H252.855ZM258.069 216.665H261.262V217.274H258.069V216.665ZM266.729 215.263L265.107 219.69H264.33L262.708 215.263H263.46L264.736 218.845L266.003 215.263H266.729ZM269.426 214.63V213.785H270.27V214.63H269.426ZM270.194 215.263V219.115H271.554V219.69H267.981V219.115H269.502V215.838H267.981V215.263H270.194ZM276.751 218.321C276.678 218.783 276.473 219.152 276.135 219.428C275.802 219.704 275.377 219.842 274.859 219.842C274.414 219.842 274.042 219.743 273.744 219.546C273.445 219.344 273.22 219.068 273.068 218.718C272.922 218.369 272.848 217.969 272.848 217.519C272.848 217.023 272.933 216.598 273.102 216.243C273.271 215.888 273.507 215.615 273.812 215.424C274.116 215.227 274.47 215.128 274.876 215.128C275.332 215.128 275.704 215.235 275.991 215.449C276.284 215.663 276.498 215.961 276.633 216.344C276.774 216.727 276.844 217.175 276.844 217.688H273.583C273.595 218.121 273.707 218.482 273.921 218.769C274.135 219.051 274.456 219.191 274.884 219.191C275.464 219.191 275.85 218.901 276.042 218.321H276.751ZM274.868 215.778C274.473 215.778 274.172 215.908 273.964 216.167C273.755 216.426 273.634 216.742 273.6 217.113H276.084C276.084 216.865 276.033 216.643 275.932 216.446C275.836 216.243 275.698 216.083 275.518 215.964C275.338 215.84 275.121 215.778 274.868 215.778ZM278.375 219.69L277.454 215.263H278.164L278.797 218.972H278.806L279.422 215.263H280.318L280.96 218.98H280.968L281.602 215.263H282.303L281.365 219.69H280.521L279.87 215.88H279.862L279.22 219.69H278.375Z" fill="#16478F"/>
</g>
</g>
<g id="subjects.active/view">
<path id="Rectangle 260_2" d="M5.02734 57.0617C5.02734 56.6972 5.32284 56.4017 5.68734 56.4017H288.816C289.181 56.4017 289.476 56.6972 289.476 57.0617V217.455C289.476 217.82 289.181 218.115 288.816 218.115H5.68735C5.32284 218.115 5.02734 217.82 5.02734 217.455V57.0617Z" fill="url(#paint2_linear_366_874)" fill-opacity="0.2" stroke="url(#paint3_linear_366_874)" stroke-opacity="0.5" stroke-width="0.66" stroke-dasharray="2.64 0.66"/>
<g id="Frame 112_2" filter="url(#filter1_dd_366_874)">
<path d="M14.7842 211.162C14.7842 210.287 15.4934 209.578 16.3682 209.578H119.424C120.299 209.578 121.008 210.287 121.008 211.162V223.218C121.008 224.093 120.299 224.802 119.424 224.802H16.3682C15.4934 224.802 14.7842 224.093 14.7842 223.218V211.162Z" fill="#D8EAFF" shape-rendering="crispEdges"/>
<path d="M16.3682 209.842H119.424C120.153 209.842 120.744 210.433 120.744 211.162V223.218C120.744 223.947 120.153 224.538 119.424 224.538H16.3682C15.6392 224.538 15.0479 223.947 15.0479 223.218V211.162C15.0479 210.433 15.6392 209.842 16.3682 209.842Z" stroke="black" stroke-opacity="0.58" stroke-width="0.528" style="mix-blend-mode:overlay" shape-rendering="crispEdges"/>
<path id="subjects.active/view_2" d="M21.1289 216.471H20.394C20.3883 216.251 20.3038 216.077 20.1405 215.947C19.9828 215.818 19.7716 215.753 19.5069 215.753C19.2197 215.753 18.986 215.812 18.8057 215.93C18.6311 216.049 18.5438 216.206 18.5438 216.403C18.5438 216.561 18.5973 216.688 18.7044 216.784C18.8114 216.879 18.9691 216.955 19.1774 217.012L20.1828 217.274C20.5545 217.369 20.8333 217.513 21.0191 217.704C21.2106 217.89 21.3063 218.141 21.3063 218.456C21.3063 218.884 21.1486 219.222 20.8333 219.47C20.5179 219.718 20.0842 219.842 19.5323 219.842C18.3721 219.842 17.7666 219.343 17.7159 218.347H18.4594C18.4932 218.645 18.6002 218.865 18.7804 219.005C18.9662 219.146 19.2225 219.217 19.5492 219.217C19.8645 219.217 20.1152 219.16 20.301 219.048C20.4925 218.935 20.5883 218.775 20.5883 218.566C20.5883 218.375 20.5376 218.231 20.4362 218.135C20.3348 218.04 20.163 217.961 19.9209 217.899L18.9916 217.654C18.5917 217.547 18.296 217.403 18.1045 217.223C17.9187 217.037 17.8258 216.775 17.8258 216.437C17.8258 216.037 17.9778 215.719 18.282 215.483C18.5917 215.246 19.0057 215.128 19.5238 215.128C20.042 215.128 20.4362 215.249 20.7065 215.491C20.9825 215.728 21.1233 216.054 21.1289 216.471ZM26.3258 215.263V219.69H25.6922V219.031C25.4895 219.324 25.2727 219.532 25.0417 219.656C24.8165 219.78 24.5405 219.842 24.2138 219.842C23.8252 219.842 23.507 219.755 23.2592 219.58C22.9551 219.36 22.803 219.045 22.803 218.634V215.263H23.5042V218.355C23.5042 218.653 23.6028 218.879 23.7999 219.031C23.9632 219.16 24.1688 219.225 24.4166 219.225C24.7489 219.225 25.0277 219.104 25.2529 218.862C25.5008 218.597 25.6247 218.217 25.6247 217.721V215.263H26.3258ZM27.738 219.69V213.531H28.4392V215.854C28.7602 215.37 29.2164 215.128 29.8078 215.128C30.2415 215.128 30.5963 215.232 30.8722 215.44C31.1538 215.643 31.3622 215.919 31.4974 216.268C31.6326 216.618 31.7002 217.006 31.7002 217.434C31.7002 217.885 31.6269 218.293 31.4805 218.659C31.3341 219.025 31.1172 219.315 30.83 219.529C30.5484 219.738 30.1964 219.842 29.774 219.842C29.1714 219.842 28.7039 219.588 28.3716 219.082V219.69H27.738ZM29.6811 215.787C29.3826 215.787 29.1404 215.871 28.9546 216.04C28.7743 216.209 28.642 216.426 28.5575 216.691C28.4786 216.95 28.4392 217.223 28.4392 217.51C28.4392 217.786 28.4786 218.054 28.5575 218.313C28.642 218.566 28.7743 218.775 28.9546 218.938C29.1404 219.101 29.3826 219.183 29.6811 219.183C29.9796 219.183 30.2218 219.104 30.4076 218.946C30.5991 218.789 30.7399 218.583 30.83 218.33C30.9258 218.071 30.9736 217.797 30.9736 217.51C30.9736 217.2 30.9258 216.916 30.83 216.657C30.7399 216.398 30.5991 216.189 30.4076 216.032C30.2161 215.868 29.9739 215.787 29.6811 215.787ZM34.7935 214.629V213.785H35.6383V214.629H34.7935ZM34.8611 219.985V215.837H33.087V215.263H35.5623V220.154C35.5623 220.588 35.4271 220.926 35.1568 221.168C34.8864 221.41 34.4922 221.531 33.9741 221.531C33.7826 221.531 33.5967 221.523 33.4165 221.506C33.2363 221.495 33.0701 221.469 32.9181 221.43V220.813C33.0926 220.847 33.2672 220.87 33.4418 220.881C33.6221 220.898 33.7882 220.906 33.9403 220.906C34.2725 220.906 34.5091 220.833 34.6499 220.687C34.7907 220.546 34.8611 220.312 34.8611 219.985ZM41.6462 218.321C41.573 218.783 41.3674 219.152 41.0295 219.428C40.6972 219.704 40.272 219.842 39.7539 219.842C39.3089 219.842 38.9372 219.743 38.6387 219.546C38.3402 219.343 38.115 219.067 37.9629 218.718C37.8165 218.369 37.7432 217.969 37.7432 217.519C37.7432 217.023 37.8277 216.598 37.9967 216.243C38.1656 215.888 38.4022 215.615 38.7063 215.424C39.0104 215.226 39.3653 215.128 39.7708 215.128C40.227 215.128 40.5987 215.235 40.8859 215.449C41.1788 215.663 41.3928 215.961 41.528 216.344C41.6688 216.727 41.7392 217.175 41.7392 217.688H38.4782C38.4895 218.121 38.6021 218.482 38.8161 218.769C39.0302 219.051 39.3512 219.191 39.7792 219.191C40.3593 219.191 40.7451 218.901 40.9366 218.321H41.6462ZM39.7623 215.778C39.3681 215.778 39.0668 215.908 38.8584 216.167C38.65 216.426 38.5289 216.741 38.4951 217.113H40.9788C40.9788 216.865 40.9281 216.643 40.8268 216.446C40.731 216.243 40.593 216.082 40.4128 215.964C40.2326 215.84 40.0158 215.778 39.7623 215.778ZM46.6657 216.725H45.9561C45.9167 216.432 45.804 216.201 45.6182 216.032C45.4323 215.863 45.1845 215.778 44.8747 215.778C44.5706 215.778 44.3256 215.863 44.1398 216.032C43.9539 216.201 43.8187 216.42 43.7343 216.691C43.6498 216.955 43.6075 217.234 43.6075 217.527C43.6075 217.82 43.6526 218.093 43.7427 218.347C43.8328 218.6 43.9736 218.806 44.1651 218.963C44.3566 219.115 44.5988 219.191 44.8916 219.191C45.5168 219.191 45.8885 218.842 46.0068 218.144H46.7164C46.6714 218.673 46.4883 219.09 46.1673 219.394C45.8519 219.693 45.421 219.842 44.8747 219.842C44.4467 219.842 44.0834 219.74 43.785 219.538C43.4865 219.329 43.2584 219.051 43.1007 218.701C42.9486 218.352 42.8726 217.961 42.8726 217.527C42.8726 217.082 42.9486 216.679 43.1007 216.319C43.2527 215.959 43.478 215.671 43.7765 215.457C44.075 215.238 44.4439 215.128 44.8832 215.128C45.4239 215.128 45.8519 215.277 46.1673 215.576C46.4883 215.874 46.6545 216.257 46.6657 216.725ZM49.8605 215.263H51.6007V215.837H49.8605V218.304C49.8605 218.631 49.9449 218.859 50.1139 218.989C50.2829 219.112 50.5278 219.174 50.8489 219.174C50.9953 219.174 51.1305 219.169 51.2544 219.158C51.3783 219.141 51.4937 219.118 51.6007 219.09V219.707C51.4599 219.746 51.322 219.771 51.1868 219.783C51.0516 219.8 50.9249 219.808 50.8066 219.808C50.2716 219.808 49.8633 219.698 49.5817 219.479C49.3001 219.259 49.1593 218.91 49.1593 218.431V215.837H47.8836V215.263H49.1593V214.046H49.8605V215.263ZM56.502 216.471H55.767C55.7614 216.251 55.6769 216.077 55.5135 215.947C55.3559 215.818 55.1447 215.753 54.8799 215.753C54.5927 215.753 54.359 215.812 54.1788 215.93C54.0042 216.049 53.9169 216.206 53.9169 216.403C53.9169 216.561 53.9704 216.688 54.0774 216.784C54.1844 216.879 54.3421 216.955 54.5505 217.012L55.5558 217.274C55.9275 217.369 56.2063 217.513 56.3921 217.704C56.5836 217.89 56.6794 218.141 56.6794 218.456C56.6794 218.884 56.5217 219.222 56.2063 219.47C55.8909 219.718 55.4572 219.842 54.9053 219.842C53.7451 219.842 53.1397 219.343 53.089 218.347H53.8324C53.8662 218.645 53.9732 218.865 54.1534 219.005C54.3393 219.146 54.5955 219.217 54.9222 219.217C55.2376 219.217 55.4882 219.16 55.6741 219.048C55.8655 218.935 55.9613 218.775 55.9613 218.566C55.9613 218.375 55.9106 218.231 55.8092 218.135C55.7079 218.04 55.5361 217.961 55.2939 217.899L54.3646 217.654C53.9647 217.547 53.6691 217.403 53.4776 217.223C53.2917 217.037 53.1988 216.775 53.1988 216.437C53.1988 216.037 53.3509 215.719 53.655 215.483C53.9647 215.246 54.3787 215.128 54.8968 215.128C55.415 215.128 55.8092 215.249 56.0796 215.491C56.3555 215.728 56.4963 216.054 56.502 216.471ZM59.3588 218.541H60.5077V219.69H59.3588V218.541ZM67.183 219.225V219.757C67.0084 219.808 66.8676 219.833 66.7606 219.833C66.2875 219.833 66.0256 219.611 65.9749 219.166C65.7271 219.408 65.485 219.583 65.2484 219.69C65.0119 219.791 64.7528 219.842 64.4712 219.842C64.0432 219.842 63.694 219.729 63.4237 219.504C63.1589 219.273 63.0266 218.952 63.0266 218.541C63.0266 218.237 63.0914 217.995 63.2209 217.814C63.3504 217.628 63.5081 217.49 63.694 217.4C63.8855 217.305 64.0657 217.243 64.2347 217.214C64.3135 217.203 64.4346 217.186 64.5979 217.164C64.7613 217.136 64.9668 217.105 65.2146 217.071C65.4962 217.031 65.6905 216.978 65.7975 216.91C65.9102 216.843 65.9665 216.739 65.9665 216.598V216.446C65.9665 216.006 65.6286 215.787 64.9527 215.787C64.6261 215.787 64.3783 215.852 64.2093 215.981C64.046 216.105 63.9502 216.302 63.9221 216.572H63.2125C63.2237 216.06 63.3899 215.694 63.7109 215.474C64.0375 215.249 64.4628 215.136 64.9865 215.136C65.5328 215.136 65.9468 215.24 66.2284 215.449C66.51 215.652 66.6508 215.95 66.6508 216.344V218.896C66.6508 219.127 66.7775 219.242 67.0309 219.242C67.076 219.242 67.1267 219.236 67.183 219.225ZM65.9665 218.152V217.451C65.8201 217.519 65.637 217.572 65.4174 217.612C65.2034 217.651 65.0034 217.682 64.8176 217.704C64.4909 217.744 64.229 217.82 64.0319 217.933C63.8404 218.045 63.7447 218.242 63.7447 218.524C63.7447 218.744 63.8235 218.915 63.9812 219.039C64.1445 219.163 64.367 219.225 64.6486 219.225C64.857 219.225 65.0597 219.18 65.2569 219.09C65.4596 218.994 65.6286 218.865 65.7637 218.701C65.8989 218.538 65.9665 218.355 65.9665 218.152ZM71.9322 216.725H71.2225C71.1831 216.432 71.0705 216.201 70.8846 216.032C70.6988 215.863 70.451 215.778 70.1412 215.778C69.8371 215.778 69.5921 215.863 69.4062 216.032C69.2204 216.201 69.0852 216.42 69.0007 216.691C68.9162 216.955 68.874 217.234 68.874 217.527C68.874 217.82 68.9191 218.093 69.0092 218.347C69.0993 218.6 69.2401 218.806 69.4316 218.963C69.6231 219.115 69.8652 219.191 70.1581 219.191C70.7832 219.191 71.155 218.842 71.2732 218.144H71.9829C71.9378 218.673 71.7548 219.09 71.4337 219.394C71.1184 219.693 70.6875 219.842 70.1412 219.842C69.7132 219.842 69.3499 219.74 69.0514 219.538C68.7529 219.329 68.5248 219.051 68.3671 218.701C68.2151 218.352 68.139 217.961 68.139 217.527C68.139 217.082 68.2151 216.679 68.3671 216.319C68.5192 215.959 68.7445 215.671 69.043 215.457C69.3415 215.238 69.7104 215.128 70.1496 215.128C70.6903 215.128 71.1184 215.277 71.4337 215.576C71.7548 215.874 71.9209 216.257 71.9322 216.725ZM75.1269 215.263H76.8672V215.837H75.1269V218.304C75.1269 218.631 75.2114 218.859 75.3803 218.989C75.5493 219.112 75.7943 219.174 76.1153 219.174C76.2618 219.174 76.3969 219.169 76.5208 219.158C76.6447 219.141 76.7602 219.118 76.8672 219.09V219.707C76.7264 219.746 76.5884 219.771 76.4532 219.783C76.3181 219.8 76.1913 219.808 76.0731 219.808C75.538 219.808 75.1297 219.698 74.8481 219.479C74.5665 219.259 74.4257 218.91 74.4257 218.431V215.837H73.1501V215.263H74.4257V214.046H75.1269V215.263ZM79.8 214.629V213.785H80.6448V214.629H79.8ZM80.5688 215.263V219.115H81.9289V219.69H78.3554V219.115H79.8761V215.837H78.3554V215.263H80.5688ZM87.2103 215.263L85.5883 219.69H84.8111L83.1891 215.263H83.9409L85.2166 218.845L86.4838 215.263H87.2103ZM92.1791 218.321C92.1059 218.783 91.9003 219.152 91.5624 219.428C91.2301 219.704 90.8049 219.842 90.2868 219.842C89.8418 219.842 89.4701 219.743 89.1716 219.546C88.8731 219.343 88.6479 219.067 88.4958 218.718C88.3494 218.369 88.2761 217.969 88.2761 217.519C88.2761 217.023 88.3606 216.598 88.5296 216.243C88.6985 215.888 88.9351 215.615 89.2392 215.424C89.5433 215.226 89.8982 215.128 90.3037 215.128C90.7599 215.128 91.1316 215.235 91.4188 215.449C91.7117 215.663 91.9257 215.961 92.0609 216.344C92.2017 216.727 92.2721 217.175 92.2721 217.688H89.0111C89.0224 218.121 89.135 218.482 89.349 218.769C89.5631 219.051 89.8841 219.191 90.3121 219.191C90.8922 219.191 91.278 218.901 91.4695 218.321H92.1791ZM90.2952 215.778C89.901 215.778 89.5997 215.908 89.3913 216.167C89.1829 216.426 89.0618 216.741 89.028 217.113H91.5117C91.5117 216.865 91.461 216.643 91.3597 216.446C91.2639 216.243 91.1259 216.082 90.9457 215.964C90.7655 215.84 90.5487 215.778 90.2952 215.778ZM93.5237 220.366L96.3707 212.982H97.0888L94.2418 220.366H93.5237ZM102.37 215.263L100.748 219.69H99.971L98.3489 215.263H99.1008L100.376 218.845L101.644 215.263H102.37ZM105.066 214.629V213.785H105.911V214.629H105.066ZM105.835 215.263V219.115H107.195V219.69H103.622V219.115H105.143V215.837H103.622V215.263H105.835ZM112.392 218.321C112.319 218.783 112.114 219.152 111.776 219.428C111.443 219.704 111.018 219.842 110.5 219.842C110.055 219.842 109.683 219.743 109.385 219.546C109.086 219.343 108.861 219.067 108.709 218.718C108.563 218.369 108.489 217.969 108.489 217.519C108.489 217.023 108.574 216.598 108.743 216.243C108.912 215.888 109.148 215.615 109.452 215.424C109.757 215.226 110.111 215.128 110.517 215.128C110.973 215.128 111.345 215.235 111.632 215.449C111.925 215.663 112.139 215.961 112.274 216.344C112.415 216.727 112.485 217.175 112.485 217.688H109.224C109.236 218.121 109.348 218.482 109.562 218.769C109.776 219.051 110.097 219.191 110.525 219.191C111.105 219.191 111.491 218.901 111.683 218.321H112.392ZM110.508 215.778C110.114 215.778 109.813 215.908 109.604 216.167C109.396 216.426 109.275 216.741 109.241 217.113H111.725C111.725 216.865 111.674 216.643 111.573 216.446C111.477 216.243 111.339 216.082 111.159 215.964C110.979 215.84 110.762 215.778 110.508 215.778ZM114.016 219.69L113.095 215.263H113.804L114.438 218.972H114.447L115.063 215.263H115.959L116.601 218.98H116.609L117.243 215.263H117.944L117.006 219.69H116.161L115.511 215.88H115.503L114.86 219.69H114.016Z" fill="#16478F"/>
</g>
</g>
<g id="subjects/view">
<path id="Rectangle 260_3" d="M5.02734 57.0617C5.02734 56.6972 5.32284 56.4017 5.68734 56.4017H288.816C289.181 56.4017 289.476 56.6972 289.476 57.0617V217.455C289.476 217.82 289.181 218.115 288.816 218.115H5.68735C5.32284 218.115 5.02734 217.82 5.02734 217.455V57.0617Z" fill="url(#paint4_linear_366_874)" fill-opacity="0.2" stroke="url(#paint5_linear_366_874)" stroke-opacity="0.5" stroke-width="0.66" stroke-dasharray="2.64 0.66"/>
<g id="Frame 112_3" filter="url(#filter2_dd_366_874)">
<path d="M135.762 211.162C135.762 210.287 136.471 209.578 137.346 209.578H204.402C205.277 209.578 205.986 210.287 205.986 211.162V223.218C205.986 224.093 205.277 224.802 204.402 224.802H137.346C136.471 224.802 135.762 224.093 135.762 223.218V211.162Z" fill="#D8EAFF" shape-rendering="crispEdges"/>
<path d="M137.346 209.842H204.401C205.13 209.842 205.722 210.433 205.722 211.162V223.218C205.722 223.947 205.13 224.538 204.401 224.538H137.346C136.617 224.538 136.025 223.947 136.025 223.218V211.162C136.025 210.433 136.617 209.842 137.346 209.842Z" stroke="black" stroke-opacity="0.58" stroke-width="0.528" style="mix-blend-mode:overlay" shape-rendering="crispEdges"/>
<path id="subjects/view_2" d="M142.106 216.471H141.371C141.366 216.252 141.281 216.077 141.118 215.947C140.96 215.818 140.749 215.753 140.484 215.753C140.197 215.753 139.963 215.812 139.783 215.931C139.609 216.049 139.521 216.206 139.521 216.404C139.521 216.561 139.575 216.688 139.682 216.784C139.789 216.88 139.947 216.956 140.155 217.012L141.16 217.274C141.532 217.369 141.811 217.513 141.997 217.705C142.188 217.89 142.284 218.141 142.284 218.456C142.284 218.885 142.126 219.222 141.811 219.47C141.495 219.718 141.062 219.842 140.51 219.842C139.35 219.842 138.744 219.344 138.693 218.347H139.437C139.471 218.645 139.578 218.865 139.758 219.006C139.944 219.146 140.2 219.217 140.527 219.217C140.842 219.217 141.093 219.16 141.279 219.048C141.47 218.935 141.566 218.775 141.566 218.566C141.566 218.375 141.515 218.231 141.414 218.135C141.312 218.04 141.141 217.961 140.898 217.899L139.969 217.654C139.569 217.547 139.274 217.403 139.082 217.223C138.896 217.037 138.803 216.775 138.803 216.437C138.803 216.038 138.955 215.719 139.259 215.483C139.569 215.246 139.983 215.128 140.501 215.128C141.019 215.128 141.414 215.249 141.684 215.491C141.96 215.728 142.101 216.054 142.106 216.471ZM147.303 215.263V219.69H146.67V219.031C146.467 219.324 146.25 219.532 146.019 219.656C145.794 219.78 145.518 219.842 145.191 219.842C144.803 219.842 144.485 219.755 144.237 219.58C143.933 219.36 143.781 219.045 143.781 218.634V215.263H144.482V218.355C144.482 218.654 144.58 218.879 144.777 219.031C144.941 219.16 145.146 219.225 145.394 219.225C145.726 219.225 146.005 219.104 146.23 218.862C146.478 218.597 146.602 218.217 146.602 217.721V215.263H147.303ZM148.716 219.69V213.531H149.417V215.854C149.738 215.37 150.194 215.128 150.785 215.128C151.219 215.128 151.574 215.232 151.85 215.441C152.131 215.643 152.34 215.919 152.475 216.268C152.61 216.618 152.678 217.006 152.678 217.434C152.678 217.885 152.604 218.293 152.458 218.659C152.312 219.025 152.095 219.315 151.808 219.529C151.526 219.738 151.174 219.842 150.752 219.842C150.149 219.842 149.681 219.589 149.349 219.082V219.69H148.716ZM150.659 215.787C150.36 215.787 150.118 215.871 149.932 216.04C149.752 216.209 149.62 216.426 149.535 216.691C149.456 216.95 149.417 217.223 149.417 217.51C149.417 217.786 149.456 218.054 149.535 218.313C149.62 218.566 149.752 218.775 149.932 218.938C150.118 219.101 150.36 219.183 150.659 219.183C150.957 219.183 151.199 219.104 151.385 218.946C151.577 218.789 151.717 218.583 151.808 218.33C151.903 218.071 151.951 217.798 151.951 217.51C151.951 217.201 151.903 216.916 151.808 216.657C151.717 216.398 151.577 216.19 151.385 216.032C151.194 215.869 150.951 215.787 150.659 215.787ZM155.771 214.63V213.785H156.616V214.63H155.771ZM155.839 219.986V215.838H154.065V215.263H156.54V220.155C156.54 220.588 156.405 220.926 156.134 221.168C155.864 221.41 155.47 221.532 154.952 221.532C154.76 221.532 154.574 221.523 154.394 221.506C154.214 221.495 154.048 221.47 153.896 221.43V220.813C154.07 220.847 154.245 220.87 154.419 220.881C154.6 220.898 154.766 220.906 154.918 220.906C155.25 220.906 155.487 220.833 155.627 220.687C155.768 220.546 155.839 220.312 155.839 219.986ZM162.624 218.321C162.551 218.783 162.345 219.152 162.007 219.428C161.675 219.704 161.25 219.842 160.731 219.842C160.286 219.842 159.915 219.743 159.616 219.546C159.318 219.344 159.092 219.068 158.94 218.718C158.794 218.369 158.721 217.969 158.721 217.519C158.721 217.023 158.805 216.598 158.974 216.243C159.143 215.888 159.38 215.615 159.684 215.424C159.988 215.227 160.343 215.128 160.748 215.128C161.204 215.128 161.576 215.235 161.863 215.449C162.156 215.663 162.37 215.961 162.505 216.344C162.646 216.727 162.717 217.175 162.717 217.688H159.456C159.467 218.121 159.58 218.482 159.794 218.769C160.008 219.051 160.329 219.191 160.757 219.191C161.337 219.191 161.723 218.901 161.914 218.321H162.624ZM160.74 215.778C160.346 215.778 160.044 215.908 159.836 216.167C159.628 216.426 159.506 216.742 159.473 217.113H161.956C161.956 216.865 161.906 216.643 161.804 216.446C161.709 216.243 161.571 216.083 161.39 215.964C161.21 215.84 160.993 215.778 160.74 215.778ZM167.643 216.725H166.934C166.894 216.432 166.782 216.201 166.596 216.032C166.41 215.863 166.162 215.778 165.852 215.778C165.548 215.778 165.303 215.863 165.117 216.032C164.931 216.201 164.796 216.421 164.712 216.691C164.627 216.956 164.585 217.234 164.585 217.527C164.585 217.82 164.63 218.093 164.72 218.347C164.81 218.6 164.951 218.806 165.143 218.963C165.334 219.115 165.576 219.191 165.869 219.191C166.494 219.191 166.866 218.842 166.984 218.144H167.694C167.649 218.673 167.466 219.09 167.145 219.394C166.829 219.693 166.399 219.842 165.852 219.842C165.424 219.842 165.061 219.741 164.762 219.538C164.464 219.329 164.236 219.051 164.078 218.701C163.926 218.352 163.85 217.961 163.85 217.527C163.85 217.082 163.926 216.68 164.078 216.319C164.23 215.959 164.456 215.671 164.754 215.457C165.053 215.238 165.421 215.128 165.861 215.128C166.401 215.128 166.829 215.277 167.145 215.576C167.466 215.874 167.632 216.257 167.643 216.725ZM170.838 215.263H172.578V215.838H170.838V218.304C170.838 218.631 170.922 218.859 171.091 218.989C171.26 219.113 171.505 219.175 171.826 219.175C171.973 219.175 172.108 219.169 172.232 219.158C172.356 219.141 172.471 219.118 172.578 219.09V219.707C172.437 219.746 172.299 219.772 172.164 219.783C172.029 219.8 171.902 219.808 171.784 219.808C171.249 219.808 170.841 219.698 170.559 219.479C170.278 219.259 170.137 218.91 170.137 218.431V215.838H168.861V215.263H170.137V214.047H170.838V215.263ZM177.48 216.471H176.745C176.739 216.252 176.654 216.077 176.491 215.947C176.333 215.818 176.122 215.753 175.857 215.753C175.57 215.753 175.337 215.812 175.156 215.931C174.982 216.049 174.894 216.206 174.894 216.404C174.894 216.561 174.948 216.688 175.055 216.784C175.162 216.88 175.32 216.956 175.528 217.012L176.533 217.274C176.905 217.369 177.184 217.513 177.37 217.705C177.561 217.89 177.657 218.141 177.657 218.456C177.657 218.885 177.499 219.222 177.184 219.47C176.868 219.718 176.435 219.842 175.883 219.842C174.723 219.842 174.117 219.344 174.067 218.347H174.81C174.844 218.645 174.951 218.865 175.131 219.006C175.317 219.146 175.573 219.217 175.9 219.217C176.215 219.217 176.466 219.16 176.652 219.048C176.843 218.935 176.939 218.775 176.939 218.566C176.939 218.375 176.888 218.231 176.787 218.135C176.685 218.04 176.514 217.961 176.271 217.899L175.342 217.654C174.942 217.547 174.647 217.403 174.455 217.223C174.269 217.037 174.176 216.775 174.176 216.437C174.176 216.038 174.328 215.719 174.633 215.483C174.942 215.246 175.356 215.128 175.874 215.128C176.393 215.128 176.787 215.249 177.057 215.491C177.333 215.728 177.474 216.054 177.48 216.471ZM179.128 220.366L181.975 212.982H182.693L179.846 220.366H179.128ZM187.975 215.263L186.353 219.69H185.575L183.953 215.263H184.705L185.981 218.845L187.248 215.263H187.975ZM190.671 214.63V213.785H191.516V214.63H190.671ZM191.44 215.263V219.115H192.8V219.69H189.226V219.115H190.747V215.838H189.226V215.263H191.44ZM197.997 218.321C197.924 218.783 197.718 219.152 197.38 219.428C197.048 219.704 196.623 219.842 196.104 219.842C195.66 219.842 195.288 219.743 194.989 219.546C194.691 219.344 194.466 219.068 194.313 218.718C194.167 218.369 194.094 217.969 194.094 217.519C194.094 217.023 194.178 216.598 194.347 216.243C194.516 215.888 194.753 215.615 195.057 215.424C195.361 215.227 195.716 215.128 196.121 215.128C196.578 215.128 196.949 215.235 197.236 215.449C197.529 215.663 197.743 215.961 197.879 216.344C198.019 216.727 198.09 217.175 198.09 217.688H194.829C194.84 218.121 194.953 218.482 195.167 218.769C195.381 219.051 195.702 219.191 196.13 219.191C196.71 219.191 197.096 218.901 197.287 218.321H197.997ZM196.113 215.778C195.719 215.778 195.417 215.908 195.209 216.167C195.001 216.426 194.879 216.742 194.846 217.113H197.329C197.329 216.865 197.279 216.643 197.177 216.446C197.082 216.243 196.944 216.083 196.763 215.964C196.583 215.84 196.366 215.778 196.113 215.778ZM199.62 219.69L198.699 215.263H199.409L200.043 218.972H200.051L200.668 215.263H201.563L202.205 218.98H202.214L202.847 215.263H203.549L202.611 219.69H201.766L201.115 215.88H201.107L200.465 219.69H199.62Z" fill="#16478F"/>
</g>
</g>
<g id="subjects">
<path id="Rectangle 260_4" d="M7.81543 33.5751C7.81543 33.9396 8.11092 34.2351 8.47543 34.2351H72.9498C73.3143 34.2351 73.6098 33.9396 73.6098 33.5751V16.2622C73.6098 15.8977 73.3143 15.6022 72.9498 15.6022H8.47543C8.11092 15.6022 7.81543 15.8977 7.81543 16.2622V33.5751Z" fill="#2770F8" fill-opacity="0.2" stroke="#2770F8" stroke-opacity="0.7" stroke-width="0.495" stroke-dasharray="2.64 0.66"/>
<path id="Rectangle 261" d="M75.7598 33.5751C75.7598 33.9396 76.0553 34.2351 76.4198 34.2351H140.653C141.018 34.2351 141.313 33.9396 141.313 33.5751V16.2622C141.313 15.8977 141.018 15.6022 140.653 15.6022H76.4198C76.0553 15.6022 75.7598 15.8977 75.7598 16.2622V33.5751Z" fill="#2770F8" fill-opacity="0.2" stroke="#2770F8" stroke-opacity="0.7" stroke-width="0.495" stroke-dasharray="2.64 0.66"/>
<path id="Rectangle 262" d="M143.464 33.5751C143.464 33.9396 143.759 34.2351 144.124 34.2351H208.266C208.631 34.2351 208.926 33.9396 208.926 33.5751V16.2622C208.926 15.8977 208.631 15.6022 208.266 15.6022H144.124C143.759 15.6022 143.464 15.8977 143.464 16.2622V33.5751Z" fill="#2770F8" fill-opacity="0.2" stroke="#2770F8" stroke-opacity="0.7" stroke-width="0.495" stroke-dasharray="2.64 0.66"/>
<g id="Frame 112_4" filter="url(#filter3_dd_366_874)">
<path d="M176.194 8.22847C176.194 7.35365 176.904 6.64447 177.778 6.64447H219.834C220.709 6.64447 221.418 7.35365 221.418 8.22847V20.2845C221.418 21.1593 220.709 21.8685 219.834 21.8685H177.778C176.904 21.8685 176.194 21.1593 176.194 20.2845V8.22847Z" fill="#D8EAFF" shape-rendering="crispEdges"/>
<path d="M177.778 6.90814H219.834C220.563 6.90814 221.154 7.49945 221.154 8.22845V20.2841C221.154 21.0131 220.563 21.6044 219.834 21.6044H177.778C177.049 21.6044 176.458 21.0131 176.458 20.2841V8.22845C176.458 7.49945 177.049 6.90815 177.778 6.90814Z" stroke="black" stroke-opacity="0.58" stroke-width="0.528" style="mix-blend-mode:overlay" shape-rendering="crispEdges"/>
<path id="subjects_2" d="M182.539 13.5378H181.804C181.798 13.3181 181.714 13.1435 181.551 13.014C181.393 12.8845 181.182 12.8197 180.917 12.8197C180.63 12.8197 180.396 12.8788 180.216 12.9971C180.041 13.1154 179.954 13.2731 179.954 13.4702C179.954 13.6279 180.008 13.7546 180.115 13.8504C180.222 13.9461 180.379 14.0221 180.588 14.0785L181.593 14.3403C181.965 14.4361 182.243 14.5797 182.429 14.7712C182.621 14.957 182.716 15.2077 182.716 15.5231C182.716 15.9511 182.559 16.289 182.243 16.5368C181.928 16.7846 181.494 16.9085 180.942 16.9085C179.782 16.9085 179.177 16.4101 179.126 15.4132H179.87C179.903 15.7117 180.01 15.9314 180.191 16.0722C180.376 16.213 180.633 16.2834 180.959 16.2834C181.275 16.2834 181.525 16.2271 181.711 16.1144C181.903 16.0018 181.998 15.8413 181.998 15.6329C181.998 15.4414 181.948 15.2978 181.846 15.202C181.745 15.1063 181.573 15.0274 181.331 14.9655L180.402 14.7205C180.002 14.6135 179.706 14.4699 179.515 14.2897C179.329 14.1038 179.236 13.8419 179.236 13.504C179.236 13.1041 179.388 12.7859 179.692 12.5494C180.002 12.3128 180.416 12.1945 180.934 12.1945C181.452 12.1945 181.846 12.3156 182.117 12.5578C182.393 12.7944 182.533 13.121 182.539 13.5378ZM187.736 12.3297V16.7565H187.102V16.0975C186.9 16.3904 186.683 16.5988 186.452 16.7227C186.227 16.8466 185.951 16.9085 185.624 16.9085C185.235 16.9085 184.917 16.8212 184.669 16.6466C184.365 16.427 184.213 16.1116 184.213 15.7005V12.3297H184.914V15.4217C184.914 15.7202 185.013 15.9455 185.21 16.0975C185.373 16.2271 185.579 16.2918 185.827 16.2918C186.159 16.2918 186.438 16.1707 186.663 15.9286C186.911 15.6639 187.035 15.2837 187.035 14.7881V12.3297H187.736ZM189.148 16.7565V10.5979H189.849V12.9211C190.17 12.4367 190.627 12.1945 191.218 12.1945C191.652 12.1945 192.006 12.2987 192.282 12.5071C192.564 12.7099 192.772 12.9858 192.908 13.335C193.043 13.6842 193.11 14.0728 193.11 14.5009C193.11 14.9514 193.037 15.3597 192.891 15.7258C192.744 16.0919 192.527 16.3819 192.24 16.596C191.959 16.8043 191.607 16.9085 191.184 16.9085C190.582 16.9085 190.114 16.6551 189.782 16.1482V16.7565H189.148ZM191.091 12.8535C190.793 12.8535 190.551 12.938 190.365 13.1069C190.184 13.2759 190.052 13.4927 189.968 13.7574C189.889 14.0165 189.849 14.2897 189.849 14.5769C189.849 14.8529 189.889 15.1204 189.968 15.3794C190.052 15.6329 190.184 15.8413 190.365 16.0046C190.551 16.1679 190.793 16.2496 191.091 16.2496C191.39 16.2496 191.632 16.1707 191.818 16.013C192.009 15.8553 192.15 15.6498 192.24 15.3963C192.336 15.1373 192.384 14.8641 192.384 14.5769C192.384 14.2671 192.336 13.9827 192.24 13.7236C192.15 13.4646 192.009 13.2562 191.818 13.0985C191.626 12.9352 191.384 12.8535 191.091 12.8535ZM196.204 11.6961V10.8513H197.048V11.6961H196.204ZM196.271 17.0521V12.9042H194.497V12.3297H196.972V17.2211C196.972 17.6548 196.837 17.9927 196.567 18.2349C196.297 18.477 195.902 18.5981 195.384 18.5981C195.193 18.5981 195.007 18.5897 194.827 18.5728C194.646 18.5615 194.48 18.5362 194.328 18.4968V17.8801C194.503 17.9138 194.677 17.9364 194.852 17.9476C195.032 17.9645 195.198 17.973 195.35 17.973C195.683 17.973 195.919 17.8998 196.06 17.7533C196.201 17.6125 196.271 17.3788 196.271 17.0521ZM203.056 15.3879C202.983 15.8497 202.778 16.2186 202.44 16.4946C202.107 16.7705 201.682 16.9085 201.164 16.9085C200.719 16.9085 200.347 16.81 200.049 16.6129C199.75 16.4101 199.525 16.1341 199.373 15.7849C199.227 15.4358 199.153 15.0359 199.153 14.5853C199.153 14.0897 199.238 13.6645 199.407 13.3097C199.576 12.9549 199.812 12.6817 200.116 12.4902C200.421 12.2931 200.775 12.1945 201.181 12.1945C201.637 12.1945 202.009 12.3016 202.296 12.5156C202.589 12.7296 202.803 13.0281 202.938 13.4111C203.079 13.794 203.149 14.2418 203.149 14.7543H199.888C199.9 15.188 200.012 15.5484 200.226 15.8356C200.44 16.1172 200.761 16.258 201.189 16.258C201.769 16.258 202.155 15.968 202.347 15.3879H203.056ZM201.172 12.845C200.778 12.845 200.477 12.9746 200.269 13.2337C200.06 13.4927 199.939 13.8081 199.905 14.1798H202.389C202.389 13.932 202.338 13.7096 202.237 13.5124C202.141 13.3097 202.003 13.1492 201.823 13.0309C201.643 12.907 201.426 12.845 201.172 12.845ZM208.076 13.7912H207.366C207.327 13.4984 207.214 13.2674 207.028 13.0985C206.842 12.9295 206.595 12.845 206.285 12.845C205.981 12.845 205.736 12.9295 205.55 13.0985C205.364 13.2674 205.229 13.4871 205.144 13.7574C205.06 14.0221 205.018 14.3009 205.018 14.5938C205.018 14.8866 205.063 15.1598 205.153 15.4132C205.243 15.6667 205.384 15.8722 205.575 16.0299C205.767 16.182 206.009 16.258 206.302 16.258C206.927 16.258 207.299 15.9089 207.417 15.2105H208.127C208.082 15.7399 207.898 16.1567 207.577 16.4608C207.262 16.7593 206.831 16.9085 206.285 16.9085C205.857 16.9085 205.494 16.8072 205.195 16.6044C204.897 16.396 204.669 16.1172 204.511 15.7681C204.359 15.4189 204.283 15.0274 204.283 14.5938C204.283 14.1489 204.359 13.7462 204.511 13.3857C204.663 13.0253 204.888 12.738 205.187 12.524C205.485 12.3044 205.854 12.1945 206.293 12.1945C206.834 12.1945 207.262 12.3438 207.577 12.6423C207.898 12.9408 208.065 13.3238 208.076 13.7912ZM211.271 12.3297H213.011V12.9042H211.271V15.371C211.271 15.6977 211.355 15.9257 211.524 16.0553C211.693 16.1792 211.938 16.2411 212.259 16.2411C212.405 16.2411 212.541 16.2355 212.665 16.2242C212.788 16.2073 212.904 16.1848 213.011 16.1567V16.7734C212.87 16.8128 212.732 16.8381 212.597 16.8494C212.462 16.8663 212.335 16.8747 212.217 16.8747C211.682 16.8747 211.273 16.7649 210.992 16.5453C210.71 16.3256 210.569 15.9764 210.569 15.4977V12.9042H209.294V12.3297H210.569V11.1132H211.271V12.3297ZM217.912 13.5378H217.177C217.172 13.3181 217.087 13.1435 216.924 13.014C216.766 12.8845 216.555 12.8197 216.29 12.8197C216.003 12.8197 215.769 12.8788 215.589 12.9971C215.414 13.1154 215.327 13.2731 215.327 13.4702C215.327 13.6279 215.381 13.7546 215.488 13.8504C215.595 13.9461 215.752 14.0221 215.961 14.0785L216.966 14.3403C217.338 14.4361 217.616 14.5797 217.802 14.7712C217.994 14.957 218.09 15.2077 218.09 15.5231C218.09 15.9511 217.932 16.289 217.616 16.5368C217.301 16.7846 216.867 16.9085 216.315 16.9085C215.155 16.9085 214.55 16.4101 214.499 15.4132H215.243C215.276 15.7117 215.383 15.9314 215.564 16.0722C215.749 16.213 216.006 16.2834 216.332 16.2834C216.648 16.2834 216.898 16.2271 217.084 16.1144C217.276 16.0018 217.371 15.8413 217.371 15.6329C217.371 15.4414 217.321 15.2978 217.219 15.202C217.118 15.1063 216.946 15.0274 216.704 14.9655L215.775 14.7205C215.375 14.6135 215.079 14.4699 214.888 14.2897C214.702 14.1038 214.609 13.8419 214.609 13.504C214.609 13.1041 214.761 12.7859 215.065 12.5494C215.375 12.3128 215.789 12.1945 216.307 12.1945C216.825 12.1945 217.219 12.3156 217.49 12.5578C217.766 12.7944 217.906 13.121 217.912 13.5378Z" fill="#16478F"/>
</g>
</g>
<g id="tabs-view">
<path id="Rectangle 262_2" d="M5.02734 16.2621C5.02734 15.8976 5.32284 15.6021 5.68734 15.6021H284.164C284.528 15.6021 284.824 15.8976 284.824 16.2621V36.545C284.824 36.9095 284.528 37.205 284.164 37.205H5.68734C5.32283 37.205 5.02734 36.9095 5.02734 36.545V16.2621Z" fill="url(#paint6_linear_366_874)" fill-opacity="0.2" stroke="url(#paint7_linear_366_874)" stroke-opacity="0.5" stroke-width="0.66" stroke-dasharray="2.64 0.66"/>
<g id="Frame 112_5" filter="url(#filter4_dd_366_874)">
<path d="M229.614 28.097C229.614 27.2222 230.323 26.513 231.198 26.513H278.254C279.129 26.513 279.838 27.2222 279.838 28.097V40.153C279.838 41.0278 279.129 41.737 278.254 41.737H231.198C230.323 41.737 229.614 41.0278 229.614 40.153V28.097Z" fill="#D8EAFF" shape-rendering="crispEdges"/>
<path d="M231.198 26.7767H278.254C278.983 26.7767 279.574 27.368 279.574 28.097V40.1526C279.574 40.8817 278.983 41.473 278.254 41.473H231.198C230.469 41.473 229.878 40.8817 229.878 40.1526V28.097C229.878 27.368 230.469 26.7767 231.198 26.7767Z" stroke="black" stroke-opacity="0.58" stroke-width="0.528" style="mix-blend-mode:overlay" shape-rendering="crispEdges"/>
<path id="tabs-view_2" d="M234.371 32.1982H236.111V32.7727H234.371V35.2395C234.371 35.5661 234.455 35.7942 234.624 35.9238C234.793 36.0477 235.038 36.1096 235.359 36.1096C235.506 36.1096 235.641 36.104 235.765 36.0927C235.889 36.0758 236.004 36.0533 236.111 36.0251V36.6418C235.97 36.6813 235.832 36.7066 235.697 36.7179C235.562 36.7348 235.435 36.7432 235.317 36.7432C234.782 36.7432 234.374 36.6334 234.092 36.4137C233.81 36.1941 233.67 35.8449 233.67 35.3662V32.7727H232.394V32.1982H233.67V30.9817H234.371V32.1982ZM241.587 36.1603V36.6925C241.412 36.7432 241.271 36.7686 241.164 36.7686C240.691 36.7686 240.429 36.5461 240.379 36.1012C240.131 36.3433 239.889 36.5179 239.652 36.6249C239.416 36.7263 239.157 36.777 238.875 36.777C238.447 36.777 238.098 36.6644 237.827 36.4391C237.563 36.2082 237.43 35.8871 237.43 35.476C237.43 35.1719 237.495 34.9297 237.625 34.7495C237.754 34.5636 237.912 34.4256 238.098 34.3355C238.289 34.2398 238.469 34.1778 238.638 34.1497C238.717 34.1384 238.838 34.1215 239.002 34.099C239.165 34.0708 239.371 34.0399 239.618 34.0061C239.9 33.9666 240.094 33.9131 240.201 33.8455C240.314 33.778 240.37 33.6738 240.37 33.533V33.3809C240.37 32.9416 240.032 32.722 239.356 32.722C239.03 32.722 238.782 32.7867 238.613 32.9163C238.45 33.0402 238.354 33.2373 238.326 33.5076H237.616C237.627 32.9951 237.794 32.629 238.115 32.4094C238.441 32.1841 238.867 32.0715 239.39 32.0715C239.937 32.0715 240.351 32.1757 240.632 32.384C240.914 32.5868 241.055 32.8853 241.055 33.2795V35.8308C241.055 36.0617 241.181 36.1772 241.435 36.1772C241.48 36.1772 241.53 36.1716 241.587 36.1603ZM240.37 35.0874V34.3862C240.224 34.4538 240.041 34.5073 239.821 34.5467C239.607 34.5862 239.407 34.6171 239.221 34.6397C238.895 34.6791 238.633 34.7551 238.436 34.8678C238.244 34.9804 238.148 35.1775 238.148 35.4591C238.148 35.6788 238.227 35.8505 238.385 35.9744C238.548 36.0983 238.771 36.1603 239.052 36.1603C239.261 36.1603 239.464 36.1152 239.661 36.0251C239.863 35.9294 240.032 35.7999 240.168 35.6365C240.303 35.4732 240.37 35.2902 240.37 35.0874ZM242.568 36.6249V30.4663H243.269V32.7895C243.59 32.3052 244.047 32.063 244.638 32.063C245.072 32.063 245.426 32.1672 245.702 32.3756C245.984 32.5783 246.192 32.8543 246.327 33.2035C246.463 33.5527 246.53 33.9413 246.53 34.3693C246.53 34.8199 246.457 35.2282 246.311 35.5943C246.164 35.9604 245.947 36.2504 245.66 36.4644C245.378 36.6728 245.026 36.777 244.604 36.777C244.001 36.777 243.534 36.5236 243.202 36.0167V36.6249H242.568ZM244.511 32.722C244.213 32.722 243.97 32.8064 243.785 32.9754C243.604 33.1444 243.472 33.3612 243.388 33.6259C243.309 33.885 243.269 34.1581 243.269 34.4454C243.269 34.7213 243.309 34.9888 243.388 35.2479C243.472 35.5014 243.604 35.7097 243.785 35.8731C243.97 36.0364 244.213 36.1181 244.511 36.1181C244.81 36.1181 245.052 36.0392 245.238 35.8815C245.429 35.7238 245.57 35.5183 245.66 35.2648C245.756 35.0057 245.804 34.7326 245.804 34.4454C245.804 34.1356 245.756 33.8512 245.66 33.5921C245.57 33.333 245.429 33.1247 245.238 32.967C245.046 32.8036 244.804 32.722 244.511 32.722ZM251.119 33.4063H250.384C250.378 33.1866 250.294 33.012 250.13 32.8825C249.973 32.7529 249.762 32.6882 249.497 32.6882C249.21 32.6882 248.976 32.7473 248.796 32.8656C248.621 32.9839 248.534 33.1415 248.534 33.3387C248.534 33.4964 248.587 33.6231 248.694 33.7188C248.801 33.8146 248.959 33.8906 249.167 33.9469L250.173 34.2088C250.544 34.3046 250.823 34.4482 251.009 34.6397C251.201 34.8255 251.296 35.0761 251.296 35.3915C251.296 35.8196 251.139 36.1575 250.823 36.4053C250.508 36.6531 250.074 36.777 249.522 36.777C248.362 36.777 247.757 36.2786 247.706 35.2817H248.449C248.483 35.5802 248.59 35.7999 248.77 35.9407C248.956 36.0815 249.212 36.1519 249.539 36.1519C249.854 36.1519 250.105 36.0955 250.291 35.9829C250.482 35.8703 250.578 35.7097 250.578 35.5014C250.578 35.3099 250.528 35.1663 250.426 35.0705C250.325 34.9748 250.153 34.8959 249.911 34.834L248.982 34.589C248.582 34.482 248.286 34.3383 248.094 34.1581C247.909 33.9723 247.816 33.7104 247.816 33.3725C247.816 32.9726 247.968 32.6544 248.272 32.4178C248.582 32.1813 248.996 32.063 249.514 32.063C250.032 32.063 250.426 32.1841 250.696 32.4263C250.972 32.6628 251.113 32.9895 251.119 33.4063ZM252.953 33.6006H256.147V34.2088H252.953V33.6006ZM261.614 32.1982L259.992 36.6249H259.215L257.593 32.1982H258.345L259.62 35.7801L260.888 32.1982H261.614ZM264.31 31.5646V30.7198H265.155V31.5646H264.31ZM265.079 32.1982V36.0505H266.439V36.6249H262.866V36.0505H264.386V32.7727H262.866V32.1982H265.079ZM271.636 35.2564C271.563 35.7182 271.357 36.0871 271.019 36.3631C270.687 36.639 270.262 36.777 269.744 36.777C269.299 36.777 268.927 36.6784 268.629 36.4813C268.33 36.2786 268.105 36.0026 267.953 35.6534C267.806 35.3042 267.733 34.9044 267.733 34.4538C267.733 33.9582 267.818 33.533 267.987 33.1782C268.156 32.8233 268.392 32.5502 268.696 32.3587C269 32.1616 269.355 32.063 269.761 32.063C270.217 32.063 270.589 32.17 270.876 32.384C271.169 32.5981 271.383 32.8966 271.518 33.2795C271.659 33.6625 271.729 34.1103 271.729 34.6228H268.468C268.479 35.0564 268.592 35.4169 268.806 35.7041C269.02 35.9857 269.341 36.1265 269.769 36.1265C270.349 36.1265 270.735 35.8365 270.927 35.2564H271.636ZM269.752 32.7135C269.358 32.7135 269.057 32.8431 268.848 33.1021C268.64 33.3612 268.519 33.6766 268.485 34.0483H270.969C270.969 33.8005 270.918 33.578 270.817 33.3809C270.721 33.1782 270.583 33.0176 270.403 32.8994C270.223 32.7755 270.006 32.7135 269.752 32.7135ZM273.26 36.6249L272.339 32.1982H273.048L273.682 35.9069H273.69L274.307 32.1982H275.203L275.845 35.9153H275.853L276.487 32.1982H277.188L276.25 36.6249H275.405L274.755 32.8149H274.746L274.104 36.6249H273.26Z" fill="#16478F"/>
</g>
</g>
<g id="subjects.active">
<path id="Rectangle 262_3" d="M7.64844 33.6614C7.64844 34.0259 7.94393 34.3214 8.30844 34.3214H73.3703C73.7348 34.3214 74.0303 34.0259 74.0303 33.6614V16.3485C74.0303 15.984 73.7348 15.6885 73.3703 15.6885H8.30844C7.94393 15.6885 7.64844 15.984 7.64844 16.3485V33.6614Z" fill="#2770F8" fill-opacity="0.2" stroke="#2770F8" stroke-opacity="0.7" stroke-width="0.495" stroke-dasharray="2.64 0.66"/>
<g id="Frame 113" filter="url(#filter5_dd_366_874)">
<path d="M33.5938 8.22847C33.5938 7.35365 34.3029 6.64447 35.1778 6.64447H112.234C113.109 6.64447 113.818 7.35365 113.818 8.22847V20.2845C113.818 21.1593 113.109 21.8685 112.234 21.8685H35.1777C34.3029 21.8685 33.5938 21.1593 33.5938 20.2845V8.22847Z" fill="#D8EAFF" shape-rendering="crispEdges"/>
<path d="M35.1777 6.90814H112.233C112.962 6.90814 113.554 7.49945 113.554 8.22845V20.2841C113.554 21.0131 112.962 21.6044 112.233 21.6044H35.1777C34.4487 21.6044 33.8574 21.0131 33.8574 20.2841V8.22845C33.8574 7.49945 34.4487 6.90815 35.1777 6.90814Z" stroke="black" stroke-opacity="0.58" stroke-width="0.528" style="mix-blend-mode:overlay" shape-rendering="crispEdges"/>
<path id="subjects.active_2" d="M39.9385 13.5378H39.2035C39.1979 13.3181 39.1134 13.1435 38.9501 13.014C38.7924 12.8845 38.5812 12.8197 38.3165 12.8197C38.0293 12.8197 37.7955 12.8788 37.6153 12.9971C37.4407 13.1154 37.3534 13.2731 37.3534 13.4702C37.3534 13.6279 37.4069 13.7546 37.5139 13.8504C37.6209 13.9461 37.7786 14.0221 37.987 14.0785L38.9923 14.3403C39.364 14.4361 39.6428 14.5797 39.8287 14.7712C40.0202 14.957 40.1159 15.2077 40.1159 15.5231C40.1159 15.9511 39.9582 16.289 39.6428 16.5368C39.3274 16.7846 38.8938 16.9085 38.3418 16.9085C37.1816 16.9085 36.5762 16.4101 36.5255 15.4132H37.2689C37.3027 15.7117 37.4097 15.9314 37.59 16.0722C37.7758 16.213 38.0321 16.2834 38.3587 16.2834C38.6741 16.2834 38.9247 16.2271 39.1106 16.1144C39.3021 16.0018 39.3978 15.8413 39.3978 15.6329C39.3978 15.4414 39.3471 15.2978 39.2458 15.202C39.1444 15.1063 38.9726 15.0274 38.7304 14.9655L37.8012 14.7205C37.4013 14.6135 37.1056 14.4699 36.9141 14.2897C36.7283 14.1038 36.6353 13.8419 36.6353 13.504C36.6353 13.1041 36.7874 12.7859 37.0915 12.5494C37.4013 12.3128 37.8152 12.1945 38.3334 12.1945C38.8515 12.1945 39.2458 12.3156 39.5161 12.5578C39.7921 12.7944 39.9329 13.121 39.9385 13.5378ZM45.1354 12.3297V16.7565H44.5018V16.0975C44.2991 16.3904 44.0822 16.5988 43.8513 16.7227C43.626 16.8466 43.3501 16.9085 43.0234 16.9085C42.6348 16.9085 42.3166 16.8212 42.0688 16.6466C41.7647 16.427 41.6126 16.1116 41.6126 15.7005V12.3297H42.3138V15.4217C42.3138 15.7202 42.4123 15.9455 42.6095 16.0975C42.7728 16.2271 42.9784 16.2918 43.2262 16.2918C43.5584 16.2918 43.8372 16.1707 44.0625 15.9286C44.3103 15.6639 44.4342 15.2837 44.4342 14.7881V12.3297H45.1354ZM46.5476 16.7565V10.5979H47.2488V12.9211C47.5698 12.4367 48.026 12.1945 48.6174 12.1945C49.051 12.1945 49.4059 12.2987 49.6818 12.5071C49.9634 12.7099 50.1718 12.9858 50.307 13.335C50.4421 13.6842 50.5097 14.0728 50.5097 14.5009C50.5097 14.9514 50.4365 15.3597 50.2901 15.7258C50.1436 16.0919 49.9268 16.3819 49.6396 16.596C49.358 16.8043 49.006 16.9085 48.5836 16.9085C47.981 16.9085 47.5135 16.6551 47.1812 16.1482V16.7565H46.5476ZM48.4907 12.8535C48.1922 12.8535 47.95 12.938 47.7641 13.1069C47.5839 13.2759 47.4515 13.4927 47.3671 13.7574C47.2882 14.0165 47.2488 14.2897 47.2488 14.5769C47.2488 14.8529 47.2882 15.1204 47.3671 15.3794C47.4515 15.6329 47.5839 15.8413 47.7641 16.0046C47.95 16.1679 48.1922 16.2496 48.4907 16.2496C48.7891 16.2496 49.0313 16.1707 49.2172 16.013C49.4087 15.8553 49.5495 15.6498 49.6396 15.3963C49.7353 15.1373 49.7832 14.8641 49.7832 14.5769C49.7832 14.2671 49.7353 13.9827 49.6396 13.7236C49.5495 13.4646 49.4087 13.2562 49.2172 13.0985C49.0257 12.9352 48.7835 12.8535 48.4907 12.8535ZM53.6031 11.6961V10.8513H54.4479V11.6961H53.6031ZM53.6707 17.0521V12.9042H51.8966V12.3297H54.3718V17.2211C54.3718 17.6548 54.2367 17.9927 53.9663 18.2349C53.696 18.477 53.3018 18.5981 52.7836 18.5981C52.5921 18.5981 52.4063 18.5897 52.2261 18.5728C52.0458 18.5615 51.8797 18.5362 51.7276 18.4968V17.8801C51.9022 17.9138 52.0768 17.9364 52.2514 17.9476C52.4316 17.9645 52.5978 17.973 52.7498 17.973C53.0821 17.973 53.3187 17.8998 53.4595 17.7533C53.6003 17.6125 53.6707 17.3788 53.6707 17.0521ZM60.4558 15.3879C60.3826 15.8497 60.177 16.2186 59.8391 16.4946C59.5068 16.7705 59.0816 16.9085 58.5634 16.9085C58.1185 16.9085 57.7468 16.81 57.4483 16.6129C57.1498 16.4101 56.9245 16.1341 56.7725 15.7849C56.626 15.4358 56.5528 15.0359 56.5528 14.5853C56.5528 14.0897 56.6373 13.6645 56.8063 13.3097C56.9752 12.9549 57.2118 12.6817 57.5159 12.4902C57.82 12.2931 58.1748 12.1945 58.5803 12.1945C59.0365 12.1945 59.4082 12.3016 59.6955 12.5156C59.9883 12.7296 60.2024 13.0281 60.3375 13.4111C60.4783 13.794 60.5487 14.2418 60.5487 14.7543H57.2878C57.2991 15.188 57.4117 15.5484 57.6257 15.8356C57.8397 16.1172 58.1608 16.258 58.5888 16.258C59.1689 16.258 59.5547 15.968 59.7462 15.3879H60.4558ZM58.5719 12.845C58.1776 12.845 57.8763 12.9746 57.668 13.2337C57.4596 13.4927 57.3385 13.8081 57.3047 14.1798H59.7884C59.7884 13.932 59.7377 13.7096 59.6363 13.5124C59.5406 13.3097 59.4026 13.1492 59.2224 13.0309C59.0422 12.907 58.8253 12.845 58.5719 12.845ZM65.4753 13.7912H64.7657C64.7262 13.4984 64.6136 13.2674 64.4277 13.0985C64.2419 12.9295 63.9941 12.845 63.6843 12.845C63.3802 12.845 63.1352 12.9295 62.9493 13.0985C62.7635 13.2674 62.6283 13.4871 62.5438 13.7574C62.4594 14.0221 62.4171 14.3009 62.4171 14.5938C62.4171 14.8866 62.4622 15.1598 62.5523 15.4132C62.6424 15.6667 62.7832 15.8722 62.9747 16.0299C63.1662 16.182 63.4083 16.258 63.7012 16.258C64.3264 16.258 64.6981 15.9089 64.8163 15.2105H65.526C65.4809 15.7399 65.2979 16.1567 64.9769 16.4608C64.6615 16.7593 64.2306 16.9085 63.6843 16.9085C63.2563 16.9085 62.893 16.8072 62.5945 16.6044C62.296 16.396 62.0679 16.1172 61.9102 15.7681C61.7582 15.4189 61.6821 15.0274 61.6821 14.5938C61.6821 14.1489 61.7582 13.7462 61.9102 13.3857C62.0623 13.0253 62.2876 12.738 62.5861 12.524C62.8846 12.3044 63.2535 12.1945 63.6928 12.1945C64.2334 12.1945 64.6615 12.3438 64.9769 12.6423C65.2979 12.9408 65.464 13.3238 65.4753 13.7912ZM68.67 12.3297H70.4103V12.9042H68.67V15.371C68.67 15.6977 68.7545 15.9257 68.9235 16.0553C69.0924 16.1792 69.3374 16.2411 69.6584 16.2411C69.8049 16.2411 69.94 16.2355 70.0639 16.2242C70.1878 16.2073 70.3033 16.1848 70.4103 16.1567V16.7734C70.2695 16.8128 70.1315 16.8381 69.9964 16.8494C69.8612 16.8663 69.7345 16.8747 69.6162 16.8747C69.0812 16.8747 68.6728 16.7649 68.3912 16.5453C68.1096 16.3256 67.9688 15.9764 67.9688 15.4977V12.9042H66.6932V12.3297H67.9688V11.1132H68.67V12.3297ZM75.3115 13.5378H74.5766C74.5709 13.3181 74.4864 13.1435 74.3231 13.014C74.1654 12.8845 73.9542 12.8197 73.6895 12.8197C73.4023 12.8197 73.1686 12.8788 72.9883 12.9971C72.8137 13.1154 72.7264 13.2731 72.7264 13.4702C72.7264 13.6279 72.78 13.7546 72.887 13.8504C72.994 13.9461 73.1517 14.0221 73.36 14.0785L74.3654 14.3403C74.7371 14.4361 75.0159 14.5797 75.2017 14.7712C75.3932 14.957 75.4889 15.2077 75.4889 15.5231C75.4889 15.9511 75.3312 16.289 75.0159 16.5368C74.7005 16.7846 74.2668 16.9085 73.7149 16.9085C72.5547 16.9085 71.9492 16.4101 71.8985 15.4132H72.642C72.6758 15.7117 72.7828 15.9314 72.963 16.0722C73.1488 16.213 73.4051 16.2834 73.7318 16.2834C74.0472 16.2834 74.2978 16.2271 74.4836 16.1144C74.6751 16.0018 74.7709 15.8413 74.7709 15.6329C74.7709 15.4414 74.7202 15.2978 74.6188 15.202C74.5174 15.1063 74.3456 15.0274 74.1035 14.9655L73.1742 14.7205C72.7743 14.6135 72.4786 14.4699 72.2872 14.2897C72.1013 14.1038 72.0084 13.8419 72.0084 13.504C72.0084 13.1041 72.1604 12.7859 72.4646 12.5494C72.7743 12.3128 73.1883 12.1945 73.7064 12.1945C74.2246 12.1945 74.6188 12.3156 74.8891 12.5578C75.1651 12.7944 75.3059 13.121 75.3115 13.5378ZM78.1683 15.6075H79.3173V16.7565H78.1683V15.6075ZM85.9926 16.2918V16.8241C85.818 16.8747 85.6772 16.9001 85.5702 16.9001C85.0971 16.9001 84.8352 16.6776 84.7845 16.2327C84.5367 16.4749 84.2945 16.6495 84.058 16.7565C83.8214 16.8578 83.5624 16.9085 83.2808 16.9085C82.8527 16.9085 82.5036 16.7959 82.2332 16.5706C81.9685 16.3397 81.8362 16.0187 81.8362 15.6075C81.8362 15.3034 81.9009 15.0612 82.0305 14.881C82.16 14.6952 82.3177 14.5572 82.5036 14.4671C82.695 14.3713 82.8753 14.3094 83.0442 14.2812C83.1231 14.2699 83.2442 14.253 83.4075 14.2305C83.5708 14.2024 83.7764 14.1714 84.0242 14.1376C84.3058 14.0982 84.5001 14.0447 84.6071 13.9771C84.7197 13.9095 84.7761 13.8053 84.7761 13.6645V13.5124C84.7761 13.0731 84.4381 12.8535 83.7623 12.8535C83.4357 12.8535 83.1878 12.9183 83.0189 13.0478C82.8556 13.1717 82.7598 13.3688 82.7317 13.6392H82.022C82.0333 13.1266 82.1994 12.7606 82.5205 12.5409C82.8471 12.3156 83.2723 12.203 83.7961 12.203C84.3424 12.203 84.7564 12.3072 85.038 12.5156C85.3196 12.7183 85.4604 13.0168 85.4604 13.4111V15.9624C85.4604 16.1933 85.5871 16.3087 85.8405 16.3087C85.8856 16.3087 85.9363 16.3031 85.9926 16.2918ZM84.7761 15.2189V14.5177C84.6296 14.5853 84.4466 14.6388 84.2269 14.6783C84.0129 14.7177 83.813 14.7487 83.6271 14.7712C83.3005 14.8106 83.0386 14.8866 82.8415 14.9993C82.65 15.1119 82.5542 15.309 82.5542 15.5906C82.5542 15.8103 82.6331 15.9821 82.7908 16.106C82.9541 16.2299 83.1766 16.2918 83.4582 16.2918C83.6666 16.2918 83.8693 16.2468 84.0664 16.1567C84.2692 16.0609 84.4381 15.9314 84.5733 15.7681C84.7085 15.6047 84.7761 15.4217 84.7761 15.2189ZM90.7417 13.7912H90.0321C89.9927 13.4984 89.88 13.2674 89.6942 13.0985C89.5083 12.9295 89.2605 12.845 88.9508 12.845C88.6466 12.845 88.4016 12.9295 88.2158 13.0985C88.0299 13.2674 87.8948 13.4871 87.8103 13.7574C87.7258 14.0221 87.6836 14.3009 87.6836 14.5938C87.6836 14.8866 87.7286 15.1598 87.8187 15.4132C87.9088 15.6667 88.0496 15.8722 88.2411 16.0299C88.4326 16.182 88.6748 16.258 88.9677 16.258C89.5928 16.258 89.9645 15.9089 90.0828 15.2105H90.7924C90.7474 15.7399 90.5643 16.1567 90.2433 16.4608C89.9279 16.7593 89.4971 16.9085 88.9508 16.9085C88.5227 16.9085 88.1595 16.8072 87.861 16.6044C87.5625 16.396 87.3344 16.1172 87.1767 15.7681C87.0246 15.4189 86.9486 15.0274 86.9486 14.5938C86.9486 14.1489 87.0246 13.7462 87.1767 13.3857C87.3288 13.0253 87.554 12.738 87.8525 12.524C88.151 12.3044 88.5199 12.1945 88.9592 12.1945C89.4999 12.1945 89.9279 12.3438 90.2433 12.6423C90.5643 12.9408 90.7305 13.3238 90.7417 13.7912ZM93.9365 12.3297H95.6768V12.9042H93.9365V15.371C93.9365 15.6977 94.021 15.9257 94.1899 16.0553C94.3589 16.1792 94.6039 16.2411 94.9249 16.2411C95.0713 16.2411 95.2065 16.2355 95.3304 16.2242C95.4543 16.2073 95.5698 16.1848 95.6768 16.1567V16.7734C95.536 16.8128 95.398 16.8381 95.2628 16.8494C95.1276 16.8663 95.0009 16.8747 94.8826 16.8747C94.3476 16.8747 93.9393 16.7649 93.6577 16.5453C93.3761 16.3256 93.2353 15.9764 93.2353 15.4977V12.9042H91.9596V12.3297H93.2353V11.1132H93.9365V12.3297ZM98.6096 11.6961V10.8513H99.4544V11.6961H98.6096ZM99.3784 12.3297V16.182H100.738V16.7565H97.165V16.182H98.6856V12.9042H97.165V12.3297H99.3784ZM106.02 12.3297L104.398 16.7565H103.621L101.999 12.3297H102.751L104.026 15.9117L105.293 12.3297H106.02ZM110.989 15.3879C110.915 15.8497 110.71 16.2186 110.372 16.4946C110.04 16.7705 109.614 16.9085 109.096 16.9085C108.651 16.9085 108.28 16.81 107.981 16.6129C107.683 16.4101 107.457 16.1341 107.305 15.7849C107.159 15.4358 107.086 15.0359 107.086 14.5853C107.086 14.0897 107.17 13.6645 107.339 13.3097C107.508 12.9549 107.745 12.6817 108.049 12.4902C108.353 12.2931 108.708 12.1945 109.113 12.1945C109.569 12.1945 109.941 12.3016 110.228 12.5156C110.521 12.7296 110.735 13.0281 110.87 13.4111C111.011 13.794 111.082 14.2418 111.082 14.7543H107.821C107.832 15.188 107.945 15.5484 108.159 15.8356C108.373 16.1172 108.694 16.258 109.122 16.258C109.702 16.258 110.088 15.968 110.279 15.3879H110.989ZM109.105 12.845C108.711 12.845 108.409 12.9746 108.201 13.2337C107.992 13.4927 107.871 13.8081 107.838 14.1798H110.321C110.321 13.932 110.271 13.7096 110.169 13.5124C110.073 13.3097 109.936 13.1492 109.755 13.0309C109.575 12.907 109.358 12.845 109.105 12.845Z" fill="#16478F"/>
</g>
</g>
<g id="tabs-order">
<path id="Vector 84" d="M222.983 28.7485C223.176 28.5551 223.176 28.2417 222.983 28.0484L219.833 24.8983C219.639 24.7049 219.326 24.7049 219.133 24.8983C218.939 25.0916 218.939 25.405 219.133 25.5983L221.933 28.3984L219.133 31.1986C218.939 31.3919 218.939 31.7053 219.133 31.8986C219.326 32.0919 219.639 32.0919 219.833 31.8986L222.983 28.7485ZM7.06934 28.3984L7.06934 28.8934L8.73263 28.8934L8.73263 28.3984L8.73263 27.9034L7.06934 27.9034L7.06934 28.3984ZM9.39795 28.3984L9.39795 28.8934L12.7245 28.8934L12.7245 28.3984L12.7245 27.9034L9.39795 27.9034V28.3984ZM13.3899 28.3984V28.8934L16.7165 28.8934L16.7165 28.3984V27.9034L13.3899 27.9034L13.3899 28.3984ZM17.3818 28.3984V28.8934L20.7084 28.8934V28.3984V27.9034L17.3818 27.9034L17.3818 28.3984ZM21.3737 28.3984L21.3737 28.8934L24.7003 28.8934L24.7003 28.3984L24.7003 27.9034L21.3737 27.9034V28.3984ZM25.3656 28.3984L25.3656 28.8934L28.6922 28.8934L28.6922 28.3984L28.6922 27.9034L25.3656 27.9034L25.3656 28.3984ZM29.3575 28.3984L29.3575 28.8934L32.6841 28.8934V28.3984L32.6841 27.9034L29.3575 27.9034L29.3575 28.3984ZM33.3494 28.3984L33.3494 28.8934L36.676 28.8934L36.676 28.3984V27.9034L33.3494 27.9034L33.3494 28.3984ZM37.3414 28.3984L37.3414 28.8934L40.6679 28.8934V28.3984V27.9034L37.3414 27.9034V28.3984ZM41.3333 28.3984V28.8934L44.6599 28.8934V28.3984V27.9034L41.3333 27.9034V28.3984ZM45.3252 28.3984V28.8934L48.6518 28.8934V28.3984V27.9034L45.3252 27.9034V28.3984ZM49.3171 28.3984V28.8934L52.6437 28.8934V28.3984V27.9034L49.3171 27.9034V28.3984ZM53.309 28.3984V28.8934L56.6356 28.8934V28.3984V27.9034L53.309 27.9034V28.3984ZM57.3009 28.3984V28.8934L60.6275 28.8934V28.3984V27.9034L57.3009 27.9034V28.3984ZM61.2928 28.3984V28.8934L64.6194 28.8934V28.3984V27.9034L61.2928 27.9034V28.3984ZM65.2847 28.3984V28.8934L68.6113 28.8934V28.3984V27.9034L65.2847 27.9034V28.3984ZM69.2767 28.3984V28.8934L72.6033 28.8934V28.3984V27.9034L69.2767 27.9034V28.3984ZM73.2686 28.3984V28.8934L76.5952 28.8934V28.3984V27.9034L73.2686 27.9034V28.3984ZM77.2605 28.3984V28.8934L80.5871 28.8934V28.3984V27.9034L77.2605 27.9034V28.3984ZM81.2524 28.3984V28.8934L84.579 28.8934V28.3984V27.9034L81.2524 27.9034V28.3984ZM85.2443 28.3984V28.8934L88.5709 28.8934V28.3984V27.9034L85.2443 27.9034V28.3984ZM89.2362 28.3984V28.8934L92.5628 28.8934V28.3984V27.9034L89.2362 27.9034V28.3984ZM93.2281 28.3984V28.8934L96.5547 28.8934V28.3984V27.9034L93.2281 27.9034V28.3984ZM97.22 28.3984V28.8934L100.547 28.8934V28.3984V27.9034L97.22 27.9034V28.3984ZM101.212 28.3984V28.8934L104.539 28.8934V28.3984V27.9034L101.212 27.9034V28.3984ZM105.204 28.3984V28.8934L108.53 28.8934V28.3984V27.9034L105.204 27.9034V28.3984ZM109.196 28.3984V28.8934L112.522 28.8934V28.3984V27.9034L109.196 27.9034V28.3984ZM113.188 28.3984V28.8934L116.514 28.8934V28.3984V27.9034L113.188 27.9034V28.3984ZM117.18 28.3984V28.8934L120.506 28.8934V28.3984V27.9034L117.18 27.9034V28.3984ZM121.172 28.3984V28.8934L124.498 28.8934V28.3984V27.9034L121.172 27.9034V28.3984ZM125.163 28.3984V28.8934L128.49 28.8934V28.3984V27.9034L125.163 27.9034V28.3984ZM129.155 28.3984V28.8934L132.482 28.8934V28.3984V27.9034L129.155 27.9034V28.3984ZM133.147 28.3984V28.8934L136.474 28.8934V28.3984V27.9034L133.147 27.9034V28.3984ZM137.139 28.3984V28.8934L140.466 28.8934V28.3984V27.9034L137.139 27.9034V28.3984ZM141.131 28.3984V28.8934L144.458 28.8934V28.3984V27.9034L141.131 27.9034V28.3984ZM145.123 28.3984V28.8934L148.45 28.8934V28.3984V27.9034L145.123 27.9034V28.3984ZM149.115 28.3984V28.8934L152.442 28.8934V28.3984V27.9034L149.115 27.9034V28.3984ZM153.107 28.3984V28.8934L156.433 28.8934V28.3984V27.9034L153.107 27.9034V28.3984ZM157.099 28.3984V28.8934L160.425 28.8934V28.3984V27.9034L157.099 27.9034V28.3984ZM161.091 28.3984V28.8934L164.417 28.8934V28.3984V27.9034L161.091 27.9034V28.3984ZM165.083 28.3984V28.8934L168.409 28.8934V28.3984V27.9034L165.083 27.9034V28.3984ZM169.074 28.3984V28.8934L172.401 28.8934V28.3984V27.9034L169.074 27.9034V28.3984ZM173.066 28.3984V28.8934L176.393 28.8934V28.3984V27.9034L173.066 27.9034V28.3984ZM177.058 28.3984V28.8934L180.385 28.8934V28.3984V27.9034L177.058 27.9034V28.3984ZM181.05 28.3984V28.8934L184.377 28.8934V28.3984V27.9034L181.05 27.9034V28.3984ZM185.042 28.3984V28.8934L188.369 28.8934V28.3984V27.9034L185.042 27.9034V28.3984ZM189.034 28.3984V28.8934L192.361 28.8934V28.3984V27.9034L189.034 27.9034V28.3984ZM193.026 28.3984V28.8934L196.353 28.8934V28.3984V27.9034L193.026 27.9034V28.3984ZM197.018 28.3984V28.8934L200.344 28.8934V28.3984V27.9034L197.018 27.9034V28.3984ZM201.01 28.3984V28.8934L204.336 28.8934V28.3984V27.9034L201.01 27.9034V28.3984ZM205.002 28.3984V28.8934L208.328 28.8934V28.3984V27.9034L205.002 27.9034V28.3984ZM208.994 28.3984V28.8934L212.32 28.8934V28.3984V27.9034L208.994 27.9034V28.3984ZM212.986 28.3984V28.8934L216.312 28.8934V28.3984V27.9034L212.986 27.9034V28.3984ZM216.977 28.3984V28.8934L220.304 28.8934V28.3984V27.9034L216.977 27.9034V28.3984ZM220.969 28.3984V28.8934L222.633 28.8934V28.3984V27.9034L220.969 27.9034V28.3984Z" fill="#165DC7" fill-opacity="0.7"/>
<g id="Frame 118" filter="url(#filter6_dd_366_874)">
<path d="M150.785 45.2916C150.785 44.4168 151.494 43.7076 152.369 43.7076H204.425C205.3 43.7076 206.009 44.4168 206.009 45.2916V57.3476C206.009 58.2225 205.3 58.9316 204.425 58.9316H152.369C151.494 58.9316 150.785 58.2225 150.785 57.3476V45.2916Z" fill="#D8EAFF" shape-rendering="crispEdges"/>
<path d="M152.369 43.9713H204.425C205.154 43.9713 205.745 44.5626 205.745 45.2916V57.3473C205.745 58.0763 205.154 58.6676 204.425 58.6676H152.369C151.64 58.6676 151.049 58.0763 151.049 57.3473V45.2916C151.049 44.5626 151.64 43.9713 152.369 43.9713Z" stroke="black" stroke-opacity="0.58" stroke-width="0.528" style="mix-blend-mode:overlay" shape-rendering="crispEdges"/>
<path id="tabs-order_2" d="M155.542 49.3929H157.282V49.9674H155.542V52.4342C155.542 52.7608 155.626 52.9889 155.795 53.1185C155.964 53.2424 156.209 53.3043 156.53 53.3043C156.677 53.3043 156.812 53.2987 156.936 53.2874C157.06 53.2705 157.175 53.248 157.282 53.2198V53.8365C157.141 53.876 157.003 53.9013 156.868 53.9126C156.733 53.9295 156.606 53.9379 156.488 53.9379C155.953 53.9379 155.545 53.8281 155.263 53.6084C154.981 53.3888 154.841 53.0396 154.841 52.5609V49.9674H153.565V49.3929H154.841V48.1764H155.542V49.3929ZM162.758 53.355V53.8872C162.583 53.9379 162.442 53.9633 162.335 53.9633C161.862 53.9633 161.6 53.7408 161.55 53.2959C161.302 53.538 161.06 53.7126 160.823 53.8196C160.587 53.921 160.327 53.9717 160.046 53.9717C159.618 53.9717 159.269 53.8591 158.998 53.6338C158.734 53.4029 158.601 53.0818 158.601 52.6707C158.601 52.3666 158.666 52.1244 158.796 51.9442C158.925 51.7583 159.083 51.6203 159.269 51.5302C159.46 51.4345 159.64 51.3725 159.809 51.3444C159.888 51.3331 160.009 51.3162 160.173 51.2937C160.336 51.2655 160.541 51.2346 160.789 51.2008C161.071 51.1613 161.265 51.1078 161.372 51.0402C161.485 50.9727 161.541 50.8685 161.541 50.7277V50.5756C161.541 50.1363 161.203 49.9167 160.527 49.9167C160.201 49.9167 159.953 49.9814 159.784 50.111C159.621 50.2349 159.525 50.432 159.497 50.7023H158.787C158.798 50.1898 158.965 49.8237 159.286 49.6041C159.612 49.3788 160.037 49.2662 160.561 49.2662C161.107 49.2662 161.521 49.3704 161.803 49.5787C162.085 49.7815 162.225 50.08 162.225 50.4742V53.0255C162.225 53.2564 162.352 53.3719 162.606 53.3719C162.651 53.3719 162.701 53.3663 162.758 53.355ZM161.541 52.2821V51.5809C161.395 51.6485 161.212 51.702 160.992 51.7414C160.778 51.7809 160.578 51.8118 160.392 51.8344C160.066 51.8738 159.804 51.9498 159.607 52.0625C159.415 52.1751 159.319 52.3722 159.319 52.6538C159.319 52.8735 159.398 53.0452 159.556 53.1691C159.719 53.293 159.942 53.355 160.223 53.355C160.432 53.355 160.634 53.3099 160.832 53.2198C161.034 53.1241 161.203 52.9946 161.338 52.8312C161.474 52.6679 161.541 52.4849 161.541 52.2821ZM163.739 53.8196V47.661H164.44V49.9842C164.761 49.4999 165.217 49.2577 165.809 49.2577C166.242 49.2577 166.597 49.3619 166.873 49.5703C167.155 49.773 167.363 50.049 167.498 50.3982C167.634 50.7474 167.701 51.136 167.701 51.564C167.701 52.0146 167.628 52.4229 167.481 52.789C167.335 53.1551 167.118 53.4451 166.831 53.6591C166.549 53.8675 166.197 53.9717 165.775 53.9717C165.172 53.9717 164.705 53.7183 164.373 53.2114V53.8196H163.739ZM165.682 49.9167C165.384 49.9167 165.141 50.0011 164.956 50.1701C164.775 50.3391 164.643 50.5559 164.558 50.8206C164.48 51.0797 164.44 51.3528 164.44 51.6401C164.44 51.916 164.48 52.1835 164.558 52.4426C164.643 52.6961 164.775 52.9044 164.956 53.0678C165.141 53.2311 165.384 53.3128 165.682 53.3128C165.981 53.3128 166.223 53.2339 166.409 53.0762C166.6 52.9185 166.741 52.713 166.831 52.4595C166.927 52.2004 166.975 51.9273 166.975 51.6401C166.975 51.3303 166.927 51.0459 166.831 50.7868C166.741 50.5277 166.6 50.3194 166.409 50.1617C166.217 49.9983 165.975 49.9167 165.682 49.9167ZM172.29 50.601H171.555C171.549 50.3813 171.465 50.2067 171.301 50.0772C171.144 49.9476 170.932 49.8829 170.668 49.8829C170.381 49.8829 170.147 49.942 169.967 50.0603C169.792 50.1786 169.705 50.3362 169.705 50.5334C169.705 50.6911 169.758 50.8178 169.865 50.9135C169.972 51.0093 170.13 51.0853 170.338 51.1416L171.344 51.4035C171.715 51.4993 171.994 51.6429 172.18 51.8344C172.371 52.0202 172.467 52.2708 172.467 52.5862C172.467 53.0143 172.309 53.3522 171.994 53.6C171.679 53.8478 171.245 53.9717 170.693 53.9717C169.533 53.9717 168.927 53.4733 168.877 52.4764H169.62C169.654 52.7749 169.761 52.9946 169.941 53.1354C170.127 53.2762 170.383 53.3466 170.71 53.3466C171.025 53.3466 171.276 53.2902 171.462 53.1776C171.653 53.065 171.749 52.9044 171.749 52.6961C171.749 52.5046 171.698 52.361 171.597 52.2652C171.496 52.1695 171.324 52.0906 171.082 52.0287L170.152 51.7837C169.753 51.6767 169.457 51.533 169.265 51.3528C169.08 51.167 168.987 50.9051 168.987 50.5672C168.987 50.1673 169.139 49.8491 169.443 49.6125C169.753 49.376 170.167 49.2577 170.685 49.2577C171.203 49.2577 171.597 49.3788 171.867 49.621C172.143 49.8575 172.284 50.1842 172.29 50.601ZM174.124 50.7953H177.318V51.4035H174.124V50.7953ZM180.774 49.2577C181.231 49.2577 181.605 49.3619 181.898 49.5703C182.196 49.773 182.416 50.0518 182.557 50.4066C182.703 50.7615 182.777 51.1642 182.777 51.6147C182.777 52.0596 182.703 52.4623 182.557 52.8228C182.416 53.1776 182.196 53.4592 181.898 53.6676C181.605 53.8703 181.231 53.9717 180.774 53.9717C180.324 53.9717 179.949 53.8703 179.651 53.6676C179.352 53.4592 179.13 53.1776 178.983 52.8228C178.843 52.4623 178.772 52.0596 178.772 51.6147C178.772 51.1642 178.843 50.7615 178.983 50.4066C179.13 50.0518 179.352 49.773 179.651 49.5703C179.949 49.3619 180.324 49.2577 180.774 49.2577ZM180.774 49.9082C180.476 49.9082 180.234 49.9871 180.048 50.1448C179.862 50.3025 179.724 50.5108 179.634 50.7699C179.549 51.029 179.507 51.3106 179.507 51.6147C179.507 51.9132 179.549 52.1948 179.634 52.4595C179.724 52.7186 179.862 52.927 180.048 53.0847C180.234 53.2424 180.476 53.3212 180.774 53.3212C181.073 53.3212 181.315 53.2424 181.501 53.0847C181.687 52.927 181.822 52.7186 181.906 52.4595C181.996 52.1948 182.042 51.9132 182.042 51.6147C182.042 51.3106 181.996 51.029 181.906 50.7699C181.822 50.5108 181.687 50.3025 181.501 50.1448C181.315 49.9871 181.073 49.9082 180.774 49.9082ZM184.265 53.8196V49.3929H184.915V50.3475C185.062 50.0321 185.273 49.773 185.549 49.5703C185.825 49.3675 186.143 49.2662 186.503 49.2662C187.01 49.2662 187.396 49.3957 187.661 49.6548C187.931 49.9138 188.086 50.263 188.125 50.7023H187.424C187.374 50.4376 187.269 50.2349 187.112 50.0941C186.96 49.9533 186.734 49.8829 186.436 49.8829C186.143 49.8829 185.887 49.9617 185.667 50.1194C185.447 50.2715 185.276 50.4827 185.152 50.753C185.034 51.0177 184.974 51.3247 184.974 51.6738V53.8196H184.265ZM192.055 47.661H192.756V53.8196H192.131V53.1945C191.776 53.7126 191.306 53.9717 190.72 53.9717C190.287 53.9717 189.926 53.8675 189.639 53.6591C189.352 53.4451 189.138 53.1551 188.997 52.789C188.862 52.4229 188.794 52.0146 188.794 51.564C188.794 51.136 188.865 50.7502 189.005 50.4066C189.146 50.0575 189.357 49.7787 189.639 49.5703C189.926 49.3619 190.278 49.2577 190.695 49.2577C191.298 49.2577 191.751 49.4858 192.055 49.942V47.661ZM190.813 49.9167C190.537 49.9167 190.304 49.9927 190.112 50.1448C189.921 50.2912 189.774 50.4939 189.673 50.753C189.577 51.0065 189.529 51.2937 189.529 51.6147C189.529 51.9132 189.574 52.192 189.664 52.4511C189.755 52.7101 189.893 52.9185 190.078 53.0762C190.27 53.2339 190.518 53.3128 190.822 53.3128C191.12 53.3128 191.36 53.2311 191.54 53.0678C191.72 52.8988 191.85 52.6876 191.928 52.4342C192.013 52.1751 192.055 51.9104 192.055 51.6401C192.055 51.3416 192.013 51.0628 191.928 50.8037C191.844 50.539 191.712 50.325 191.531 50.1617C191.351 49.9983 191.112 49.9167 190.813 49.9167ZM197.86 52.4511C197.787 52.9129 197.582 53.2818 197.244 53.5578C196.911 53.8337 196.486 53.9717 195.968 53.9717C195.523 53.9717 195.151 53.8731 194.853 53.676C194.554 53.4733 194.329 53.1973 194.177 52.8481C194.031 52.4989 193.957 52.0991 193.957 51.6485C193.957 51.1529 194.042 50.7277 194.211 50.3729C194.38 50.018 194.616 49.7449 194.92 49.5534C195.225 49.3563 195.579 49.2577 195.985 49.2577C196.441 49.2577 196.813 49.3647 197.1 49.5787C197.393 49.7928 197.607 50.0913 197.742 50.4742C197.883 50.8572 197.953 51.305 197.953 51.8175H194.692C194.704 52.2511 194.816 52.6116 195.03 52.8988C195.244 53.1804 195.565 53.3212 195.993 53.3212C196.573 53.3212 196.959 53.0312 197.151 52.4511H197.86ZM195.976 49.9082C195.582 49.9082 195.281 50.0378 195.073 50.2968C194.864 50.5559 194.743 50.8713 194.709 51.243H197.193C197.193 50.9952 197.142 50.7727 197.041 50.5756C196.945 50.3729 196.807 50.2123 196.627 50.0941C196.447 49.9702 196.23 49.9082 195.976 49.9082ZM199.425 53.8196V49.3929H200.075V50.3475C200.222 50.0321 200.433 49.773 200.709 49.5703C200.985 49.3675 201.303 49.2662 201.663 49.2662C202.17 49.2662 202.556 49.3957 202.821 49.6548C203.091 49.9138 203.246 50.263 203.285 50.7023H202.584C202.533 50.4376 202.429 50.2349 202.272 50.0941C202.12 49.9533 201.894 49.8829 201.596 49.8829C201.303 49.8829 201.047 49.9617 200.827 50.1194C200.607 50.2715 200.436 50.4827 200.312 50.753C200.193 51.0177 200.134 51.3247 200.134 51.6738V53.8196H199.425Z" fill="#16478F"/>
</g>
<path id="Arrow 71" opacity="0.5" d="M178.307 30.0079L178.307 42.7481" stroke="#165DC7" stroke-width="0.99" stroke-dasharray="3.83 0.77"/>
</g>
</g>
<defs>
<filter id="filter0_dd_366_874" x="228.974" y="203.823" width="61.734" height="26.7344" filterUnits="userSpaceOnUse" color-interpolation-filters="sRGB">
<feFlood flood-opacity="0" result="BackgroundImageFix"/>
<feColorMatrix in="SourceAlpha" type="matrix" values="0 0 0 0 0 0 0 0 0 0 0 0 0 0 0 0 0 0 127 0" result="hardAlpha"/>
<feOffset/>
<feGaussianBlur stdDeviation="2.8776"/>
<feComposite in2="hardAlpha" operator="out"/>
<feColorMatrix type="matrix" values="0 0 0 0 0 0 0 0 0 0 0 0 0 0 0 0 0 0 0.08 0"/>
<feBlend mode="normal" in2="BackgroundImageFix" result="effect1_dropShadow_366_874"/>
<feColorMatrix in="SourceAlpha" type="matrix" values="0 0 0 0 0 0 0 0 0 0 0 0 0 0 0 0 0 0 127 0" result="hardAlpha"/>
<feOffset dy="1.056"/>
<feGaussianBlur stdDeviation="1.8744"/>
<feComposite in2="hardAlpha" operator="out"/>
<feColorMatrix type="matrix" values="0 0 0 0 0 0 0 0 0 0 0 0 0 0 0 0 0 0 0.07 0"/>
<feBlend mode="normal" in2="effect1_dropShadow_366_874" result="effect2_dropShadow_366_874"/>
<feBlend mode="normal" in="SourceGraphic" in2="effect2_dropShadow_366_874" result="shape"/>
</filter>
<filter id="filter1_dd_366_874" x="9.02898" y="203.823" width="117.734" height="26.7344" filterUnits="userSpaceOnUse" color-interpolation-filters="sRGB">
<feFlood flood-opacity="0" result="BackgroundImageFix"/>
<feColorMatrix in="SourceAlpha" type="matrix" values="0 0 0 0 0 0 0 0 0 0 0 0 0 0 0 0 0 0 127 0" result="hardAlpha"/>
<feOffset/>
<feGaussianBlur stdDeviation="2.8776"/>
<feComposite in2="hardAlpha" operator="out"/>
<feColorMatrix type="matrix" values="0 0 0 0 0 0 0 0 0 0 0 0 0 0 0 0 0 0 0.08 0"/>
<feBlend mode="normal" in2="BackgroundImageFix" result="effect1_dropShadow_366_874"/>
<feColorMatrix in="SourceAlpha" type="matrix" values="0 0 0 0 0 0 0 0 0 0 0 0 0 0 0 0 0 0 127 0" result="hardAlpha"/>
<feOffset dy="1.056"/>
<feGaussianBlur stdDeviation="1.8744"/>
<feComposite in2="hardAlpha" operator="out"/>
<feColorMatrix type="matrix" values="0 0 0 0 0 0 0 0 0 0 0 0 0 0 0 0 0 0 0.07 0"/>
<feBlend mode="normal" in2="effect1_dropShadow_366_874" result="effect2_dropShadow_366_874"/>
<feBlend mode="normal" in="SourceGraphic" in2="effect2_dropShadow_366_874" result="shape"/>
</filter>
<filter id="filter2_dd_366_874" x="130.007" y="203.823" width="81.734" height="26.7344" filterUnits="userSpaceOnUse" color-interpolation-filters="sRGB">
<feFlood flood-opacity="0" result="BackgroundImageFix"/>
<feColorMatrix in="SourceAlpha" type="matrix" values="0 0 0 0 0 0 0 0 0 0 0 0 0 0 0 0 0 0 127 0" result="hardAlpha"/>
<feOffset/>
<feGaussianBlur stdDeviation="2.8776"/>
<feComposite in2="hardAlpha" operator="out"/>
<feColorMatrix type="matrix" values="0 0 0 0 0 0 0 0 0 0 0 0 0 0 0 0 0 0 0.08 0"/>
<feBlend mode="normal" in2="BackgroundImageFix" result="effect1_dropShadow_366_874"/>
<feColorMatrix in="SourceAlpha" type="matrix" values="0 0 0 0 0 0 0 0 0 0 0 0 0 0 0 0 0 0 127 0" result="hardAlpha"/>
<feOffset dy="1.056"/>
<feGaussianBlur stdDeviation="1.8744"/>
<feComposite in2="hardAlpha" operator="out"/>
<feColorMatrix type="matrix" values="0 0 0 0 0 0 0 0 0 0 0 0 0 0 0 0 0 0 0.07 0"/>
<feBlend mode="normal" in2="effect1_dropShadow_366_874" result="effect2_dropShadow_366_874"/>
<feBlend mode="normal" in="SourceGraphic" in2="effect2_dropShadow_366_874" result="shape"/>
</filter>
<filter id="filter3_dd_366_874" x="170.439" y="0.88927" width="56.734" height="26.7344" filterUnits="userSpaceOnUse" color-interpolation-filters="sRGB">
<feFlood flood-opacity="0" result="BackgroundImageFix"/>
<feColorMatrix in="SourceAlpha" type="matrix" values="0 0 0 0 0 0 0 0 0 0 0 0 0 0 0 0 0 0 127 0" result="hardAlpha"/>
<feOffset/>
<feGaussianBlur stdDeviation="2.8776"/>
<feComposite in2="hardAlpha" operator="out"/>
<feColorMatrix type="matrix" values="0 0 0 0 0 0 0 0 0 0 0 0 0 0 0 0 0 0 0.08 0"/>
<feBlend mode="normal" in2="BackgroundImageFix" result="effect1_dropShadow_366_874"/>
<feColorMatrix in="SourceAlpha" type="matrix" values="0 0 0 0 0 0 0 0 0 0 0 0 0 0 0 0 0 0 127 0" result="hardAlpha"/>
<feOffset dy="1.056"/>
<feGaussianBlur stdDeviation="1.8744"/>
<feComposite in2="hardAlpha" operator="out"/>
<feColorMatrix type="matrix" values="0 0 0 0 0 0 0 0 0 0 0 0 0 0 0 0 0 0 0.07 0"/>
<feBlend mode="normal" in2="effect1_dropShadow_366_874" result="effect2_dropShadow_366_874"/>
<feBlend mode="normal" in="SourceGraphic" in2="effect2_dropShadow_366_874" result="shape"/>
</filter>
<filter id="filter4_dd_366_874" x="223.859" y="20.7578" width="61.734" height="26.7344" filterUnits="userSpaceOnUse" color-interpolation-filters="sRGB">
<feFlood flood-opacity="0" result="BackgroundImageFix"/>
<feColorMatrix in="SourceAlpha" type="matrix" values="0 0 0 0 0 0 0 0 0 0 0 0 0 0 0 0 0 0 127 0" result="hardAlpha"/>
<feOffset/>
<feGaussianBlur stdDeviation="2.8776"/>
<feComposite in2="hardAlpha" operator="out"/>
<feColorMatrix type="matrix" values="0 0 0 0 0 0 0 0 0 0 0 0 0 0 0 0 0 0 0.08 0"/>
<feBlend mode="normal" in2="BackgroundImageFix" result="effect1_dropShadow_366_874"/>
<feColorMatrix in="SourceAlpha" type="matrix" values="0 0 0 0 0 0 0 0 0 0 0 0 0 0 0 0 0 0 127 0" result="hardAlpha"/>
<feOffset dy="1.056"/>
<feGaussianBlur stdDeviation="1.8744"/>
<feComposite in2="hardAlpha" operator="out"/>
<feColorMatrix type="matrix" values="0 0 0 0 0 0 0 0 0 0 0 0 0 0 0 0 0 0 0.07 0"/>
<feBlend mode="normal" in2="effect1_dropShadow_366_874" result="effect2_dropShadow_366_874"/>
<feBlend mode="normal" in="SourceGraphic" in2="effect2_dropShadow_366_874" result="shape"/>
</filter>
<filter id="filter5_dd_366_874" x="27.8385" y="0.88927" width="91.734" height="26.7344" filterUnits="userSpaceOnUse" color-interpolation-filters="sRGB">
<feFlood flood-opacity="0" result="BackgroundImageFix"/>
<feColorMatrix in="SourceAlpha" type="matrix" values="0 0 0 0 0 0 0 0 0 0 0 0 0 0 0 0 0 0 127 0" result="hardAlpha"/>
<feOffset/>
<feGaussianBlur stdDeviation="2.8776"/>
<feComposite in2="hardAlpha" operator="out"/>
<feColorMatrix type="matrix" values="0 0 0 0 0 0 0 0 0 0 0 0 0 0 0 0 0 0 0.08 0"/>
<feBlend mode="normal" in2="BackgroundImageFix" result="effect1_dropShadow_366_874"/>
<feColorMatrix in="SourceAlpha" type="matrix" values="0 0 0 0 0 0 0 0 0 0 0 0 0 0 0 0 0 0 127 0" result="hardAlpha"/>
<feOffset dy="1.056"/>
<feGaussianBlur stdDeviation="1.8744"/>
<feComposite in2="hardAlpha" operator="out"/>
<feColorMatrix type="matrix" values="0 0 0 0 0 0 0 0 0 0 0 0 0 0 0 0 0 0 0.07 0"/>
<feBlend mode="normal" in2="effect1_dropShadow_366_874" result="effect2_dropShadow_366_874"/>
<feBlend mode="normal" in="SourceGraphic" in2="effect2_dropShadow_366_874" result="shape"/>
</filter>
<filter id="filter6_dd_366_874" x="145.03" y="37.9524" width="66.734" height="26.7344" filterUnits="userSpaceOnUse" color-interpolation-filters="sRGB">
<feFlood flood-opacity="0" result="BackgroundImageFix"/>
<feColorMatrix in="SourceAlpha" type="matrix" values="0 0 0 0 0 0 0 0 0 0 0 0 0 0 0 0 0 0 127 0" result="hardAlpha"/>
<feOffset/>
<feGaussianBlur stdDeviation="2.8776"/>
<feComposite in2="hardAlpha" operator="out"/>
<feColorMatrix type="matrix" values="0 0 0 0 0 0 0 0 0 0 0 0 0 0 0 0 0 0 0.08 0"/>
<feBlend mode="normal" in2="BackgroundImageFix" result="effect1_dropShadow_366_874"/>
<feColorMatrix in="SourceAlpha" type="matrix" values="0 0 0 0 0 0 0 0 0 0 0 0 0 0 0 0 0 0 127 0" result="hardAlpha"/>
<feOffset dy="1.056"/>
<feGaussianBlur stdDeviation="1.8744"/>
<feComposite in2="hardAlpha" operator="out"/>
<feColorMatrix type="matrix" values="0 0 0 0 0 0 0 0 0 0 0 0 0 0 0 0 0 0 0.07 0"/>
<feBlend mode="normal" in2="effect1_dropShadow_366_874" result="effect2_dropShadow_366_874"/>
<feBlend mode="normal" in="SourceGraphic" in2="effect2_dropShadow_366_874" result="shape"/>
</filter>
<linearGradient id="paint0_linear_366_874" x1="147.252" y1="218.115" x2="147.252" y2="56.4017" gradientUnits="userSpaceOnUse">
<stop stop-color="#2770F8"/>
<stop offset="1" stop-color="#2770F8" stop-opacity="0"/>
</linearGradient>
<linearGradient id="paint1_linear_366_874" x1="147.252" y1="218.115" x2="147.252" y2="56.4017" gradientUnits="userSpaceOnUse">
<stop stop-color="#165DC7"/>
<stop offset="1" stop-color="#165DC7" stop-opacity="0"/>
</linearGradient>
<linearGradient id="paint2_linear_366_874" x1="147.252" y1="218.115" x2="147.252" y2="56.4017" gradientUnits="userSpaceOnUse">
<stop stop-color="#2770F8"/>
<stop offset="1" stop-color="#2770F8" stop-opacity="0"/>
</linearGradient>
<linearGradient id="paint3_linear_366_874" x1="147.252" y1="218.115" x2="147.252" y2="56.4017" gradientUnits="userSpaceOnUse">
<stop stop-color="#165DC7"/>
<stop offset="1" stop-color="#165DC7" stop-opacity="0"/>
</linearGradient>
<linearGradient id="paint4_linear_366_874" x1="147.252" y1="218.115" x2="147.252" y2="56.4017" gradientUnits="userSpaceOnUse">
<stop stop-color="#2770F8"/>
<stop offset="1" stop-color="#2770F8" stop-opacity="0"/>
</linearGradient>
<linearGradient id="paint5_linear_366_874" x1="147.252" y1="218.115" x2="147.252" y2="56.4017" gradientUnits="userSpaceOnUse">
<stop stop-color="#165DC7"/>
<stop offset="1" stop-color="#165DC7" stop-opacity="0"/>
</linearGradient>
<linearGradient id="paint6_linear_366_874" x1="144.925" y1="37.205" x2="144.925" y2="15.6021" gradientUnits="userSpaceOnUse">
<stop stop-color="#2770F8"/>
<stop offset="1" stop-color="#2770F8" stop-opacity="0"/>
</linearGradient>
<linearGradient id="paint7_linear_366_874" x1="144.925" y1="37.205" x2="144.925" y2="15.6021" gradientUnits="userSpaceOnUse">
<stop stop-color="#165DC7"/>
<stop offset="1" stop-color="#165DC7" stop-opacity="0"/>
</linearGradient>
</defs>
</svg>
